SplineFontDB: 2.0
FontName: ArundinaSansMono
FullName: Arundina Sans Mono
FamilyName: Arundina Sans Mono
Weight: Book
Copyright: Copyright (c) 2003 by Bitstream, Inc. All Rights Reserved.\nCopyright (c) 2007 by Software Industry Promotion Agency (Public Organization). All Rights Reserved.
Version: 1.20
ItalicAngle: 0
UnderlinePosition: -153
UnderlineWidth: 102
Ascent: 1638
Descent: 410
Order2: 1
NeedsXUIDChange: 1
XUID: [1021 375 425136265 5877357]
FSType: 4
OS2Version: 2
OS2_WeightWidthSlopeOnly: 0
OS2_UseTypoMetrics: 1
CreationTime: 1131303360
ModificationTime: 1195285601
PfmFamily: 49
TTFWeight: 400
TTFWidth: 5
LineGap: 25
VLineGap: 0
Panose: 2 11 3 0 2 2 2 2 2 4
OS2TypoAscent: 0
OS2TypoAOffset: 1
OS2TypoDescent: -410
OS2TypoDOffset: 1
OS2TypoLinegap: 0
OS2WinAscent: -379
OS2WinAOffset: 1
OS2WinDescent: 96
OS2WinDOffset: 1
HheadAscent: -379
HheadAOffset: 1
HheadDescent: -96
HheadDOffset: 1
OS2SubXSize: 1434
OS2SubYSize: 1331
OS2SubXOff: 0
OS2SubYOff: 287
OS2SupXSize: 1434
OS2SupYSize: 1331
OS2SupXOff: 0
OS2SupYOff: 977
OS2StrikeYSize: 82
OS2StrikeYPos: 512
OS2FamilyClass: 1285
OS2Vendor: 'BLWK'
Lookup: 4 0 0 "'frac' Diagonal Fractions in Latin lookup 0"  {"'frac' Diagonal Fractions in Latin lookup 0 subtable"  } ['frac' ('latn' <'dflt' > ) ]
Lookup: 6 0 0 "'liga' Standard Ligatures in Latin lookup 1"  {"'liga' Standard Ligatures in Latin lookup 1 subtable"  } ['liga' ('latn' <'dflt' > ) ]
Lookup: 6 0 0 "'liga' Standard Ligatures in Latin lookup 2"  {"'liga' Standard Ligatures in Latin lookup 2 subtable"  } ['liga' ('latn' <'dflt' > ) ]
Lookup: 6 0 0 "'liga' Standard Ligatures in Latin lookup 3"  {"'liga' Standard Ligatures in Latin lookup 3 subtable"  } ['liga' ('latn' <'dflt' > ) ]
Lookup: 6 0 0 "'liga' Standard Ligatures in Latin lookup 4"  {"'liga' Standard Ligatures in Latin lookup 4 subtable"  } ['liga' ('latn' <'dflt' > ) ]

StartChar: .notdef
Encoding: 65536 -1 0
Width: 1234
VWidth: 3393
Flags: W
HStem: -363 114<220 1014> 1331 114<220 1014>
VStem: 104 116<-249 1331> 1014 116<-249 1331>
Fore
104 1445 m 1,0,-1
 1130 1445 l 1,1,-1
 1130 -363 l 1,2,-1
 104 -363 l 1,3,-1
 104 1445 l 1,0,-1
1014 -249 m 1,4,-1
 1014 1331 l 1,5,-1
 220 1331 l 1,6,-1
 220 -249 l 1,7,-1
 1014 -249 l 1,4,-1
EndSplineSet
EndChar
StartChar: exclam
Encoding: 33 33 4
Width: 1234
VWidth: 3393
Flags: W
HStem: 0 255<515 719> 1473 20G<515 719>
VStem: 515 204<0 255 722.009 1493>
Fore
719 1493 m 1,0,-1
 719 838 l 1,1,-1
 699 482 l 1,2,-1
 537 482 l 1,3,-1
 515 838 l 1,4,-1
 515 1493 l 1,5,-1
 719 1493 l 1,0,-1
719 255 m 1,6,-1
 719 0 l 1,7,-1
 515 0 l 1,8,-1
 515 255 l 1,9,-1
 719 255 l 1,6,-1
EndSplineSet
EndChar
StartChar: quotedbl
Encoding: 34 34 5
Width: 1234
VWidth: 3393
Flags: W
HStem: 1473 20G<340 512 722 896>
VStem: 340 172<940 1493> 722 174<940 1493 940 1493 940 940>
Fore
896 940 m 1,0,-1
 722 940 l 1,1,-1
 722 1493 l 1,2,-1
 896 1493 l 1,3,-1
 896 940 l 1,0,-1
512 940 m 1,4,-1
 340 940 l 1,5,-1
 340 1493 l 1,6,-1
 512 1493 l 1,7,-1
 512 940 l 1,4,-1
EndSplineSet
EndChar
StartChar: numbersign
Encoding: 35 35 6
Width: 1234
VWidth: 3393
Flags: W
HStem: 0 21G<156 320.121 560 726.976> 414 153<3 262 457 664 865 1117> 903 153<119 383 580 787 988 1231>
Fore
580 1056 m 1,0,-1
 825 1056 l 1,1,-1
 930 1473 l 1,2,-1
 1092 1473 l 1,3,-1
 988 1056 l 1,4,-1
 1231 1056 l 1,5,-1
 1231 903 l 1,6,-1
 949 903 l 1,7,-1
 865 567 l 1,8,-1
 1117 567 l 1,9,-1
 1117 414 l 1,10,-1
 825 414 l 1,11,-1
 722 0 l 1,12,-1
 560 0 l 1,13,-1
 664 414 l 1,14,-1
 421 414 l 1,15,-1
 315 0 l 1,16,-1
 156 0 l 1,17,-1
 262 414 l 1,18,-1
 3 414 l 1,19,-1
 3 567 l 1,20,-1
 298 567 l 1,21,-1
 383 903 l 1,22,-1
 119 903 l 1,23,-1
 119 1056 l 1,24,-1
 421 1056 l 1,25,-1
 525 1473 l 1,26,-1
 686 1473 l 1,27,-1
 580 1056 l 1,0,-1
543 903 m 1,28,-1
 457 567 l 1,29,-1
 706 567 l 1,30,-1
 787 903 l 1,31,-1
 543 903 l 1,28,-1
EndSplineSet
EndChar
StartChar: dollar
Encoding: 36 36 7
Width: 1234
VWidth: 3393
Flags: W
HStem: 3 143<693 844.402> 1185 139<449.18 593 693 851.015> 1538 20G<593 693>
VStem: 191 179<851.92 1107.36> 593 100<-302 0 146 580 771 1181 1324 1558> 926 191<225.103 498.256>
Fore
693 146 m 1,0,1
 804 149 804 149 865 207 c 128,-1,2
 926 265 926 265 926 366 c 0,3,4
 926 457 926 457 870.5 510 c 128,-1,5
 815 563 815 563 693 580 c 1,6,-1
 693 146 l 1,0,1
593 1185 m 1,7,8
 489 1181 489 1181 429.5 1125 c 128,-1,9
 370 1069 370 1069 370 974 c 0,10,11
 370 807 370 807 593 771 c 1,12,-1
 593 1185 l 1,7,8
593 -302 m 1,13,-1
 590 0 l 1,14,15
 391 10 391 10 191 91 c 1,16,-1
 191 272 l 1,17,18
 391 149 391 149 593 143 c 1,19,-1
 593 600 l 1,20,21
 191 661 191 661 191 964 c 0,22,23
 191 1123 191 1123 295 1215 c 0,24,25
 404 1311 404 1311 593 1324 c 1,26,-1
 593 1558 l 1,27,-1
 693 1558 l 1,28,-1
 693 1324 l 1,29,30
 852 1314 852 1314 1017 1263 c 1,31,-1
 1017 1089 l 1,32,33
 933 1130 933 1130 853.5 1154 c 128,-1,34
 774 1178 774 1178 693 1181 c 1,35,-1
 693 751 l 1,36,37
 900 719 900 719 1008.5 622 c 128,-1,38
 1117 525 1117 525 1117 370 c 0,39,40
 1117 217 1117 217 998 116 c 0,41,42
 882 10 882 10 693 3 c 1,43,-1
 693 -302 l 1,44,-1
 593 -302 l 1,13,-1
EndSplineSet
EndChar
StartChar: percent
Encoding: 37 37 8
Width: 1234
VWidth: 3393
Flags: W
HStem: 0 136<757.523 1004.13> 505 136<761.682 998.729> 794 136<227.432 474.856> 1296 136<227.783 472.239>
VStem: 33 136<988.248 1238.64> 537 136<992.94 1231.51> 560 136<198.628 439.193> 1065 136<198.477 439.202>
Fore
696 320 m 0,0,1
 696 240 696 240 751 187 c 0,2,3
 800 136 800 136 878 136 c 256,4,5
 958 136 958 136 1011 187 c 0,6,7
 1065 249 1065 249 1065 320 c 256,8,9
 1065 391 1065 391 1011 451 c 0,10,11
 949 505 949 505 878 505 c 0,12,13
 804 505 804 505 751 451 c 0,14,15
 696 401 696 401 696 320 c 0,0,1
560 320 m 0,16,17
 560 451 560 451 655 547 c 256,18,19
 751 641 751 641 878 641 c 0,20,21
 1011 641 1011 641 1107 547 c 0,22,23
 1201 444 1201 444 1201 320 c 0,24,25
 1201 191 1201 191 1110 91 c 0,26,27
 1014 0 1014 0 878 0 c 256,28,29
 744 0 744 0 651 91 c 256,30,31
 560 184 560 184 560 320 c 0,16,17
85 560 m 1,32,-1
 1130 981 l 1,33,-1
 1171 882 l 1,34,-1
 123 466 l 1,35,-1
 85 560 l 1,32,-1
169 1114 m 0,36,37
 169 1032 169 1032 220 981 c 256,38,39
 272 930 272 930 353 930 c 0,40,41
 431 930 431 930 482 981 c 0,42,43
 537 1036 537 1036 537 1114 c 256,44,45
 537 1191 537 1191 482 1243 c 0,46,47
 431 1296 431 1296 353 1296 c 0,48,49
 278 1296 278 1296 220 1246 c 0,50,51
 169 1191 169 1191 169 1114 c 0,36,37
33 1114 m 256,52,53
 33 1249 33 1249 126 1341 c 256,54,55
 217 1432 217 1432 353 1432 c 256,56,57
 489 1432 489 1432 580 1341 c 0,58,59
 673 1243 673 1243 673 1114 c 0,60,61
 673 978 673 978 580 886 c 256,62,63
 489 794 489 794 353 794 c 256,64,65
 217 794 217 794 126 886 c 256,66,67
 33 978 33 978 33 1114 c 256,52,53
EndSplineSet
EndChar
StartChar: ampersand
Encoding: 38 38 9
Width: 1234
VWidth: 3393
Flags: W
HStem: -30 156<406.133 761.909> 1367 154<469.998 820.045>
VStem: 58 176<295.844 646.153> 237 177<1060.05 1311.56> 1039 162<417.024 722.785 722.785 761>
Fore
964 350 m 1,0,1
 1042 447 1042 447 1042 651 c 0,2,3
 1042 668 1042 668 1042 692 c 128,-1,4
 1042 716 1042 716 1039 754 c 2,5,-1
 1039 761 l 1,6,-1
 1201 761 l 1,7,-1
 1201 722 l 2,8,9
 1201 401 1201 401 1052 230 c 1,10,-1
 1221 0 l 1,11,-1
 1007 0 l 1,12,-1
 930 109 l 1,13,14
 764 -30 764 -30 557 -30 c 0,15,16
 343 -30 343 -30 197 104 c 0,17,18
 58 244 58 244 58 444 c 0,19,20
 58 719 58 719 336 916 c 1,21,22
 237 1056 237 1056 237 1198 c 0,23,24
 237 1350 237 1350 336 1435 c 256,25,26
 434 1521 434 1521 608 1521 c 0,27,28
 739 1521 739 1521 875 1476 c 1,29,-1
 875 1292 l 1,30,31
 761 1367 761 1367 621 1367 c 0,32,33
 522 1367 522 1367 468 1321.5 c 128,-1,34
 414 1276 414 1276 414 1198 c 0,35,36
 414 1133 414 1133 441 1075 c 0,37,38
 472 1007 472 1007 547 910 c 2,39,-1
 964 350 l 1,0,1
418 804 m 1,40,41
 234 661 234 661 234 476 c 0,42,43
 234 323 234 323 333 224 c 0,44,45
 437 126 437 126 587 126 c 0,46,47
 679 126 679 126 767 172 c 0,48,49
 815 200 815 200 845 224 c 1,50,-1
 418 804 l 1,40,41
EndSplineSet
EndChar
StartChar: quotesingle
Encoding: 39 39 10
Width: 1234
VWidth: 3393
Flags: W
HStem: 1473 20G<529 703>
VStem: 529 174<940 1493 940 1493 940 940>
Fore
703 940 m 1,0,-1
 529 940 l 1,1,-1
 529 1493 l 1,2,-1
 703 1493 l 1,3,-1
 703 940 l 1,0,-1
EndSplineSet
EndChar
StartChar: parenleft
Encoding: 40 40 11
Width: 1234
VWidth: 3393
Flags: W
VStem: 428 193<291.255 984.469>
Fore
886 1554 m 1,0,1
 621 1104 621 1104 621 645 c 0,2,3
 621 194 621 194 886 -272 c 1,4,-1
 726 -272 l 1,5,6
 573 -30 573 -30 500.5 194 c 128,-1,7
 428 418 428 418 428 645 c 0,8,9
 428 1089 428 1089 726 1554 c 1,10,-1
 886 1554 l 1,0,1
EndSplineSet
EndChar
StartChar: parenright
Encoding: 41 41 12
Width: 1234
VWidth: 3393
Flags: W
VStem: 615 192<304.383 982.828>
Fore
509 1554 m 1,0,1
 807 1089 807 1089 807 645 c 256,2,3
 807 200 807 200 509 -272 c 1,4,-1
 350 -272 l 1,5,6
 482 -38 482 -38 548.5 188 c 128,-1,7
 615 414 615 414 615 645 c 0,8,9
 615 1097 615 1097 350 1554 c 1,10,-1
 509 1554 l 1,0,1
EndSplineSet
EndChar
StartChar: asterisk
Encoding: 42 42 13
Width: 1234
VWidth: 3393
Flags: W
HStem: 1501 20G<560 676>
VStem: 560 116<587 964 1143 1521 587 1521 587 587>
Fore
709 1056 m 1,0,-1
 1069 858 l 1,1,-1
 1011 761 l 1,2,-1
 676 964 l 1,3,-1
 676 587 l 1,4,-1
 560 587 l 1,5,-1
 560 964 l 1,6,-1
 224 761 l 1,7,-1
 166 858 l 1,8,-1
 525 1056 l 1,9,-1
 166 1249 l 1,10,-1
 224 1347 l 1,11,-1
 560 1143 l 1,12,-1
 560 1521 l 1,13,-1
 676 1521 l 1,14,-1
 676 1143 l 1,15,-1
 1011 1347 l 1,16,-1
 1069 1249 l 1,17,-1
 709 1056 l 1,0,-1
EndSplineSet
EndChar
StartChar: plus
Encoding: 43 43 14
Width: 1234
VWidth: 3393
Flags: W
HStem: 557 169<88 534 703 1147>
VStem: 534 169<113 557 726 1171>
Fore
703 726 m 1,0,-1
 1147 726 l 1,1,-1
 1147 557 l 1,2,-1
 703 557 l 1,3,-1
 703 113 l 1,4,-1
 534 113 l 1,5,-1
 534 557 l 1,6,-1
 88 557 l 1,7,-1
 88 726 l 1,8,-1
 534 726 l 1,9,-1
 534 1171 l 1,10,-1
 703 1171 l 1,11,-1
 703 726 l 1,0,-1
EndSplineSet
EndChar
StartChar: comma
Encoding: 44 44 15
Width: 1234
VWidth: 3393
Flags: W
HStem: -288 590<502 557>
VStem: 502 252<94 302>
Fore
754 302 m 1,0,-1
 754 94 l 1,1,-1
 557 -288 l 1,2,-1
 404 -288 l 1,3,-1
 502 94 l 1,4,-1
 502 302 l 1,5,-1
 754 302 l 1,0,-1
EndSplineSet
EndChar
StartChar: hyphen
Encoding: 45 45 16
Width: 1234
VWidth: 3393
Flags: W
HStem: 479 166<356 878 356 878 356 356>
Fore
878 645 m 1,0,-1
 878 479 l 1,1,-1
 356 479 l 1,2,-1
 356 645 l 1,3,-1
 878 645 l 1,0,-1
EndSplineSet
EndChar
StartChar: period
Encoding: 46 46 17
Width: 1234
VWidth: 3393
Flags: W
HStem: 0 305<489 744>
VStem: 489 255<0 305>
Fore
744 305 m 1,0,-1
 744 0 l 1,1,-1
 489 0 l 1,2,-1
 489 305 l 1,3,-1
 744 305 l 1,0,-1
EndSplineSet
EndChar
StartChar: slash
Encoding: 47 47 18
Width: 1234
VWidth: 3393
Flags: W
HStem: 1473 20G<880.629 1079>
VStem: 101 978<-191 1493 -191 -191>
Fore
1079 1493 m 1,0,-1
 292 -191 l 1,1,-1
 101 -191 l 1,2,-1
 890 1493 l 1,3,-1
 1079 1493 l 1,0,-1
EndSplineSet
EndChar
StartChar: zero
Encoding: 48 48 19
Width: 1234
VWidth: 3393
Flags: W
HStem: -30 163<489.746 745.83> 618 268<523.192 707.716> 1360 161<489.635 746.496>
VStem: 133 203<359.051 1135.36> 482 269<656.285 843.716> 900 204<359.051 1135.36>
Fore
482 751 m 0,0,1
 482 804 482 804 522 845 c 0,2,3
 560 886 560 886 615 886 c 256,4,5
 668 886 668 886 709 845 c 256,6,7
 751 804 751 804 751 751 c 256,8,9
 751 696 751 696 709 655 c 0,10,11
 673 618 673 618 615 618 c 0,12,13
 563 618 563 618 519 655 c 0,14,15
 482 693 482 693 482 751 c 0,0,1
618 1360 m 256,16,17
 336 1360 336 1360 336 747 c 256,18,19
 336 133 336 133 618 133 c 256,20,21
 900 133 900 133 900 747 c 256,22,23
 900 1360 900 1360 618 1360 c 256,16,17
618 1521 m 256,24,25
 1104 1521 1104 1521 1104 747 c 0,26,27
 1104 363 1104 363 981 166.5 c 128,-1,28
 858 -30 858 -30 618 -30 c 256,29,30
 376 -30 376 -30 254.5 166.5 c 128,-1,31
 133 363 133 363 133 747 c 0,32,33
 133 1521 133 1521 618 1521 c 256,24,25
EndSplineSet
EndChar
StartChar: one
Encoding: 49 49 20
Width: 1234
VWidth: 3393
Flags: W
HStem: 0 169<272 583 784 1097> 1473 20G<488.915 784>
VStem: 583 201<169 1314>
Fore
583 169 m 1,0,-1
 583 1314 l 1,1,-1
 249 1234 l 1,2,-1
 249 1422 l 1,3,-1
 583 1493 l 1,4,-1
 784 1493 l 1,5,-1
 784 169 l 1,6,-1
 1097 169 l 1,7,-1
 1097 0 l 1,8,-1
 272 0 l 1,9,-1
 272 169 l 1,10,-1
 583 169 l 1,0,-1
EndSplineSet
EndChar
StartChar: two
Encoding: 50 50 21
Width: 1234
VWidth: 3393
Flags: W
HStem: 0 169<373 1059> 1350 171<343.714 736.063>
VStem: 842 207<921.847 1246.86>
Fore
1059 169 m 1,0,-1
 1059 0 l 1,1,-1
 152 0 l 1,2,-1
 152 169 l 1,3,4
 249 268 249 268 330 354.5 c 128,-1,5
 411 441 411 441 479 519 c 0,6,7
 621 673 621 673 673 732 c 0,8,9
 771 852 771 852 807 930 c 0,10,11
 842 1001 842 1001 842 1082 c 0,12,13
 842 1211 842 1211 769 1280.5 c 128,-1,14
 696 1350 696 1350 567 1350 c 0,15,16
 386 1350 386 1350 162 1218 c 1,17,-1
 162 1422 l 1,18,19
 376 1521 376 1521 563 1521 c 0,20,21
 787 1521 787 1521 916 1405 c 0,22,23
 1049 1289 1049 1289 1049 1100 c 0,24,25
 1049 1001 1049 1001 1005 905.5 c 128,-1,26
 961 810 961 810 862 696 c 0,27,28
 835 661 835 661 794.5 617 c 128,-1,29
 754 573 754 573 699 515 c 0,30,31
 593 401 593 401 373 169 c 1,32,-1
 1059 169 l 1,0,-1
EndSplineSet
EndChar
StartChar: three
Encoding: 51 51 22
Width: 1234
VWidth: 3393
Flags: W
HStem: -30 173<283.377 749.186> 716 166<398 742.375> 1350 171<286.273 747.945>
VStem: 845 201<974.36 1259.53> 878 201<264.521 587.954>
Fore
777 800 m 1,0,1
 1079 716 1079 716 1079 414 c 0,2,3
 1079 204 1079 204 940 88 c 0,4,5
 800 -30 800 -30 557 -30 c 0,6,7
 353 -30 353 -30 136 45 c 1,8,-1
 136 249 l 1,9,10
 343 143 343 143 537 143 c 0,11,12
 703 143 703 143 790.5 215.5 c 128,-1,13
 878 288 878 288 878 431 c 0,14,15
 878 560 878 560 790 638 c 256,16,17
 703 716 703 716 550 716 c 2,18,-1
 398 716 l 1,19,-1
 398 882 l 1,20,-1
 550 882 l 2,21,22
 693 882 693 882 769 943 c 128,-1,23
 845 1004 845 1004 845 1114 c 0,24,25
 845 1228 845 1228 772 1289 c 128,-1,26
 699 1350 699 1350 567 1350 c 0,27,28
 398 1350 398 1350 184 1273 c 1,29,-1
 184 1460 l 1,30,31
 424 1521 424 1521 567 1521 c 0,32,33
 784 1521 784 1521 913 1412 c 0,34,35
 1046 1299 1046 1299 1046 1120 c 0,36,37
 1046 868 1046 868 777 800 c 1,0,1
EndSplineSet
EndChar
StartChar: four
Encoding: 52 52 23
Width: 1234
VWidth: 3393
Flags: W
HStem: 0 21G<736 936> 356 163<265 736 936 1137> 1473 20G<690.273 936>
VStem: 736 200<0 356 519 1311>
Fore
265 519 m 1,0,-1
 736 519 l 1,1,-1
 736 1311 l 1,2,-1
 265 519 l 1,0,-1
936 1493 m 1,3,-1
 936 519 l 1,4,-1
 1137 519 l 1,5,-1
 1137 356 l 1,6,-1
 936 356 l 1,7,-1
 936 0 l 1,8,-1
 736 0 l 1,9,-1
 736 356 l 1,10,-1
 101 356 l 1,11,-1
 101 547 l 1,12,-1
 703 1493 l 1,13,-1
 936 1493 l 1,3,-1
EndSplineSet
EndChar
StartChar: five
Encoding: 53 53 24
Width: 1234
VWidth: 3393
Flags: W
HStem: -30 173<259.848 719.721> 819 169<392.523 708.906> 1324 169<391 964>
VStem: 143 926<240 240> 207 184<958 1324> 865 204<285.759 668.009>
Fore
964 1493 m 1,0,-1
 964 1324 l 1,1,-1
 391 1324 l 1,2,-1
 391 958 l 1,3,4
 479 988 479 988 567 988 c 0,5,6
 797 988 797 988 933 852 c 256,7,8
 1069 716 1069 716 1069 479 c 256,9,10
 1069 240 1069 240 926 109 c 0,11,12
 780 -30 780 -30 537 -30 c 0,13,14
 308 -30 308 -30 143 33 c 1,15,-1
 143 240 l 1,16,17
 320 143 320 143 519 143 c 0,18,19
 689 143 689 143 777 229 c 128,-1,20
 865 315 865 315 865 479 c 0,21,22
 865 638 865 638 774 729 c 0,23,24
 676 819 676 819 512 819 c 0,25,26
 346 819 346 819 207 744 c 1,27,-1
 207 1493 l 1,28,-1
 964 1493 l 1,0,-1
EndSplineSet
EndChar
StartChar: six
Encoding: 54 54 25
Width: 1234
VWidth: 3393
Flags: W
HStem: -30 159<479.625 787.023> 832 156<483.667 785.556> 1350 171<528.376 931.018>
VStem: 133 220<342.754 897.842> 133 187<780 1092.69> 903 201<254.256 706.848>
Fore
991 1276 m 1,0,1
 862 1350 862 1350 709 1350 c 0,2,3
 320 1350 320 1350 320 780 c 1,4,5
 366 878 366 878 453 933 c 128,-1,6
 540 988 540 988 648 988 c 0,7,8
 865 988 865 988 981 855 c 0,9,10
 1104 722 1104 722 1104 479 c 0,11,12
 1104 244 1104 244 981 104 c 0,13,14
 858 -30 858 -30 635 -30 c 0,15,16
 379 -30 379 -30 255 156 c 0,17,18
 133 346 133 346 133 747 c 0,19,20
 133 1127 133 1127 278.5 1324 c 128,-1,21
 424 1521 424 1521 703 1521 c 0,22,23
 848 1521 848 1521 991 1463 c 1,24,-1
 991 1276 l 1,0,1
631 832 m 0,25,26
 505 832 505 832 428 736 c 0,27,28
 353 641 353 641 353 479 c 0,29,30
 353 323 353 323 428 220 c 0,31,32
 505 129 505 129 631 129 c 0,33,34
 903 129 903 129 903 479 c 0,35,36
 903 832 903 832 631 832 c 0,25,26
EndSplineSet
EndChar
StartChar: seven
Encoding: 55 55 26
Width: 1234
VWidth: 3393
Flags: W
HStem: 0 21G<336 554.557> 1324 169<139 855>
VStem: 139 940<1408 1493>
Fore
1079 1493 m 1,0,-1
 1079 1408 l 1,1,-1
 547 0 l 1,2,-1
 336 0 l 1,3,-1
 855 1324 l 1,4,-1
 139 1324 l 1,5,-1
 139 1493 l 1,6,-1
 1079 1493 l 1,0,-1
EndSplineSet
EndChar
StartChar: eight
Encoding: 56 56 27
Width: 1234
VWidth: 3393
Flags: W
HStem: -30 159<449.905 789.973> 709 159<450.226 780.954> 1364 157<450.851 780.63>
VStem: 133 203<245.021 596.445> 166 200<956.122 1281.03> 865 204<956.122 1281.03> 900 204<239.74 596.445>
Fore
618 709 m 256,0,1
 482 709 482 709 409 634.5 c 128,-1,2
 336 560 336 560 336 421 c 256,3,4
 336 282 336 282 411 205.5 c 128,-1,5
 486 129 486 129 618 129 c 0,6,7
 754 129 754 129 827 203.5 c 128,-1,8
 900 278 900 278 900 421 c 0,9,10
 900 560 900 560 827 634.5 c 128,-1,11
 754 709 754 709 618 709 c 256,0,1
441 794 m 1,12,13
 312 828 312 828 239 916 c 128,-1,14
 166 1004 166 1004 166 1133 c 0,15,16
 166 1314 166 1314 288 1415 c 0,17,18
 408 1521 408 1521 618 1521 c 256,19,20
 828 1521 828 1521 946 1415 c 0,21,22
 1069 1314 1069 1314 1069 1133 c 0,23,24
 1069 1004 1069 1004 996 916 c 128,-1,25
 923 828 923 828 794 794 c 1,26,27
 1104 726 1104 726 1104 401 c 0,28,29
 1104 197 1104 197 974 85 c 0,30,31
 842 -30 842 -30 618 -30 c 256,32,33
 394 -30 394 -30 258 85 c 0,34,35
 133 197 133 197 133 401 c 0,36,37
 133 726 133 726 441 794 c 1,12,13
366 1117 m 256,38,39
 366 868 366 868 618 868 c 0,40,41
 865 868 865 868 865 1117 c 256,42,43
 865 1364 865 1364 618 1364 c 0,44,45
 366 1364 366 1364 366 1117 c 256,38,39
EndSplineSet
EndChar
StartChar: nine
Encoding: 57 57 28
Width: 1234
VWidth: 3393
Flags: W
HStem: -30 173<364.546 700.143> 505 156<440.39 744.631> 1364 157<441.402 744.229>
VStem: 126 200<786.899 1240.49> 872 225<593.855 1148.02> 910 187<400.307 713>
Fore
597 661 m 0,0,1
 726 661 726 661 797 757 c 0,2,3
 872 845 872 845 872 1014 c 0,4,5
 872 1181 872 1181 797 1269 c 0,6,7
 726 1364 726 1364 597 1364 c 0,8,9
 326 1364 326 1364 326 1014 c 0,10,11
 326 661 326 661 597 661 c 0,0,1
237 217 m 1,12,13
 366 143 366 143 519 143 c 0,14,15
 910 143 910 143 910 713 c 1,16,17
 862 615 862 615 775.5 560 c 128,-1,18
 689 505 689 505 580 505 c 0,19,20
 366 505 366 505 244 638 c 0,21,22
 126 774 126 774 126 1014 c 256,23,24
 126 1256 126 1256 249 1389 c 256,25,26
 370 1521 370 1521 593 1521 c 0,27,28
 852 1521 852 1521 974 1334 c 256,29,30
 1097 1147 1097 1147 1097 747 c 0,31,32
 1097 366 1097 366 950.5 168 c 128,-1,33
 804 -30 804 -30 525 -30 c 0,34,35
 454 -30 454 -30 379.5 -13.5 c 128,-1,36
 305 3 305 3 237 30 c 1,37,-1
 237 217 l 1,12,13
EndSplineSet
EndChar
StartChar: colon
Encoding: 58 58 29
Width: 1234
VWidth: 3393
Flags: W
HStem: 0 305<489 744> 761 304<489 744>
VStem: 489 255<0 305 761 1065>
Fore
744 1065 m 1,0,-1
 744 761 l 1,1,-1
 489 761 l 1,2,-1
 489 1065 l 1,3,-1
 744 1065 l 1,0,-1
744 305 m 1,4,-1
 744 0 l 1,5,-1
 489 0 l 1,6,-1
 489 305 l 1,7,-1
 744 305 l 1,4,-1
EndSplineSet
EndChar
StartChar: semicolon
Encoding: 59 59 30
Width: 1234
VWidth: 3393
Flags: W
HStem: 761 304<489 744>
VStem: 502 252<94 302 761 1065>
Fore
754 302 m 1,0,-1
 754 94 l 1,1,-1
 557 -288 l 1,2,-1
 404 -288 l 1,3,-1
 502 94 l 1,4,-1
 502 302 l 1,5,-1
 754 302 l 1,0,-1
744 1065 m 1,6,-1
 744 761 l 1,7,-1
 489 761 l 1,8,-1
 489 1065 l 1,9,-1
 744 1065 l 1,6,-1
EndSplineSet
EndChar
StartChar: less
Encoding: 60 60 31
Width: 1234
VWidth: 3393
Flags: W
HStem: 143 1000<1147 1147 1147 1147>
Fore
295 641 m 1,0,-1
 1147 326 l 1,1,-1
 1147 143 l 1,2,-1
 88 560 l 1,3,-1
 88 726 l 1,4,-1
 1147 1143 l 1,5,-1
 1147 961 l 1,6,-1
 295 641 l 1,0,-1
EndSplineSet
EndChar
StartChar: equal
Encoding: 61 61 32
Width: 1234
VWidth: 3393
Flags: W
HStem: 353 172<88 1147> 761 169<88 1147>
Fore
1147 525 m 1,0,-1
 1147 353 l 1,1,-1
 88 353 l 1,2,-1
 88 525 l 1,3,-1
 1147 525 l 1,0,-1
1147 930 m 1,4,-1
 1147 761 l 1,5,-1
 88 761 l 1,6,-1
 88 930 l 1,7,-1
 1147 930 l 1,4,-1
EndSplineSet
EndChar
StartChar: greater
Encoding: 62 62 33
Width: 1234
VWidth: 3393
Flags: W
HStem: 143 1000<88 88 88 88>
Fore
88 1143 m 1,0,-1
 1147 726 l 1,1,-1
 1147 560 l 1,2,-1
 88 143 l 1,3,-1
 88 326 l 1,4,-1
 940 641 l 1,5,-1
 88 961 l 1,6,-1
 88 1143 l 1,0,-1
EndSplineSet
EndChar
StartChar: question
Encoding: 63 63 34
Width: 1234
VWidth: 3393
Flags: W
HStem: 0 255<489 693> 1357 164<411.918 759.902>
VStem: 495 191<0 255 401 641.59> 838 204<1067.7 1281.59>
Fore
495 401 m 1,0,-1
 495 557 l 2,1,2
 495 651 495 651 525 722 c 0,3,4
 560 794 560 794 641 872 c 2,5,-1
 729 961 l 2,6,7
 797 1029 797 1029 815 1065 c 0,8,9
 838 1104 838 1104 838 1157 c 0,10,11
 838 1249 838 1249 774 1302 c 256,12,13
 709 1357 709 1357 597 1357 c 0,14,15
 447 1357 447 1357 244 1221 c 1,16,-1
 244 1408 l 1,17,18
 434 1521 434 1521 635 1521 c 0,19,20
 825 1521 825 1521 930 1425 c 0,21,22
 1042 1331 1042 1331 1042 1168 c 0,23,24
 1042 1089 1042 1089 1007 1024 c 0,25,26
 991 994 991 994 958.5 955 c 128,-1,27
 926 916 926 916 878 868 c 2,28,-1
 790 784 l 2,29,30
 722 716 722 716 703 676 c 0,31,32
 686 631 686 631 686 570 c 2,33,-1
 686 525 l 1,34,-1
 686 401 l 1,35,-1
 495 401 l 1,0,-1
693 255 m 1,36,-1
 693 0 l 1,37,-1
 489 0 l 1,38,-1
 489 255 l 1,39,-1
 693 255 l 1,36,-1
EndSplineSet
EndChar
StartChar: at
Encoding: 64 64 35
Width: 1234
VWidth: 3393
Flags: W
HStem: -320 144<547.27 1012.88> 116 146<664.897 936.094> 832 146<666.638 934.959> 1256 143<502.309 882.008>
VStem: 27 149<237.594 862.429> 414 153<364.41 727.296> 1036 145<136 249 364.437 726.535 845 1088.83>
Fore
1039 547 m 256,0,1
 1039 679 1039 679 974 754 c 0,2,3
 913 832 913 832 804 832 c 0,4,5
 699 832 699 832 631 754 c 0,6,7
 567 679 567 679 567 547 c 256,8,9
 567 414 567 414 631 336 c 0,10,11
 696 262 696 262 804 262 c 256,12,13
 913 262 913 262 974 336 c 0,14,15
 1039 414 1039 414 1039 547 c 256,0,1
1036 136 m 1,16,-1
 1036 249 l 1,17,18
 998 184 998 184 931.5 150 c 128,-1,19
 865 116 865 116 784 116 c 0,20,21
 621 116 621 116 519 237 c 0,22,23
 414 356 414 356 414 547 c 256,24,25
 414 736 414 736 519 855 c 0,26,27
 621 978 621 978 784 978 c 0,28,29
 865 978 865 978 931.5 942 c 128,-1,30
 998 906 998 906 1036 845 c 1,31,-1
 1036 910 l 2,32,33
 1036 1062 1036 1062 946 1160 c 0,34,35
 858 1256 858 1256 713 1256 c 0,36,37
 466 1256 466 1256 323 1062 c 0,38,39
 176 875 176 875 176 543 c 256,40,41
 176 210 176 210 343 20 c 0,42,43
 505 -176 505 -176 780 -176 c 0,44,45
 886 -176 886 -176 1001 -136 c 1,46,-1
 1049 -272 l 1,47,48
 916 -320 916 -320 804 -320 c 0,49,50
 447 -320 447 -320 237 -85 c 0,51,52
 27 146 27 146 27 543 c 0,53,54
 27 930 27 930 214 1163 c 0,55,56
 404 1399 404 1399 719 1399 c 0,57,58
 930 1399 930 1399 1056 1263 c 256,59,60
 1181 1127 1181 1127 1181 906 c 2,61,-1
 1181 136 l 1,62,-1
 1036 136 l 1,16,-1
EndSplineSet
EndChar
StartChar: A
Encoding: 65 65 36
Width: 1234
VWidth: 3393
Flags: W
HStem: 0 21G<38 254.32 982.373 1198> 391 162<404 832> 1473 20G<488.878 745.149>
Fore
404 553 m 1,0,-1
 832 553 l 1,1,-1
 618 1317 l 1,2,-1
 404 553 l 1,0,-1
739 1493 m 1,3,-1
 1198 0 l 1,4,-1
 988 0 l 1,5,-1
 878 391 l 1,6,-1
 353 391 l 1,7,-1
 249 0 l 1,8,-1
 38 0 l 1,9,-1
 495 1493 l 1,10,-1
 739 1493 l 1,3,-1
EndSplineSet
EndChar
StartChar: B
Encoding: 66 66 37
Width: 1234
VWidth: 3393
Flags: W
HStem: 0 166<370 826.91> 713 165<370 801.389> 1327 166<370 811.375>
VStem: 166 204<166 713 878 1327> 882 203<954.781 1257.05> 936 201<266.975 598.999>
Fore
370 166 m 1,0,-1
 608 166 l 2,1,2
 787 166 787 166 858 227 c 0,3,4
 936 288 936 288 936 431 c 0,5,6
 936 713 936 713 608 713 c 2,7,-1
 370 713 l 1,8,-1
 370 166 l 1,0,-1
370 878 m 1,9,-1
 605 878 l 2,10,11
 754 878 754 878 818 933 c 128,-1,12
 882 988 882 988 882 1117 c 0,13,14
 882 1228 882 1228 818 1277.5 c 128,-1,15
 754 1327 754 1327 605 1327 c 2,16,-1
 370 1327 l 1,17,-1
 370 878 l 1,9,-1
608 1493 m 2,18,19
 838 1493 838 1493 961.5 1396 c 128,-1,20
 1085 1299 1085 1299 1085 1117 c 0,21,22
 1085 842 1085 842 825 800 c 1,23,24
 971 777 971 777 1056 676 c 0,25,26
 1137 570 1137 570 1137 411 c 0,27,28
 1137 0 1137 0 608 0 c 2,29,-1
 166 0 l 1,30,-1
 166 1493 l 1,31,-1
 608 1493 l 2,18,19
EndSplineSet
EndChar
StartChar: C
Encoding: 67 67 38
Width: 1234
VWidth: 3393
Flags: W
HStem: -30 166<563.278 946.32> 1357 164<562.15 945.597>
VStem: 139 211<411.06 1085.15> 139 936
Fore
1075 55 m 1,0,1
 920 -30 920 -30 744 -30 c 0,2,3
 462 -30 462 -30 298 172 c 0,4,5
 139 379 139 379 139 747 c 0,6,7
 139 1110 139 1110 298 1317 c 0,8,9
 457 1521 457 1521 744 1521 c 0,10,11
 920 1521 920 1521 1075 1438 c 1,12,-1
 1075 1231 l 1,13,14
 920 1357 920 1357 744 1357 c 0,15,16
 350 1357 350 1357 350 747 c 256,17,18
 350 136 350 136 744 136 c 0,19,20
 923 136 923 136 1075 262 c 1,21,-1
 1075 55 l 1,0,1
EndSplineSet
EndChar
StartChar: D
Encoding: 68 68 39
Width: 1234
VWidth: 3393
Flags: W
HStem: 0 166<340 680.893> 1327 166<340 681.274>
VStem: 136 204<166 1327> 893 214<404.336 1093.43>
Fore
437 166 m 1,0,1
 693 166 693 166 794 292 c 0,2,3
 893 421 893 421 893 747 c 0,4,5
 893 1075 893 1075 794 1201 c 0,6,7
 693 1327 693 1327 437 1327 c 2,8,-1
 340 1327 l 1,9,-1
 340 166 l 1,10,-1
 437 166 l 1,0,1
441 1493 m 1,11,12
 784 1493 784 1493 945.5 1313 c 128,-1,13
 1107 1133 1107 1133 1107 747 c 0,14,15
 1107 363 1107 363 943 181 c 0,16,17
 784 0 784 0 441 0 c 2,18,-1
 136 0 l 1,19,-1
 136 1493 l 1,20,-1
 441 1493 l 1,11,12
EndSplineSet
EndChar
StartChar: E
Encoding: 69 69 40
Width: 1234
VWidth: 3393
Flags: W
HStem: 0 169<401 1104 197 1104 401 401> 713 169<401 1056> 1324 169<401 1082>
VStem: 197 204<169 713 882 1324>
Fore
1082 1493 m 1,0,-1
 1082 1324 l 1,1,-1
 401 1324 l 1,2,-1
 401 882 l 1,3,-1
 1056 882 l 1,4,-1
 1056 713 l 1,5,-1
 401 713 l 1,6,-1
 401 169 l 1,7,-1
 1104 169 l 1,8,-1
 1104 0 l 1,9,-1
 197 0 l 1,10,-1
 197 1493 l 1,11,-1
 1082 1493 l 1,0,-1
EndSplineSet
EndChar
StartChar: F
Encoding: 70 70 41
Width: 1234
VWidth: 3393
Flags: W
HStem: 0 21G<234 437> 713 169<437 1049> 1324 169<437 1114>
VStem: 234 203<0 713 882 1324> 234 880<1324 1493 0 1493 1493 1493>
Fore
1114 1493 m 1,0,-1
 1114 1324 l 1,1,-1
 437 1324 l 1,2,-1
 437 882 l 1,3,-1
 1049 882 l 1,4,-1
 1049 713 l 1,5,-1
 437 713 l 1,6,-1
 437 0 l 1,7,-1
 234 0 l 1,8,-1
 234 1493 l 1,9,-1
 1114 1493 l 1,0,-1
EndSplineSet
EndChar
StartChar: G
Encoding: 71 71 42
Width: 1234
VWidth: 3393
Flags: W
HStem: -30 166<516.219 883.336> 600 167<696 913> 1357 164<526.851 905.456>
VStem: 101 211<407.561 1080.75> 101 1006<379 767> 913 194<200 600>
Fore
1107 123 m 1,0,1
 936 -30 936 -30 703 -30 c 0,2,3
 424 -30 424 -30 262 172 c 0,4,5
 101 379 101 379 101 747 c 0,6,7
 101 1110 101 1110 262 1317 c 0,8,9
 424 1521 424 1521 709 1521 c 0,10,11
 896 1521 896 1521 1056 1415 c 1,12,-1
 1056 1208 l 1,13,14
 896 1357 896 1357 709 1357 c 0,15,16
 312 1357 312 1357 312 747 c 0,17,18
 312 431 312 431 407 283.5 c 128,-1,19
 502 136 502 136 703 136 c 0,20,21
 835 136 835 136 913 200 c 1,22,-1
 913 600 l 1,23,-1
 696 600 l 1,24,-1
 696 767 l 1,25,-1
 1107 767 l 1,26,-1
 1107 123 l 1,0,1
EndSplineSet
EndChar
StartChar: H
Encoding: 72 72 43
Width: 1234
VWidth: 3393
Flags: W
HStem: 0 1493<136 340 893 1097 136 1097 136 136> 713 169<340 893>
VStem: 136 204<0 713 882 1493> 893 204<0 713 882 1493>
Fore
340 1493 m 1,0,-1
 340 882 l 1,1,-1
 893 882 l 1,2,-1
 893 1493 l 1,3,-1
 1097 1493 l 1,4,-1
 1097 0 l 1,5,-1
 893 0 l 1,6,-1
 893 713 l 1,7,-1
 340 713 l 1,8,-1
 340 0 l 1,9,-1
 136 0 l 1,10,-1
 136 1493 l 1,11,-1
 340 1493 l 1,0,-1
EndSplineSet
EndChar
StartChar: I
Encoding: 73 73 44
Width: 1234
VWidth: 3393
Flags: W
HStem: 0 169<200 515 719 1032> 1324 169<200 515 719 1032>
VStem: 200 832<0 169 1324 1493 0 1493 1.53064e-18 1.53064e-18> 515 204<169 1324>
Fore
1032 1493 m 1,0,-1
 1032 1324 l 1,1,-1
 719 1324 l 1,2,-1
 719 169 l 1,3,-1
 1032 169 l 1,4,-1
 1032 0 l 1,5,-1
 200 0 l 1,6,-1
 200 169 l 1,7,-1
 515 169 l 1,8,-1
 515 1324 l 1,9,-1
 200 1324 l 1,10,-1
 200 1493 l 1,11,-1
 1032 1493 l 1,0,-1
EndSplineSet
EndChar
StartChar: J
Encoding: 74 74 45
Width: 1234
VWidth: 3393
Flags: W
HStem: -30 166<341.043 669.068> 1324 169<373 754>
VStem: 754 204<227.824 1324>
Fore
109 298 m 1,0,1
 292 136 292 136 499 136 c 0,2,3
 645 136 645 136 699 210 c 0,4,5
 754 278 754 278 754 489 c 2,6,-1
 754 1324 l 1,7,-1
 373 1324 l 1,8,-1
 373 1493 l 1,9,-1
 958 1493 l 1,10,-1
 958 489 l 2,11,12
 958 204 958 204 852 88 c 0,13,14
 744 -30 744 -30 499 -30 c 0,15,16
 401 -30 401 -30 307.5 -8.5 c 128,-1,17
 214 13 214 13 109 61 c 1,18,-1
 109 298 l 1,0,1
EndSplineSet
EndChar
StartChar: K
Encoding: 75 75 46
Width: 1234
VWidth: 3393
Flags: W
HStem: 0 21G<136 340 968.057 1225> 1473 20G<136 340 951.908 1208>
VStem: 136 204<0 583 832 1493>
Fore
340 1493 m 1,0,-1
 340 832 l 1,1,-1
 971 1493 l 1,2,-1
 1208 1493 l 1,3,-1
 628 882 l 1,4,-1
 1225 0 l 1,5,-1
 981 0 l 1,6,-1
 495 751 l 1,7,-1
 340 583 l 1,8,-1
 340 0 l 1,9,-1
 136 0 l 1,10,-1
 136 1493 l 1,11,-1
 340 1493 l 1,0,-1
EndSplineSet
EndChar
StartChar: L
Encoding: 76 76 47
Width: 1234
VWidth: 3393
Flags: W
HStem: 0 169<418 1140 214 1140 418 418> 1473 20G<214 418>
VStem: 214 204<169 1493>
Fore
418 1493 m 1,0,-1
 418 169 l 1,1,-1
 1140 169 l 1,2,-1
 1140 0 l 1,3,-1
 214 0 l 1,4,-1
 214 1493 l 1,5,-1
 418 1493 l 1,0,-1
EndSplineSet
EndChar
StartChar: M
Encoding: 77 77 48
Width: 1234
VWidth: 3393
Flags: W
HStem: 0 21G<85 272 961 1147> 1473 20G<85 362.807 868.167 1147>
VStem: 85 187<0 1321> 961 186<0 1321>
Fore
356 1493 m 1,0,-1
 615 732 l 1,1,-1
 875 1493 l 1,2,-1
 1147 1493 l 1,3,-1
 1147 0 l 1,4,-1
 961 0 l 1,5,-1
 961 1321 l 1,6,-1
 693 534 l 1,7,-1
 540 534 l 1,8,-1
 272 1321 l 1,9,-1
 272 0 l 1,10,-1
 85 0 l 1,11,-1
 85 1493 l 1,12,-1
 356 1493 l 1,0,-1
EndSplineSet
EndChar
StartChar: N
Encoding: 78 78 49
Width: 1234
VWidth: 3393
Flags: W
HStem: 0 21G<139 336 829.844 1097> 1473 20G<139 406.176 900 1097>
VStem: 139 197<0 1231> 900 197<265 1493>
Fore
398 1493 m 1,0,-1
 900 265 l 1,1,-1
 900 1493 l 1,2,-1
 1097 1493 l 1,3,-1
 1097 0 l 1,4,-1
 838 0 l 1,5,-1
 336 1231 l 1,6,-1
 336 0 l 1,7,-1
 139 0 l 1,8,-1
 139 1493 l 1,9,-1
 398 1493 l 1,0,-1
EndSplineSet
EndChar
StartChar: O
Encoding: 79 79 50
Width: 1234
VWidth: 3393
Flags: W
HStem: -30 166<475.947 762.334> 1357 164<473.912 763.073>
VStem: 119 211<346.304 1044.22> 906 211<353.731 1138.16>
Fore
906 747 m 256,0,1
 906 1072 906 1072 838 1215 c 0,2,3
 774 1357 774 1357 618 1357 c 0,4,5
 466 1357 466 1357 398 1215 c 0,6,7
 360 1147 360 1147 345 1028.5 c 128,-1,8
 330 910 330 910 330 747 c 0,9,10
 330 411 330 411 398 275 c 0,11,12
 466 136 466 136 618 136 c 256,13,14
 771 136 771 136 838 275 c 0,15,16
 906 421 906 421 906 747 c 256,0,1
1117 747 m 0,17,18
 1117 -30 1117 -30 618 -30 c 0,19,20
 363 -30 363 -30 241 160 c 128,-1,21
 119 350 119 350 119 747 c 0,22,23
 119 1521 119 1521 618 1521 c 256,24,25
 1117 1521 1117 1521 1117 747 c 0,17,18
EndSplineSet
EndChar
StartChar: P
Encoding: 80 80 51
Width: 1234
VWidth: 3393
Flags: W
HStem: 0 21G<197 401> 600 167<401 807.641> 1327 166<401 812.402>
VStem: 197 204<0 600 767 1327> 930 213<882.377 1215.97>
Fore
401 767 m 1,0,-1
 635 767 l 2,1,2
 777 767 777 767 853.5 841.5 c 128,-1,3
 930 916 930 916 930 1049 c 256,4,5
 930 1181 930 1181 853.5 1254 c 128,-1,6
 777 1327 777 1327 635 1327 c 2,7,-1
 401 1327 l 1,8,-1
 401 767 l 1,0,-1
635 1493 m 2,9,10
 886 1493 886 1493 1014.5 1381 c 128,-1,11
 1143 1269 1143 1269 1143 1049 c 0,12,13
 1143 600 1143 600 635 600 c 2,14,-1
 401 600 l 1,15,-1
 401 0 l 1,16,-1
 197 0 l 1,17,-1
 197 1493 l 1,18,-1
 635 1493 l 2,9,10
EndSplineSet
EndChar
StartChar: Q
Encoding: 81 81 52
Width: 1234
VWidth: 3393
Flags: W
HStem: -30 166<479.443 665.67 634.92 655> 1357 164<473.912 763.073>
VStem: 119 211<351.937 1044.22> 906 211<352.527 1138.16>
Fore
655 -27 m 1,0,1
 648 -27 648 -27 634.5 -28.5 c 128,-1,2
 621 -30 621 -30 615 -30 c 0,3,4
 119 -30 119 -30 119 747 c 0,5,6
 119 1521 119 1521 618 1521 c 256,7,8
 1117 1521 1117 1521 1117 747 c 0,9,10
 1117 162 1117 162 842 20 c 1,11,-1
 1042 -169 l 1,12,-1
 890 -272 l 1,13,-1
 655 -27 l 1,0,1
906 747 m 256,14,15
 906 1072 906 1072 838 1215 c 0,16,17
 774 1357 774 1357 618 1357 c 0,18,19
 466 1357 466 1357 398 1215 c 0,20,21
 360 1147 360 1147 345 1028.5 c 128,-1,22
 330 910 330 910 330 747 c 0,23,24
 330 411 330 411 398 275 c 0,25,26
 466 136 466 136 618 136 c 256,27,28
 771 136 771 136 838 275 c 0,29,30
 906 421 906 421 906 747 c 256,14,15
EndSplineSet
EndChar
StartChar: R
Encoding: 82 82 53
Width: 1234
VWidth: 3393
Flags: W
HStem: 0 21G<143 346 1007.48 1234> 631 166<346 693> 1327 166<346 747.761>
VStem: 143 203<0 631 797 1327> 855 214<894.638 1226.19>
Fore
761 706 m 1,0,1
 838 686 838 686 893 631 c 0,2,3
 949 573 949 573 1032 408 c 2,4,-1
 1234 0 l 1,5,-1
 1017 0 l 1,6,-1
 838 376 l 2,7,8
 764 537 764 537 699 583 c 256,9,10
 635 631 635 631 540 631 c 2,11,-1
 346 631 l 1,12,-1
 346 0 l 1,13,-1
 143 0 l 1,14,-1
 143 1493 l 1,15,-1
 560 1493 l 2,16,17
 807 1493 807 1493 938 1384.5 c 128,-1,18
 1069 1276 1069 1276 1069 1062 c 0,19,20
 1069 913 1069 913 989.5 819.5 c 128,-1,21
 910 726 910 726 761 706 c 1,0,1
346 797 m 1,22,-1
 567 797 l 2,23,24
 855 797 855 797 855 1062 c 256,25,26
 855 1327 855 1327 560 1327 c 2,27,-1
 346 1327 l 1,28,-1
 346 797 l 1,22,-1
EndSplineSet
EndChar
StartChar: S
Encoding: 83 83 54
Width: 1234
VWidth: 3393
Flags: W
HStem: -30 166<351.261 784.562> 1357 164<448.896 803.7>
VStem: 139 194<971.048 1250.49> 906 194<246.215 548.999>
Fore
1014 1239 m 1,0,1
 825 1357 825 1357 641 1357 c 0,2,3
 495 1357 495 1357 414 1289 c 0,4,5
 333 1225 333 1225 333 1110 c 0,6,7
 333 1011 333 1011 386 961 c 0,8,9
 444 906 444 906 590 872 c 2,10,-1
 696 848 l 2,11,12
 910 800 910 800 1005 695 c 128,-1,13
 1100 590 1100 590 1100 408 c 0,14,15
 1100 194 1100 194 969 82 c 128,-1,16
 838 -30 838 -30 583 -30 c 0,17,18
 373 -30 373 -30 159 61 c 1,19,-1
 159 275 l 1,20,21
 383 136 383 136 583 136 c 0,22,23
 736 136 736 136 821 204 c 128,-1,24
 906 272 906 272 906 398 c 0,25,26
 906 502 906 502 848 567 c 0,27,28
 780 628 780 628 645 658 c 2,29,-1
 537 683 l 2,30,31
 326 729 326 729 234 825 c 0,32,33
 139 920 139 920 139 1079 c 0,34,35
 139 1279 139 1279 275 1402 c 0,36,37
 404 1521 404 1521 631 1521 c 0,38,39
 719 1521 719 1521 812.5 1502 c 128,-1,40
 906 1483 906 1483 1014 1442 c 1,41,-1
 1014 1239 l 1,0,1
EndSplineSet
EndChar
StartChar: T
Encoding: 84 84 55
Width: 1234
VWidth: 3393
Flags: W
HStem: 0 21G<515 719> 1324 169<48 515 719 1188>
VStem: 515 204<0 1324>
Fore
1188 1493 m 1,0,-1
 1188 1324 l 1,1,-1
 719 1324 l 1,2,-1
 719 0 l 1,3,-1
 515 0 l 1,4,-1
 515 1324 l 1,5,-1
 48 1324 l 1,6,-1
 48 1493 l 1,7,-1
 1188 1493 l 1,0,-1
EndSplineSet
EndChar
StartChar: U
Encoding: 85 85 56
Width: 1234
VWidth: 3393
Flags: W
HStem: -30 166<445.142 787.271> 1473 20G<146 350 882 1085>
VStem: 146 204<326.753 434.177 434.177 1493> 882 203<326.753 1493>
Fore
146 1493 m 1,0,-1
 350 1493 l 1,1,-1
 350 482 l 2,2,3
 350 424 350 424 351.5 387 c 128,-1,4
 353 350 353 350 356 326 c 0,5,6
 363 282 363 282 376 255 c 0,7,8
 444 136 444 136 618 136 c 256,9,10
 790 136 790 136 858 255 c 0,11,12
 865 268 865 268 870 285 c 128,-1,13
 875 302 875 302 878 326 c 256,14,15
 882 350 882 350 882 387 c 128,-1,16
 882 424 882 424 882 479 c 2,17,-1
 882 573 l 1,18,-1
 882 1493 l 1,19,-1
 1085 1493 l 1,20,-1
 1085 573 l 2,21,22
 1085 350 1085 350 1059 249 c 0,23,24
 1029 149 1029 149 961 88 c 0,25,26
 825 -30 825 -30 618 -30 c 256,27,28
 411 -30 411 -30 275 88 c 0,29,30
 210 146 210 146 176 249 c 0,31,32
 146 350 146 350 146 573 c 2,33,-1
 146 1493 l 1,0,-1
EndSplineSet
EndChar
StartChar: V
Encoding: 86 86 57
Width: 1234
VWidth: 3393
Flags: W
HStem: 0 21G<489.146 744.881> 1473 20G<58 270.332 962.713 1178>
Fore
968 1493 m 1,0,-1
 1178 1493 l 1,1,-1
 739 0 l 1,2,-1
 495 0 l 1,3,-1
 58 1493 l 1,4,-1
 265 1493 l 1,5,-1
 618 169 l 1,6,-1
 968 1493 l 1,0,-1
EndSplineSet
EndChar
StartChar: W
Encoding: 87 87 58
Width: 1234
VWidth: 3393
Flags: W
HStem: 0 21G<220.999 418.584 817.416 1013.99> 1473 20G<0 199.362 1036.6 1234>
Fore
197 1493 m 1,0,-1
 340 282 l 1,1,-1
 509 1082 l 1,2,-1
 722 1082 l 1,3,-1
 893 278 l 1,4,-1
 1039 1493 l 1,5,-1
 1234 1493 l 1,6,-1
 1011 0 l 1,7,-1
 822 0 l 1,8,-1
 618 890 l 1,9,-1
 414 0 l 1,10,-1
 224 0 l 1,11,-1
 0 1493 l 1,12,-1
 197 1493 l 1,0,-1
EndSplineSet
EndChar
StartChar: X
Encoding: 88 88 59
Width: 1234
VWidth: 3393
Flags: W
HStem: 0 21G<17 249.217 986.62 1215> 1473 20G<85 313.687 956.028 1185>
Fore
302 1493 m 1,0,-1
 631 930 l 1,1,-1
 968 1493 l 1,2,-1
 1185 1493 l 1,3,-1
 736 790 l 1,4,-1
 1215 0 l 1,5,-1
 998 0 l 1,6,-1
 631 645 l 1,7,-1
 237 0 l 1,8,-1
 17 0 l 1,9,-1
 519 790 l 1,10,-1
 85 1493 l 1,11,-1
 302 1493 l 1,0,-1
EndSplineSet
EndChar
StartChar: Y
Encoding: 89 89 60
Width: 1234
VWidth: 3393
Flags: W
HStem: 0 21G<515 719> 1473 20G<38 263.125 969.967 1198>
VStem: 515 204<0 673>
Fore
252 1493 m 1,0,-1
 618 835 l 1,1,-1
 981 1493 l 1,2,-1
 1198 1493 l 1,3,-1
 719 673 l 1,4,-1
 719 0 l 1,5,-1
 515 0 l 1,6,-1
 515 673 l 1,7,-1
 38 1493 l 1,8,-1
 252 1493 l 1,0,-1
EndSplineSet
EndChar
StartChar: Z
Encoding: 90 90 61
Width: 1234
VWidth: 3393
Flags: W
HStem: 0 169<366 1171> 1324 169<181 916>
Fore
1147 1493 m 1,0,-1
 1147 1341 l 1,1,-1
 366 169 l 1,2,-1
 1171 169 l 1,3,-1
 1171 0 l 1,4,-1
 156 0 l 1,5,-1
 156 152 l 1,6,-1
 916 1324 l 1,7,-1
 181 1324 l 1,8,-1
 181 1493 l 1,9,-1
 1147 1493 l 1,0,-1
EndSplineSet
EndChar
StartChar: bracketleft
Encoding: 91 91 62
Width: 1234
VWidth: 3393
Flags: W
HStem: -272 146<648 890> 1415 143<648 890>
VStem: 466 182<-126 1415>
Fore
890 1558 m 1,0,-1
 890 1415 l 1,1,-1
 648 1415 l 1,2,-1
 648 -126 l 1,3,-1
 890 -126 l 1,4,-1
 890 -272 l 1,5,-1
 466 -272 l 1,6,-1
 466 1558 l 1,7,-1
 890 1558 l 1,0,-1
EndSplineSet
EndChar
StartChar: backslash
Encoding: 92 92 63
Width: 1234
VWidth: 3393
Flags: W
HStem: 1473 20G<101 301.347>
VStem: 101 978<-191 1493 1493 1493>
Fore
1079 -191 m 1,0,-1
 890 -191 l 1,1,-1
 101 1493 l 1,2,-1
 292 1493 l 1,3,-1
 1079 -191 l 1,0,-1
EndSplineSet
EndChar
StartChar: bracketright
Encoding: 93 93 64
Width: 1234
VWidth: 3393
Flags: W
HStem: -272 146<346 587> 1415 143<346 587>
VStem: 587 184<-126 1415>
Fore
771 -272 m 1,0,-1
 346 -272 l 1,1,-1
 346 -126 l 1,2,-1
 587 -126 l 1,3,-1
 587 1415 l 1,4,-1
 346 1415 l 1,5,-1
 346 1558 l 1,6,-1
 771 1558 l 1,7,-1
 771 -272 l 1,0,-1
EndSplineSet
EndChar
StartChar: asciicircum
Encoding: 94 94 65
Width: 1234
VWidth: 3393
Flags: W
HStem: 936 557<529 1160 529 529>
Fore
1160 936 m 1,0,-1
 984 936 l 1,1,-1
 618 1334 l 1,2,-1
 252 936 l 1,3,-1
 71 936 l 1,4,-1
 529 1493 l 1,5,-1
 706 1493 l 1,6,-1
 1160 936 l 1,0,-1
EndSplineSet
EndChar
StartChar: underscore
Encoding: 95 95 66
Width: 1234
VWidth: 3393
Flags: W
HStem: -482 78<0 1024>
VStem: 0 1024<-482 -404 -482 -404 -482 -482>
Fore
1024 -482 m 1,0,-1
 0 -482 l 1,1,-1
 0 -404 l 1,2,-1
 1024 -404 l 1,3,-1
 1024 -482 l 1,0,-1
EndSplineSet
EndChar
StartChar: grave
Encoding: 96 96 67
Width: 1234
VWidth: 3393
Flags: W
HStem: 1263 376<278 761 278 278>
Fore
761 1263 m 1,0,-1
 605 1263 l 1,1,-1
 278 1639 l 1,2,-1
 479 1639 l 1,3,-1
 761 1263 l 1,0,-1
EndSplineSet
EndChar
StartChar: a
Encoding: 97 97 68
Width: 1234
VWidth: 3393
Flags: W
HStem: -30 156<391.511 716.127> 563 146<423.16 875> 991 156<349.726 785.491>
VStem: 133 187<196.992 473.358> 875 184<0 166 301.658 522 522 563 709 711.799 711.799 842.612>
Fore
641 563 m 2,0,1
 320 563 320 563 320 340 c 0,2,3
 320 237 320 237 378.5 181.5 c 128,-1,4
 437 126 437 126 547 126 c 0,5,6
 703 126 703 126 787 230 c 0,7,8
 875 340 875 340 875 522 c 2,9,-1
 875 563 l 1,10,-1
 703 563 l 1,11,-1
 641 563 l 2,0,1
1059 0 m 1,12,-1
 875 0 l 1,13,-1
 875 166 l 1,14,15
 761 -30 761 -30 509 -30 c 0,16,17
 340 -30 340 -30 234 68 c 0,18,19
 133 166 133 166 133 326 c 0,20,21
 133 709 133 709 628 709 c 2,22,-1
 875 709 l 1,23,-1
 875 736 l 2,24,25
 875 872 875 872 807 931.5 c 128,-1,26
 739 991 739 991 593 991 c 0,27,28
 404 991 404 991 214 886 c 1,29,-1
 214 1069 l 1,30,31
 414 1147 414 1147 593 1147 c 0,32,33
 868 1147 868 1147 991 984 c 0,34,35
 1024 936 1024 936 1046 858 c 0,36,37
 1052 822 1052 822 1055.5 767.5 c 128,-1,38
 1059 713 1059 713 1059 641 c 2,39,-1
 1059 0 l 1,12,-1
EndSplineSet
Substitution2: "Single Substitution lookup 22 subtable" uni0E38
Substitution2: "Single Substitution lookup 22 subtable" uni0E38
EndChar
StartChar: b
Encoding: 98 98 69
Width: 1234
VWidth: 3393
Flags: W
HStem: -30 156<504.138 792.84> 991 156<504.537 791.651> 1538 20G<194 376>
VStem: 194 182<0 143 279.002 839.056 978 1558> 920 194<280.67 837.399>
Fore
920 560 m 0,0,1
 920 991 920 991 648 991 c 256,2,3
 376 991 376 991 376 560 c 0,4,5
 376 126 376 126 648 126 c 256,6,7
 920 126 920 126 920 560 c 0,0,1
376 978 m 1,8,9
 472 1147 472 1147 679 1147 c 0,10,11
 882 1147 882 1147 998 991 c 0,12,13
 1114 842 1114 842 1114 563 c 256,14,15
 1114 285 1114 285 998 129 c 0,16,17
 878 -30 878 -30 676 -30 c 256,18,19
 472 -30 472 -30 376 143 c 1,20,-1
 376 0 l 1,21,-1
 194 0 l 1,22,-1
 194 1558 l 1,23,-1
 376 1558 l 1,24,-1
 376 978 l 1,8,9
EndSplineSet
Substitution2: "Single Substitution lookup 22 subtable" uni0E39
Substitution2: "Single Substitution lookup 22 subtable" uni0E39
EndChar
StartChar: c
Encoding: 99 99 70
Width: 1234
VWidth: 3393
Flags: W
HStem: -30 156<565.291 947.708> 991 156<564.577 931.359>
VStem: 197 194<318.441 802.185> 197 865
Fore
1062 58 m 1,0,1
 913 -30 913 -30 751 -30 c 0,2,3
 492 -30 492 -30 343 126 c 0,4,5
 197 282 197 282 197 560 c 0,6,7
 197 842 197 842 343 991 c 0,8,9
 489 1147 489 1147 751 1147 c 0,10,11
 906 1147 906 1147 1062 1062 c 1,12,-1
 1062 868 l 1,13,14
 988 936 988 936 915 963.5 c 128,-1,15
 842 991 842 991 751 991 c 0,16,17
 577 991 577 991 484 881 c 128,-1,18
 391 771 391 771 391 560 c 256,19,20
 391 350 391 350 484 238 c 128,-1,21
 577 126 577 126 751 126 c 0,22,23
 930 126 930 126 1062 249 c 1,24,-1
 1062 58 l 1,0,1
EndSplineSet
Substitution2: "Single Substitution lookup 22 subtable" uni0E3A
Substitution2: "Single Substitution lookup 22 subtable" uni0E3A
EndChar
StartChar: d
Encoding: 100 100 71
Width: 1234
VWidth: 3393
Flags: W
HStem: -30 156<444.506 730.864> 991 156<446.415 730.238> 1538 20G<858 1042>
VStem: 123 197<278.167 838.893> 858 184<0 143 279.002 839.056 978 1558>
Fore
858 1558 m 1,0,-1
 1042 1558 l 1,1,-1
 1042 0 l 1,2,-1
 858 0 l 1,3,-1
 858 143 l 1,4,5
 764 -30 764 -30 560 -30 c 0,6,7
 360 -30 360 -30 240 129 c 256,8,9
 123 288 123 288 123 563 c 0,10,11
 123 835 123 835 240 991 c 0,12,13
 356 1147 356 1147 560 1147 c 0,14,15
 771 1147 771 1147 858 978 c 1,16,-1
 858 1558 l 1,0,-1
320 560 m 0,17,18
 320 126 320 126 587 126 c 0,19,20
 858 126 858 126 858 560 c 0,21,22
 858 991 858 991 587 991 c 0,23,24
 320 991 320 991 320 560 c 0,17,18
EndSplineSet
EndChar
StartChar: e
Encoding: 101 101 72
Width: 1234
VWidth: 3393
Flags: W
HStem: -30 156<486.242 914.828> 515 143<323 930> 991 156<477.918 809.144>
VStem: 123 192<300.551 515 658 803> 123 991<517.739 653.961> 930 184<661 862.094>
Fore
1114 515 m 1,0,-1
 315 515 l 1,1,-1
 315 509 l 2,2,3
 315 326 315 326 410 226 c 128,-1,4
 505 126 505 126 683 126 c 256,5,6
 858 126 858 126 1069 240 c 1,7,-1
 1069 58 l 1,8,9
 855 -30 855 -30 679 -30 c 0,10,11
 421 -30 421 -30 272 126 c 0,12,13
 123 285 123 285 123 560 c 0,14,15
 123 832 123 832 268 988 c 0,16,17
 408 1147 408 1147 651 1147 c 0,18,19
 865 1147 865 1147 988 1004 c 0,20,21
 1114 858 1114 858 1114 608 c 2,22,-1
 1114 515 l 1,0,-1
930 661 m 1,23,24
 920 991 920 991 645 991 c 0,25,26
 509 991 509 991 424 903 c 0,27,28
 340 819 340 819 323 658 c 1,29,-1
 930 661 l 1,23,24
EndSplineSet
EndChar
StartChar: f
Encoding: 102 102 73
Width: 1234
VWidth: 3393
Flags: W
HStem: 0 21G<495 679> 978 142<197 495 679 1065> 1405 153<717.295 1065>
VStem: 495 184<0 978 1120 1362.64>
Fore
1065 1405 m 1,0,-1
 855 1405 l 2,1,2
 757 1405 757 1405 716 1364 c 0,3,4
 679 1321 679 1321 679 1221 c 2,5,-1
 679 1120 l 1,6,-1
 1065 1120 l 1,7,-1
 1065 978 l 1,8,-1
 679 978 l 1,9,-1
 679 0 l 1,10,-1
 495 0 l 1,11,-1
 495 978 l 1,12,-1
 197 978 l 1,13,-1
 197 1120 l 1,14,-1
 495 1120 l 1,15,-1
 495 1198 l 2,16,17
 495 1385 495 1385 578 1471.5 c 128,-1,18
 661 1558 661 1558 842 1558 c 2,19,-1
 1065 1558 l 1,20,-1
 1065 1405 l 1,0,-1
EndSplineSet
EndChar
StartChar: g
Encoding: 103 103 74
Width: 1234
VWidth: 3393
Flags: W
HStem: -441 149<407.684 748.871> -7 153<449.76 735.688> 991 156<448.815 733.099>
VStem: 123 197<302.468 840.547> 858 184<-176.5 181 298.65 842.581 971 1117>
Fore
858 570 m 0,0,1
 858 991 858 991 593 991 c 0,2,3
 320 991 320 991 320 570 c 0,4,5
 320 146 320 146 597 146 c 0,6,7
 726 146 726 146 792 254.5 c 128,-1,8
 858 363 858 363 858 570 c 0,0,1
1042 71 m 1,9,10
 1042 -441 1042 -441 573 -441 c 0,11,12
 495 -441 495 -441 414 -427.5 c 128,-1,13
 333 -414 333 -414 249 -386 c 1,14,-1
 249 -204 l 1,15,16
 437 -292 437 -292 573 -292 c 0,17,18
 726 -292 726 -292 792 -212.5 c 128,-1,19
 858 -133 858 -133 858 45 c 2,20,-1
 858 55 l 1,21,-1
 858 181 l 1,22,23
 774 -7 774 -7 553 -7 c 0,24,25
 356 -7 356 -7 240 149 c 0,26,27
 123 308 123 308 123 570 c 256,28,29
 123 832 123 832 240 991 c 0,30,31
 356 1147 356 1147 553 1147 c 0,32,33
 771 1147 771 1147 858 971 c 1,34,-1
 858 1117 l 1,35,-1
 1042 1117 l 1,36,-1
 1042 71 l 1,9,10
EndSplineSet
EndChar
StartChar: h
Encoding: 104 104 75
Width: 1234
VWidth: 3393
Flags: W
HStem: 0 21G<197 379 865 1052> 988 159<522.306 783.76> 1538 20G<197 379>
VStem: 197 182<0 857.372 953 1558> 865 187<0 893.312>
Fore
1052 0 m 1,0,-1
 865 0 l 1,1,-1
 865 696 l 2,2,3
 865 988 865 988 648 988 c 0,4,5
 519 988 519 988 449 897.5 c 128,-1,6
 379 807 379 807 379 635 c 2,7,-1
 379 0 l 1,8,-1
 197 0 l 1,9,-1
 197 1558 l 1,10,-1
 379 1558 l 1,11,-1
 379 953 l 1,12,13
 479 1147 479 1147 713 1147 c 0,14,15
 1052 1147 1052 1147 1052 696 c 2,16,-1
 1052 0 l 1,0,-1
EndSplineSet
EndChar
StartChar: i
Encoding: 105 105 76
Width: 1234
VWidth: 3393
Flags: W
HStem: 0 143<181 543 726 1092 181 1092 181 181> 978 142<258 543> 1324 234<543 726>
VStem: 543 183<143 978 1324 1558>
Fore
726 1120 m 1,0,-1
 726 143 l 1,1,-1
 1092 143 l 1,2,-1
 1092 0 l 1,3,-1
 181 0 l 1,4,-1
 181 143 l 1,5,-1
 543 143 l 1,6,-1
 543 978 l 1,7,-1
 258 978 l 1,8,-1
 258 1120 l 1,9,-1
 726 1120 l 1,0,-1
726 1558 m 1,10,-1
 726 1324 l 1,11,-1
 543 1324 l 1,12,-1
 543 1558 l 1,13,-1
 726 1558 l 1,10,-1
EndSplineSet
EndChar
StartChar: j
Encoding: 106 106 77
Width: 1234
VWidth: 3393
Flags: W
HStem: -428 156<187 537.66> 978 142<282 600> 1324 234<600 784>
VStem: 600 184<-208.104 978 1324 1558>
Fore
600 978 m 1,0,-1
 282 978 l 1,1,-1
 282 1120 l 1,2,-1
 784 1120 l 1,3,-1
 784 -20 l 2,4,5
 784 -217 784 -217 696 -322.5 c 128,-1,6
 608 -428 608 -428 441 -428 c 2,7,-1
 187 -428 l 1,8,-1
 187 -272 l 1,9,-1
 421 -272 l 2,10,11
 600 -272 600 -272 600 -20 c 2,12,-1
 600 978 l 1,0,-1
784 1558 m 1,13,-1
 784 1324 l 1,14,-1
 600 1324 l 1,15,-1
 600 1558 l 1,16,-1
 784 1558 l 1,13,-1
EndSplineSet
EndChar
StartChar: k
Encoding: 107 107 78
Width: 1234
VWidth: 3393
Flags: W
HStem: 0 21G<237 428 963.69 1205> 1100 20G<889.269 1133> 1538 20G<237 428>
VStem: 237 968<0 0 -903 0> 237 191<0 447 655 1558>
Fore
428 1558 m 1,0,-1
 428 655 l 1,1,-1
 910 1120 l 1,2,-1
 1133 1120 l 1,3,-1
 693 699 l 1,4,-1
 1205 0 l 1,5,-1
 978 0 l 1,6,-1
 563 580 l 1,7,-1
 428 447 l 1,8,-1
 428 0 l 1,9,-1
 237 0 l 1,10,-1
 237 1558 l 1,11,-1
 428 1558 l 1,0,-1
EndSplineSet
EndChar
StartChar: l
Encoding: 108 108 79
Width: 1234
VWidth: 3393
Flags: W
HStem: 0 156<704.15 1036> 1425 143<159 454>
VStem: 454 187<223.872 1425>
Fore
641 408 m 1,0,1
 641 156 641 156 822 156 c 2,2,-1
 1036 156 l 1,3,-1
 1036 0 l 1,4,-1
 800 0 l 2,5,6
 635 0 635 0 544.5 105 c 128,-1,7
 454 210 454 210 454 408 c 2,8,-1
 454 1425 l 1,9,-1
 159 1425 l 1,10,-1
 159 1568 l 1,11,-1
 641 1568 l 1,12,-1
 641 408 l 1,0,1
EndSplineSet
EndChar
StartChar: m
Encoding: 109 109 80
Width: 1234
VWidth: 3393
Flags: W
HStem: 0 21G<109 275 537 706 968 1137> 994 153<339.407 500.325 751.971 931.278>
VStem: 109 166<0 931.052 1024 1120> 537 169<0 641 641 931.052> 968 169<0 934.39>
Fore
676 1007 m 1,0,1
 747 1147 747 1147 890 1147 c 0,2,3
 1024 1147 1024 1147 1079 1042 c 0,4,5
 1137 936 1137 936 1137 648 c 2,6,-1
 1137 0 l 1,7,-1
 968 0 l 1,8,-1
 968 641 l 2,9,10
 968 886 968 886 940 936 c 0,11,12
 913 994 913 994 845 994 c 0,13,14
 764 994 764 994 736 933 c 0,15,16
 706 872 706 872 706 641 c 2,17,-1
 706 0 l 1,18,-1
 537 0 l 1,19,-1
 537 641 l 2,20,21
 537 882 537 882 509 936 c 0,22,23
 479 994 479 994 408 994 c 0,24,25
 333 994 333 994 305 933 c 0,26,27
 275 872 275 872 275 641 c 2,28,-1
 275 0 l 1,29,-1
 109 0 l 1,30,-1
 109 1120 l 1,31,-1
 275 1120 l 1,32,-1
 275 1024 l 1,33,34
 343 1147 343 1147 472 1147 c 0,35,36
 625 1147 625 1147 676 1007 c 1,0,1
EndSplineSet
EndChar
StartChar: n
Encoding: 110 110 81
Width: 1234
VWidth: 3393
Flags: W
HStem: 0 21G<197 379 865 1052> 988 159<522.306 783.76>
VStem: 197 182<0 857.372 953 1120> 865 187<0 893.312>
Fore
1052 0 m 1,0,-1
 865 0 l 1,1,-1
 865 696 l 2,2,3
 865 988 865 988 648 988 c 0,4,5
 519 988 519 988 449 897.5 c 128,-1,6
 379 807 379 807 379 635 c 2,7,-1
 379 0 l 1,8,-1
 197 0 l 1,9,-1
 197 1120 l 1,10,-1
 379 1120 l 1,11,-1
 379 953 l 1,12,13
 479 1147 479 1147 713 1147 c 0,14,15
 1052 1147 1052 1147 1052 696 c 2,16,-1
 1052 0 l 1,0,-1
EndSplineSet
EndChar
StartChar: o
Encoding: 111 111 82
Width: 1234
VWidth: 3393
Flags: W
HStem: -30 156<468.66 770.04> 991 156<468.66 770.04>
VStem: 136 197<286.567 832.266> 903 194<286.567 832.266>
Fore
618 991 m 256,0,1
 333 991 333 991 333 560 c 0,2,3
 333 126 333 126 618 126 c 256,4,5
 903 126 903 126 903 560 c 0,6,7
 903 991 903 991 618 991 c 256,0,1
618 1147 m 256,8,9
 852 1147 852 1147 974.5 997.5 c 128,-1,10
 1097 848 1097 848 1097 560 c 256,11,12
 1097 272 1097 272 974.5 121 c 128,-1,13
 852 -30 852 -30 618 -30 c 256,14,15
 383 -30 383 -30 259.5 121 c 128,-1,16
 136 272 136 272 136 560 c 256,17,18
 136 848 136 848 259.5 997.5 c 128,-1,19
 383 1147 383 1147 618 1147 c 256,8,9
EndSplineSet
EndChar
StartChar: p
Encoding: 112 112 83
Width: 1234
VWidth: 3393
Flags: W
HStem: -428 21G<191 376> -30 156<505.027 790.945> 991 156<503.389 788.843>
VStem: 191 185<-428 143 279.002 839.056 978 1120> 916 194<280.367 839.897>
Fore
376 -428 m 1,0,-1
 191 -428 l 1,1,-1
 191 1120 l 1,2,-1
 376 1120 l 1,3,-1
 376 978 l 1,4,5
 469 1147 469 1147 676 1147 c 0,6,7
 878 1147 878 1147 994 991 c 0,8,9
 1110 828 1110 828 1110 557 c 0,10,11
 1110 288 1110 288 994 126 c 0,12,13
 875 -30 875 -30 676 -30 c 0,14,15
 466 -30 466 -30 376 143 c 1,16,-1
 376 -428 l 1,0,-1
916 560 m 0,17,18
 916 991 916 991 648 991 c 0,19,20
 376 991 376 991 376 560 c 0,21,22
 376 126 376 126 648 126 c 0,23,24
 916 126 916 126 916 560 c 0,17,18
EndSplineSet
EndChar
StartChar: q
Encoding: 113 113 84
Width: 1234
VWidth: 3393
Flags: W
HStem: -431 21G<872 1056> -33 156<459.597 743.846> 988 155<458.135 744.595>
VStem: 136 197<276.546 834.294> 872 184<-431 139 276.002 836.056 974 1117>
Fore
333 557 m 0,0,1
 333 123 333 123 600 123 c 0,2,3
 872 123 872 123 872 557 c 0,4,5
 872 988 872 988 600 988 c 0,6,7
 333 988 333 988 333 557 c 0,0,1
872 139 m 1,8,9
 777 -33 777 -33 570 -33 c 0,10,11
 373 -33 373 -33 255 123 c 0,12,13
 136 282 136 282 136 553 c 0,14,15
 136 828 136 828 255 988 c 0,16,17
 366 1143 366 1143 570 1143 c 0,18,19
 780 1143 780 1143 872 974 c 1,20,-1
 872 1117 l 1,21,-1
 1056 1117 l 1,22,-1
 1056 -431 l 1,23,-1
 872 -431 l 1,24,-1
 872 139 l 1,8,9
EndSplineSet
EndChar
StartChar: r
Encoding: 114 114 85
Width: 1234
VWidth: 3393
Flags: W
HStem: 0 21G<363 547> 978 169<720.497 1086.85>
VStem: 363 184<0 798.655 903 1120>
Fore
1157 890 m 1,0,1
 1039 978 1039 978 903 978 c 0,2,3
 729 978 729 978 638 871 c 128,-1,4
 547 764 547 764 547 557 c 2,5,-1
 547 0 l 1,6,-1
 363 0 l 1,7,-1
 363 1120 l 1,8,-1
 547 1120 l 1,9,-1
 547 903 l 1,10,11
 593 1021 593 1021 688.5 1084 c 128,-1,12
 784 1147 784 1147 916 1147 c 0,13,14
 1052 1147 1052 1147 1157 1079 c 1,15,-1
 1157 890 l 1,0,1
EndSplineSet
EndChar
StartChar: s
Encoding: 115 115 86
Width: 1234
VWidth: 3393
Flags: W
HStem: -30 156<350.329 775.271> 994 153<462.366 879.415>
VStem: 217 187<719.563 939.26> 845 187<191.972 407.139>
Fore
974 903 m 1,0,1
 819 994 819 994 651 994 c 0,2,3
 404 994 404 994 404 832 c 0,4,5
 404 754 404 754 447 719 c 0,6,7
 495 679 495 679 679 645 c 2,8,-1
 754 631 l 2,9,10
 1032 580 1032 580 1032 326 c 0,11,12
 1032 156 1032 156 913 65 c 0,13,14
 790 -30 790 -30 583 -30 c 0,15,16
 424 -30 424 -30 214 41 c 1,17,-1
 214 230 l 1,18,19
 414 126 414 126 587 126 c 0,20,21
 845 126 845 126 845 312 c 0,22,23
 845 441 845 441 600 492 c 1,24,-1
 590 492 l 1,25,-1
 522 505 l 2,26,27
 360 537 360 537 288.5 610 c 128,-1,28
 217 683 217 683 217 810 c 0,29,30
 217 974 217 974 325.5 1060.5 c 128,-1,31
 434 1147 434 1147 638 1147 c 0,32,33
 815 1147 815 1147 974 1082 c 1,34,-1
 974 903 l 1,0,1
EndSplineSet
EndChar
StartChar: t
Encoding: 116 116 87
Width: 1234
VWidth: 3393
Flags: W
HStem: 0 146<671.25 1032> 978 142<133 431 615 1032>
VStem: 431 184<200.295 978 1120 1438>
Fore
615 1120 m 1,0,-1
 1032 1120 l 1,1,-1
 1032 978 l 1,2,-1
 615 978 l 1,3,-1
 615 370 l 2,4,5
 615 252 615 252 661 197 c 0,6,7
 709 146 709 146 825 146 c 2,8,-1
 1032 146 l 1,9,-1
 1032 0 l 1,10,-1
 807 0 l 2,11,12
 605 0 605 0 515 81 c 0,13,14
 431 166 431 166 431 370 c 2,15,-1
 431 978 l 1,16,-1
 133 978 l 1,17,-1
 133 1120 l 1,18,-1
 431 1120 l 1,19,-1
 431 1438 l 1,20,-1
 615 1438 l 1,21,-1
 615 1120 l 1,0,-1
EndSplineSet
EndChar
StartChar: u
Encoding: 117 117 88
Width: 1234
VWidth: 3393
Flags: W
HStem: -30 163<463.322 723.46> 1100 20G<197 379 865 1052>
VStem: 197 182<225.375 1120> 865 187<0 169 262.346 486 486 1120>
Fore
197 1120 m 1,0,-1
 379 1120 l 1,1,-1
 379 424 l 2,2,3
 379 133 379 133 597 133 c 0,4,5
 726 133 726 133 795.5 222.5 c 128,-1,6
 865 312 865 312 865 486 c 2,7,-1
 865 1120 l 1,8,-1
 1052 1120 l 1,9,-1
 1052 0 l 1,10,-1
 865 0 l 1,11,-1
 865 169 l 1,12,13
 767 -30 767 -30 537 -30 c 0,14,15
 197 -30 197 -30 197 424 c 2,16,-1
 197 1120 l 1,0,-1
EndSplineSet
EndChar
StartChar: v
Encoding: 118 118 89
Width: 1234
VWidth: 3393
Flags: W
HStem: 0 21G<491.893 743.089> 1100 20G<101 298.944 936.078 1133>
Fore
292 1120 m 1,0,-1
 618 181 l 1,1,-1
 943 1120 l 1,2,-1
 1133 1120 l 1,3,-1
 736 0 l 1,4,-1
 499 0 l 1,5,-1
 101 1120 l 1,6,-1
 292 1120 l 1,0,-1
EndSplineSet
EndChar
StartChar: w
Encoding: 119 119 90
Width: 1234
VWidth: 3393
Flags: W
HStem: 0 21G<257.321 442.886 791.179 975.696> 1100 20G<0 188.238 1047.72 1234>
Fore
184 1120 m 1,0,-1
 376 214 l 1,1,-1
 537 794 l 1,2,-1
 696 794 l 1,3,-1
 858 214 l 1,4,-1
 1052 1120 l 1,5,-1
 1234 1120 l 1,6,-1
 971 0 l 1,7,-1
 797 0 l 1,8,-1
 618 615 l 1,9,-1
 437 0 l 1,10,-1
 262 0 l 1,11,-1
 0 1120 l 1,12,-1
 184 1120 l 1,0,-1
EndSplineSet
EndChar
StartChar: x
Encoding: 120 120 91
Width: 1234
VWidth: 3393
Flags: W
HStem: 0 21G<75 302.765 928.459 1157> 1100 20G<116 334.752 898.396 1120>
Fore
719 583 m 1,0,-1
 1157 0 l 1,1,-1
 943 0 l 1,2,-1
 618 447 l 1,3,-1
 288 0 l 1,4,-1
 75 0 l 1,5,-1
 515 583 l 1,6,-1
 116 1120 l 1,7,-1
 320 1120 l 1,8,-1
 618 716 l 1,9,-1
 913 1120 l 1,10,-1
 1120 1120 l 1,11,-1
 719 583 l 1,0,-1
EndSplineSet
EndChar
StartChar: y
Encoding: 121 121 92
Width: 1234
VWidth: 3393
Flags: W
HStem: -428 156<184 417.312> 1100 20G<104 305.603 953.466 1153>
Fore
858 360 m 1,0,1
 835 302 835 302 806 225.5 c 128,-1,2
 777 149 777 149 744 51 c 0,3,4
 641 -214 641 -214 608 -272 c 0,5,6
 512 -428 512 -428 333 -428 c 2,7,-1
 184 -428 l 1,8,-1
 184 -272 l 1,9,-1
 292 -272 l 2,10,11
 376 -272 376 -272 421 -224 c 0,12,13
 472 -172 472 -172 537 17 c 1,14,-1
 104 1120 l 1,15,-1
 298 1120 l 1,16,-1
 631 244 l 1,17,-1
 961 1120 l 1,18,-1
 1153 1120 l 1,19,-1
 858 360 l 1,0,1
EndSplineSet
EndChar
StartChar: z
Encoding: 122 122 93
Width: 1234
VWidth: 3393
Flags: W
HStem: 0 149<398 1042> 978 145<227 848>
VStem: 204 838<0 149 0 1123 1.53064e-18 1.53064e-18>
Fore
1042 1123 m 1,0,-1
 1042 953 l 1,1,-1
 398 149 l 1,2,-1
 1042 149 l 1,3,-1
 1042 0 l 1,4,-1
 204 0 l 1,5,-1
 204 169 l 1,6,-1
 848 978 l 1,7,-1
 227 978 l 1,8,-1
 227 1123 l 1,9,-1
 1042 1123 l 1,0,-1
EndSplineSet
EndChar
StartChar: braceleft
Encoding: 123 123 94
Width: 1234
VWidth: 3393
Flags: W
HStem: -336 145<765.469 1014> 543 143<220 457.524> 1415 143<762.367 1014>
VStem: 220 794<-336 543 1261.36 1878.63> 529 190<-144.662 470.114 751.363 1368.63>
Fore
1014 -336 m 1,0,-1
 949 -336 l 2,1,2
 706 -336 706 -336 615 -262 c 0,3,4
 529 -184 529 -184 529 33 c 2,5,-1
 529 275 l 2,6,7
 529 428 529 428 476 482 c 0,8,9
 424 543 424 543 282 543 c 2,10,-1
 220 543 l 1,11,-1
 220 686 l 1,12,-1
 282 686 l 2,13,14
 424 686 424 686 479 744 c 0,15,16
 529 800 529 800 529 949 c 2,17,-1
 529 1188 l 2,18,19
 529 1408 529 1408 615 1483 c 256,20,21
 699 1558 699 1558 949 1558 c 2,22,-1
 1014 1558 l 1,23,-1
 1014 1415 l 1,24,-1
 943 1415 l 2,25,26
 804 1415 804 1415 761 1370 c 0,27,28
 719 1327 719 1327 719 1185 c 2,29,-1
 719 936 l 2,30,31
 719 784 719 784 673 709 c 0,32,33
 628 638 628 638 515 615 c 1,34,35
 625 583 625 583 673 515 c 0,36,37
 719 441 719 441 719 288 c 2,38,-1
 719 41 l 2,39,40
 719 -104 719 -104 761 -146 c 0,41,42
 800 -191 800 -191 943 -191 c 2,43,-1
 1014 -191 l 1,44,-1
 1014 -336 l 1,0,-1
EndSplineSet
EndChar
StartChar: bar
Encoding: 124 124 95
Width: 1234
VWidth: 3393
Flags: W
VStem: 529 174<-482 1568>
Fore
703 -482 m 1,0,-1
 529 -482 l 1,1,-1
 529 1568 l 1,2,-1
 703 1568 l 1,3,-1
 703 -482 l 1,0,-1
EndSplineSet
EndChar
StartChar: braceright
Encoding: 125 125 96
Width: 1234
VWidth: 3393
Flags: W
HStem: -336 145<220 471.42> 543 143<772.735 1014> 1415 143<220 474.354>
VStem: 515 188<-144.662 474.537 752.438 1368.63>
Fore
288 -191 m 2,0,1
 431 -191 431 -191 476 -146 c 0,2,3
 515 -104 515 -104 515 41 c 2,4,-1
 515 288 l 2,5,6
 515 437 515 437 560 515 c 0,7,8
 608 583 608 583 719 615 c 1,9,10
 611 638 611 638 560 709 c 0,11,12
 515 787 515 787 515 936 c 2,13,-1
 515 1185 l 2,14,15
 515 1327 515 1327 476 1370 c 0,16,17
 424 1415 424 1415 288 1415 c 2,18,-1
 220 1415 l 1,19,-1
 220 1558 l 1,20,-1
 282 1558 l 2,21,22
 534 1558 534 1558 618 1483 c 256,23,24
 703 1408 703 1408 703 1188 c 2,25,-1
 703 949 l 2,26,27
 703 800 703 800 754 744 c 0,28,29
 807 686 807 686 949 686 c 2,30,-1
 1014 686 l 1,31,-1
 1014 543 l 1,32,-1
 949 543 l 2,33,34
 810 543 810 543 754 482 c 0,35,36
 703 428 703 428 703 275 c 2,37,-1
 703 33 l 2,38,39
 703 -184 703 -184 618 -262 c 0,40,41
 525 -336 525 -336 282 -336 c 2,42,-1
 220 -336 l 1,43,-1
 220 -191 l 1,44,-1
 288 -191 l 2,0,1
EndSplineSet
EndChar
StartChar: asciitilde
Encoding: 126 126 97
Width: 1234
VWidth: 3393
Flags: W
HStem: 492 166<679.41 1012.64> 615 165<222.907 476.849>
Fore
1147 608 m 1,0,1
 1069 547 1069 547 997.5 519.5 c 128,-1,2
 926 492 926 492 848 492 c 0,3,4
 757 492 757 492 645 543 c 0,5,6
 635 550 635 550 628 551.5 c 128,-1,7
 621 553 621 553 615 557 c 0,8,9
 573 573 573 573 541 585 c 128,-1,10
 509 597 509 597 482 605 c 0,11,12
 431 615 431 615 379 615 c 0,13,14
 230 615 230 615 88 492 c 1,15,-1
 88 664 l 1,16,17
 166 726 166 726 239 753 c 128,-1,18
 312 780 312 780 398 780 c 0,19,20
 447 780 447 780 499 771 c 0,21,22
 557 761 557 761 621 726 c 1,23,24
 628 726 628 726 655 713 c 0,25,26
 767 658 767 658 865 658 c 0,27,28
 1001 658 1001 658 1147 780 c 1,29,-1
 1147 608 l 1,0,1
EndSplineSet
EndChar
StartChar: Aring
Encoding: 197 197 99
Width: 1234
VWidth: 3393
Flags: W
HStem: 0 21G<38 254.32 982.373 1198> 391 162<404 832> 1781 123<509.03 719.634>
VStem: 343 123<1520.94 1737.31> 771 122<1525.4 1730.99>
Fore
771 1629 m 0,0,1
 771 1693 771 1693 722 1735 c 1,2,3
 683 1781 683 1781 618 1781 c 256,4,5
 553 1781 553 1781 509 1738 c 256,6,7
 466 1693 466 1693 466 1629 c 0,8,9
 466 1571 466 1571 509 1521 c 1,10,11
 560 1476 560 1476 618 1476 c 0,12,13
 679 1476 679 1476 722 1521 c 0,14,15
 771 1568 771 1568 771 1629 c 0,0,1
404 553 m 1,16,-1
 832 553 l 1,17,-1
 618 1314 l 1,18,-1
 404 553 l 1,16,-1
466 1402 m 1,19,20
 408 1435 408 1435 375.5 1494.5 c 128,-1,21
 343 1554 343 1554 343 1629 c 0,22,23
 343 1738 343 1738 421 1823 c 0,24,25
 502 1904 502 1904 618 1904 c 0,26,27
 729 1904 729 1904 810 1823 c 256,28,29
 893 1742 893 1742 893 1629 c 0,30,31
 893 1476 893 1476 771 1402 c 1,32,-1
 1198 0 l 1,33,-1
 988 0 l 1,34,-1
 878 391 l 1,35,-1
 353 391 l 1,36,-1
 249 0 l 1,37,-1
 38 0 l 1,38,-1
 466 1402 l 1,19,20
EndSplineSet
EndChar
StartChar: dagger
Encoding: 8224 8224 130
Width: 1234
VWidth: 3393
Flags: W
HStem: 920 155<162 529 706 1072 162 1072 162 162> 1473 20G<529 706>
VStem: 529 177<-197 920 1075 1493>
Fore
706 1493 m 1,0,-1
 706 1075 l 1,1,-1
 1072 1075 l 1,2,-1
 1072 920 l 1,3,-1
 706 920 l 1,4,-1
 706 -197 l 1,5,-1
 529 -197 l 1,6,-1
 529 920 l 1,7,-1
 162 920 l 1,8,-1
 162 1075 l 1,9,-1
 529 1075 l 1,10,-1
 529 1493 l 1,11,-1
 706 1493 l 1,0,-1
EndSplineSet
EndChar
StartChar: degree
Encoding: 176 176 131
Width: 1234
VWidth: 3393
Flags: W
HStem: 886 128<490.158 739.204> 1392 129<493.796 741.829>
VStem: 298 130<1076.4 1326.19> 807 129<1083.06 1326.19>
Fore
618 1521 m 256,0,1
 754 1521 754 1521 842 1425 c 0,2,3
 936 1337 936 1337 936 1201 c 0,4,5
 936 1072 936 1072 842 978 c 0,6,7
 751 886 751 886 615 886 c 256,8,9
 479 886 479 886 391 978 c 0,10,11
 298 1065 298 1065 298 1201 c 256,12,13
 298 1337 298 1337 391 1428 c 256,14,15
 482 1521 482 1521 618 1521 c 256,0,1
618 1392 m 256,16,17
 537 1392 537 1392 482 1337 c 256,18,19
 428 1283 428 1283 428 1201 c 256,20,21
 428 1120 428 1120 482 1065 c 0,22,23
 540 1014 540 1014 615 1014 c 0,24,25
 696 1014 696 1014 751 1069 c 0,26,27
 807 1127 807 1127 807 1201 c 256,28,29
 807 1276 807 1276 754 1337 c 0,30,31
 699 1392 699 1392 618 1392 c 256,16,17
EndSplineSet
EndChar
StartChar: cent
Encoding: 162 162 132
Width: 1234
VWidth: 3393
Flags: W
HStem: -27 153<555.605 699> 991 156<573.144 699 800 978.236>
VStem: 214 194<321.23 798.521> 214 848<560 906 713 1578> 699 101<-312 -27 126 991 1147 1432>
Fore
1062 906 m 1,0,1
 936 984 936 984 800 994 c 1,2,-1
 800 123 l 1,3,4
 930 133 930 133 1062 214 c 1,5,-1
 1062 41 l 1,6,7
 910 -23 910 -23 800 -27 c 1,8,-1
 800 -312 l 1,9,-1
 699 -312 l 1,10,-1
 699 -27 l 1,11,12
 476 -7 476 -7 343 152 c 0,13,14
 214 312 214 312 214 560 c 256,15,16
 214 807 214 807 343 968 c 256,17,18
 472 1127 472 1127 699 1147 c 1,19,-1
 699 1432 l 1,20,-1
 800 1432 l 1,21,-1
 800 1147 l 1,22,23
 910 1143 910 1143 1062 1079 c 1,24,-1
 1062 906 l 1,0,1
699 991 m 1,25,26
 567 981 567 981 486 862 c 0,27,28
 408 744 408 744 408 560 c 256,29,30
 408 376 408 376 486 258 c 0,31,32
 567 143 567 143 699 126 c 1,33,-1
 699 991 l 1,25,26
EndSplineSet
EndChar
StartChar: sterling
Encoding: 163 163 133
Width: 1234
VWidth: 3393
Flags: W
HStem: 0 169<139 376 577 1114> 635 145<176 376 577 946> 1367 154<687.565 1019.15>
VStem: 376 201<169 635 780 1248.94>
Fore
1092 1279 m 1,0,1
 968 1367 968 1367 838 1367 c 0,2,3
 703 1367 703 1367 640 1279 c 128,-1,4
 577 1191 577 1191 577 998 c 2,5,-1
 577 780 l 1,6,-1
 946 780 l 1,7,-1
 946 635 l 1,8,-1
 577 635 l 1,9,-1
 577 169 l 1,10,-1
 1114 169 l 1,11,-1
 1114 0 l 1,12,-1
 139 0 l 1,13,-1
 139 169 l 1,14,-1
 376 169 l 1,15,-1
 376 635 l 1,16,-1
 176 635 l 1,17,-1
 176 780 l 1,18,-1
 376 780 l 1,19,-1
 376 1017 l 2,20,21
 376 1521 376 1521 819 1521 c 0,22,23
 958 1521 958 1521 1092 1463 c 1,24,-1
 1092 1279 l 1,0,1
EndSplineSet
EndChar
StartChar: section
Encoding: 167 167 134
Width: 1234
VWidth: 3393
Flags: W
HStem: -197 146<365.031 737.339> 1377 144<501.849 794.453>
VStem: 200 163<637.387 861.621> 265 182<1141.4 1327.67> 787 184<-2.51941 201.354> 872 167<481.014 706.931>
Fore
936 1299 m 1,0,1
 764 1377 764 1377 655 1377 c 0,2,3
 557 1377 557 1377 502 1336.5 c 128,-1,4
 447 1296 447 1296 447 1225 c 0,5,6
 447 1140 447 1140 655 1021 c 0,7,8
 668 1014 668 1014 678.5 1009 c 128,-1,9
 689 1004 689 1004 696 998 c 2,10,11
 910 878 910 878 971 800 c 0,12,13
 1039 722 1039 722 1039 625 c 0,14,15
 1039 444 1039 444 852 340 c 1,16,17
 971 240 971 240 971 116 c 0,18,19
 971 -27 971 -27 868 -113 c 0,20,21
 764 -197 764 -197 593 -197 c 0,22,23
 457 -197 457 -197 278 -136 c 1,24,-1
 278 27 l 1,25,26
 462 -51 462 -51 570 -51 c 0,27,28
 787 -51 787 -51 787 109 c 0,29,30
 787 207 787 207 567 336 c 2,31,-1
 543 350 l 2,32,33
 326 466 326 466 265 543 c 0,34,35
 200 621 200 621 200 722 c 0,36,37
 200 913 200 913 383 1007 c 1,38,39
 265 1092 265 1092 265 1231 c 0,40,41
 265 1360 265 1360 363 1442 c 0,42,43
 469 1521 469 1521 631 1521 c 0,44,45
 703 1521 703 1521 780.5 1507 c 128,-1,46
 858 1493 858 1493 936 1463 c 1,47,-1
 936 1299 l 1,0,1
486 936 m 1,48,49
 363 845 363 845 363 754 c 0,50,51
 363 679 363 679 431 611 c 0,52,53
 502 547 502 547 751 411 c 1,54,55
 872 499 872 499 872 593 c 0,56,57
 872 673 872 673 800 736 c 0,58,59
 726 807 726 807 486 936 c 1,48,49
EndSplineSet
EndChar
StartChar: bullet
Encoding: 8226 8226 135
Width: 1234
VWidth: 3393
Flags: W
HStem: 466 593<459.599 772.072>
VStem: 320 593<604.347 920.261>
Fore
320 764 m 0,0,1
 320 886 320 886 404 971 c 0,2,3
 492 1059 492 1059 618 1059 c 0,4,5
 739 1059 739 1059 828 971 c 0,6,7
 913 890 913 890 913 764 c 256,8,9
 913 638 913 638 828 553 c 0,10,11
 739 466 739 466 615 466 c 256,12,13
 489 466 489 466 404 550 c 256,14,15
 320 635 320 635 320 764 c 0,0,1
EndSplineSet
EndChar
StartChar: paragraph
Encoding: 182 182 136
Width: 1234
VWidth: 3393
Flags: W
HStem: 1370 123<699 890>
VStem: 104 595<875.81 1268.57> 104 928<890 1266> 557 142<-197 648> 890 142<-197 1370>
Fore
1032 1493 m 1,0,-1
 1032 -197 l 1,1,-1
 890 -197 l 1,2,-1
 890 1370 l 1,3,-1
 699 1370 l 1,4,-1
 699 -197 l 1,5,-1
 557 -197 l 1,6,-1
 557 648 l 1,7,8
 336 668 336 668 224 777 c 0,9,10
 104 890 104 890 104 1072 c 0,11,12
 104 1266 104 1266 237 1377 c 0,13,14
 363 1493 363 1493 583 1493 c 2,15,-1
 1032 1493 l 1,0,-1
EndSplineSet
EndChar
StartChar: germandbls
Encoding: 223 223 137
Width: 1234
VWidth: 3393
Flags: W
HStem: -30 153<501.219 891.82> 1405 153<456.32 767.335>
VStem: 187 189<0 1321.19> 529 180<786.718 1007.91> 848 184<1185 1321.78> 964 186<188.788 426.997>
Fore
187 1137 m 1,0,1
 187 1558 187 1558 615 1558 c 0,2,3
 1024 1558 1024 1558 1032 1120 c 1,4,5
 875 1107 875 1107 792 1044 c 128,-1,6
 709 981 709 981 709 882 c 0,7,8
 709 835 709 835 736.5 796 c 128,-1,9
 764 757 764 757 832 713 c 2,10,-1
 890 676 l 2,11,12
 964 628 964 628 1014.5 585.5 c 128,-1,13
 1065 543 1065 543 1092 502 c 0,14,15
 1150 418 1150 418 1150 302 c 0,16,17
 1150 149 1150 149 1039 61 c 0,18,19
 926 -30 926 -30 729 -30 c 0,20,21
 590 -30 590 -30 457 20 c 1,22,-1
 457 184 l 1,23,24
 611 123 611 123 726 123 c 0,25,26
 835 123 835 123 899.5 171.5 c 128,-1,27
 964 220 964 220 964 302 c 0,28,29
 964 373 964 373 930 421 c 0,30,31
 900 466 900 466 780 543 c 2,32,-1
 713 580 l 2,33,34
 529 689 529 689 529 848 c 0,35,36
 529 1114 529 1114 848 1185 c 1,37,38
 842 1405 842 1405 611 1405 c 0,39,40
 489 1405 489 1405 432.5 1340.5 c 128,-1,41
 376 1276 376 1276 376 1133 c 2,42,-1
 376 0 l 1,43,-1
 187 0 l 1,44,-1
 187 1137 l 1,0,1
EndSplineSet
EndChar
StartChar: registered
Encoding: 174 174 138
Width: 1234
VWidth: 3393
Flags: W
HStem: 126 101<410.192 824.578> 703 81<492 597.209> 1017 87<492 722.315> 1256 104<402.201 832.808>
VStem: 0 101<534.473 953.592> 363 129<408 703 784 1017> 761 132<809.778 990.3> 1130 104<528.192 957.382>
Fore
600 1104 m 1,0,1
 893 1104 893 1104 893 903 c 0,2,3
 893 754 893 754 722 722 c 1,4,5
 761 713 761 713 838 593 c 2,6,-1
 953 408 l 1,7,-1
 810 408 l 1,8,-1
 703 580 l 2,9,10
 648 664 648 664 621 683 c 1,11,12
 597 703 597 703 547 703 c 2,13,-1
 492 703 l 1,14,-1
 492 408 l 1,15,-1
 363 408 l 1,16,-1
 363 1104 l 1,17,-1
 600 1104 l 1,0,1
492 1017 m 1,18,-1
 492 784 l 1,19,-1
 593 784 l 2,20,21
 686 784 686 784 723.5 811 c 128,-1,22
 761 838 761 838 761 903 c 0,23,24
 761 964 761 964 723.5 990.5 c 128,-1,25
 686 1017 686 1017 593 1017 c 2,26,-1
 492 1017 l 1,18,-1
618 1360 m 256,27,28
 872 1360 872 1360 1052 1181 c 0,29,30
 1234 991 1234 991 1234 744 c 0,31,32
 1234 489 1234 489 1052 308 c 0,33,34
 868 126 868 126 618 126 c 0,35,36
 363 126 363 126 184 308 c 0,37,38
 0 489 0 489 0 744 c 256,39,40
 0 998 0 998 184 1181 c 0,41,42
 363 1360 363 1360 618 1360 c 256,27,28
618 1256 m 0,43,44
 401 1256 401 1256 255 1107 c 0,45,46
 101 961 101 961 101 744 c 0,47,48
 101 529 101 529 255 379 c 0,49,50
 408 227 408 227 618 227 c 256,51,52
 828 227 828 227 981 379 c 0,53,54
 1130 529 1130 529 1130 744 c 256,55,56
 1130 958 1130 958 981 1107 c 256,57,58
 832 1256 832 1256 618 1256 c 0,43,44
EndSplineSet
EndChar
StartChar: copyright
Encoding: 169 169 139
Width: 1234
VWidth: 3393
Flags: W
HStem: 126 101<410.192 824.578> 370 99<489.29 796.991> 1017 100<487.237 846.989> 1256 104<402.201 832.808>
VStem: 0 101<534.473 953.592> 252 134<571.375 916.909> 1130 104<528.192 957.382>
Fore
865 964 m 1,0,1
 754 1017 754 1017 638 1017 c 256,2,3
 522 1017 522 1017 451 943 c 0,4,5
 386 875 386 875 386 744 c 256,6,7
 386 611 386 611 455.5 540 c 128,-1,8
 525 469 525 469 655 469 c 0,9,10
 713 469 713 469 764 480.5 c 128,-1,11
 815 492 815 492 865 519 c 1,12,-1
 865 414 l 1,13,14
 767 370 767 370 638 370 c 0,15,16
 457 370 457 370 353 469 c 0,17,18
 252 570 252 570 252 744 c 0,19,20
 252 920 252 920 353 1014 c 0,21,22
 462 1117 462 1117 638 1117 c 0,23,24
 767 1117 767 1117 865 1072 c 1,25,-1
 865 964 l 1,0,1
618 1256 m 0,26,27
 401 1256 401 1256 255 1107 c 0,28,29
 101 961 101 961 101 744 c 0,30,31
 101 529 101 529 255 379 c 0,32,33
 408 227 408 227 618 227 c 256,34,35
 828 227 828 227 981 379 c 0,36,37
 1130 529 1130 529 1130 744 c 256,38,39
 1130 958 1130 958 981 1107 c 256,40,41
 832 1256 832 1256 618 1256 c 0,26,27
618 1360 m 256,42,43
 872 1360 872 1360 1052 1181 c 0,44,45
 1234 991 1234 991 1234 744 c 0,46,47
 1234 489 1234 489 1052 308 c 0,48,49
 868 126 868 126 618 126 c 0,50,51
 363 126 363 126 184 308 c 0,52,53
 0 489 0 489 0 744 c 256,54,55
 0 998 0 998 184 1181 c 0,56,57
 363 1360 363 1360 618 1360 c 256,42,43
EndSplineSet
EndChar
StartChar: trademark
Encoding: 8482 8482 140
Width: 1234
VWidth: 3393
Flags: W
HStem: 916 577<162 275 522 635 1014 1127 0 275 1.53064e-18 1.53064e-18> 1402 91<0 162 275 437>
VStem: 162 113<916 1402> 522 113<916 1399> 1014 113<916 1399>
Fore
437 1402 m 1,0,-1
 275 1402 l 1,1,-1
 275 916 l 1,2,-1
 162 916 l 1,3,-1
 162 1402 l 1,4,-1
 0 1402 l 1,5,-1
 0 1493 l 1,6,-1
 437 1493 l 1,7,-1
 437 1402 l 1,0,-1
832 1239 m 1,8,-1
 953 1493 l 1,9,-1
 1127 1493 l 1,10,-1
 1127 916 l 1,11,-1
 1014 916 l 1,12,-1
 1014 1399 l 1,13,-1
 858 1097 l 1,14,-1
 800 1097 l 1,15,-1
 635 1399 l 1,16,-1
 635 916 l 1,17,-1
 522 916 l 1,18,-1
 522 1493 l 1,19,-1
 693 1493 l 1,20,-1
 832 1239 l 1,8,-1
EndSplineSet
EndChar
StartChar: acute
Encoding: 180 180 141
Width: 1234
VWidth: 3393
Flags: W
HStem: 1263 376<631 953 953 953>
Fore
953 1639 m 1,0,-1
 631 1263 l 1,1,-1
 476 1263 l 1,2,-1
 757 1639 l 1,3,-1
 953 1639 l 1,0,-1
EndSplineSet
EndChar
StartChar: dieresis
Encoding: 168 168 142
Width: 1234
VWidth: 3393
Flags: W
HStem: 1350 204<320 522 713 913>
VStem: 320 202<1350 1554> 713 200<1350 1554>
Fore
522 1554 m 1,0,-1
 522 1350 l 1,1,-1
 320 1350 l 1,2,-1
 320 1554 l 1,3,-1
 522 1554 l 1,0,-1
913 1554 m 1,4,-1
 913 1350 l 1,5,-1
 713 1350 l 1,6,-1
 713 1554 l 1,7,-1
 913 1554 l 1,4,-1
EndSplineSet
EndChar
StartChar: notequal
Encoding: 8800 8800 143
Width: 1234
VWidth: 3393
Flags: W
HStem: 353 172<88 288 628 1147> 761 169<88 605 943 1147>
Fore
736 930 m 1,0,-1
 981 1246 l 1,1,-1
 1107 1143 l 1,2,-1
 943 930 l 1,3,-1
 1147 930 l 1,4,-1
 1147 761 l 1,5,-1
 810 761 l 1,6,-1
 628 525 l 1,7,-1
 1147 525 l 1,8,-1
 1147 353 l 1,9,-1
 499 353 l 1,10,-1
 252 38 l 1,11,-1
 126 143 l 1,12,-1
 288 353 l 1,13,-1
 88 353 l 1,14,-1
 88 525 l 1,15,-1
 418 525 l 1,16,-1
 605 761 l 1,17,-1
 88 761 l 1,18,-1
 88 930 l 1,19,-1
 736 930 l 1,0,-1
EndSplineSet
EndChar
StartChar: AE
Encoding: 198 198 144
Width: 1234
VWidth: 3393
Flags: W
HStem: 0 169<825 1181> 383 170<330 638> 713 169<825 1130> 1324 169<529 638 825 1160>
VStem: 638 187<169 383 553 713 882 1324>
Fore
1160 1324 m 1,0,-1
 825 1324 l 1,1,-1
 825 882 l 1,2,-1
 1130 882 l 1,3,-1
 1130 713 l 1,4,-1
 825 713 l 1,5,-1
 825 169 l 1,6,-1
 1181 169 l 1,7,-1
 1181 0 l 1,8,-1
 638 0 l 1,9,-1
 638 383 l 1,10,-1
 285 383 l 1,11,-1
 184 0 l 1,12,-1
 0 0 l 1,13,-1
 411 1493 l 1,14,-1
 1160 1493 l 1,15,-1
 1160 1324 l 1,0,-1
330 553 m 1,16,-1
 638 553 l 1,17,-1
 638 1324 l 1,18,-1
 529 1324 l 1,19,-1
 330 553 l 1,16,-1
EndSplineSet
EndChar
StartChar: Oslash
Encoding: 216 216 145
Width: 1234
VWidth: 3393
Flags: W
HStem: -30 166<467.753 762.334> 1357 164<472.73 763.884>
VStem: 122.5 209<504.752 620.842 620.842 670.908 645.875 1137.84> 906 211<353.731 922.485>
Fore
370 302 m 1,0,1
 401 224 401 224 467.5 180 c 128,-1,2
 534 136 534 136 618 136 c 0,3,4
 771 136 771 136 838 275 c 0,5,6
 906 421 906 421 906 747 c 0,7,8
 906 855 906 855 901 923 c 128,-1,9
 896 991 896 991 886 1039 c 1,10,-1
 370 302 l 1,0,1
842 1191 m 1,11,12
 794 1357 794 1357 618 1357 c 0,13,14
 457 1357 457 1357 394 1211 c 0,15,16
 330 1069 330 1069 330 686 c 0,17,18
 330 608 330 608 331.5 556.5 c 128,-1,19
 333 505 333 505 340 472 c 1,20,-1
 842 1191 l 1,11,12
1032 1249 m 1,21,22
 1075 1168 1075 1168 1096 1039 c 128,-1,23
 1117 910 1117 910 1117 747 c 0,24,25
 1117 -30 1117 -30 618 -30 c 0,26,27
 376 -30 376 -30 255 133 c 1,28,-1
 113 -71 l 1,29,-1
 7 0 l 1,30,-1
 187 252 l 1,31,32
 156 330 156 330 136 457 c 0,33,34
 126 522 126 522 122.5 595 c 128,-1,35
 119 668 119 668 119 747 c 0,36,37
 119 1521 119 1521 618 1521 c 0,38,39
 848 1521 848 1521 961 1360 c 1,40,-1
 1104 1561 l 1,41,-1
 1201 1486 l 1,42,-1
 1032 1249 l 1,21,22
EndSplineSet
EndChar
StartChar: infinity
Encoding: 8734 8734 146
Width: 1234
VWidth: 3393
Flags: W
HStem: 252 139<221.56 421.355 802.87 1001.93> 868 139<228.482 429.963 810.643 1008.57>
VStem: 41 125<454.329 799.591> 1065 130<457.847 804.878>
Fore
696 628 m 1,0,1
 751 492 751 492 797 441 c 256,2,3
 845 391 845 391 903 391 c 0,4,5
 974 391 974 391 1021 457 c 0,6,7
 1065 522 1065 522 1065 635 c 0,8,9
 1065 739 1065 739 1024 804 c 256,10,11
 984 868 984 868 913 868 c 0,12,13
 784 868 784 868 696 628 c 1,0,1
537 635 m 1,14,15
 509 703 509 703 483 748.5 c 128,-1,16
 457 794 457 794 434 819 c 0,17,18
 391 868 391 868 330 868 c 0,19,20
 255 868 255 868 210 800 c 0,21,22
 166 736 166 736 166 631 c 0,23,24
 166 522 166 522 207 454 c 0,25,26
 252 391 252 391 320 391 c 0,27,28
 447 391 447 391 537 635 c 1,14,15
618 764 m 1,29,30
 664 882 664 882 737 944.5 c 128,-1,31
 810 1007 810 1007 903 1007 c 0,32,33
 1017 1007 1017 1007 1107 900 c 0,34,35
 1195 784 1195 784 1195 631 c 0,36,37
 1195 462 1195 462 1110 356 c 0,38,39
 1036 252 1036 252 903 252 c 0,40,41
 825 252 825 252 757 302 c 0,42,43
 693 346 693 346 615 482 c 1,44,45
 547 356 547 356 482.5 304 c 128,-1,46
 418 252 418 252 333 252 c 0,47,48
 207 252 207 252 126 356 c 0,49,50
 41 462 41 462 41 631 c 256,51,52
 41 800 41 800 119 906 c 0,53,54
 200 1007 200 1007 330 1007 c 0,55,56
 424 1007 424 1007 492 950 c 128,-1,57
 560 893 560 893 618 764 c 1,29,30
EndSplineSet
EndChar
StartChar: plusminus
Encoding: 177 177 147
Width: 1234
VWidth: 3393
Flags: W
HStem: 0 169<88 1147> 673 169<88 534 703 1147>
VStem: 534 169<340 673 842 1171>
Fore
1147 169 m 1,0,-1
 1147 0 l 1,1,-1
 88 0 l 1,2,-1
 88 169 l 1,3,-1
 1147 169 l 1,0,-1
703 842 m 1,4,-1
 1147 842 l 1,5,-1
 1147 673 l 1,6,-1
 703 673 l 1,7,-1
 703 340 l 1,8,-1
 534 340 l 1,9,-1
 534 673 l 1,10,-1
 88 673 l 1,11,-1
 88 842 l 1,12,-1
 534 842 l 1,13,-1
 534 1171 l 1,14,-1
 703 1171 l 1,15,-1
 703 842 l 1,4,-1
EndSplineSet
EndChar
StartChar: lessequal
Encoding: 8804 8804 148
Width: 1234
VWidth: 3393
Flags: W
HStem: 0 169<85 1143>
Fore
1143 258 m 1,0,-1
 85 587 l 1,1,-1
 85 757 l 1,2,-1
 1143 1089 l 1,3,-1
 1143 903 l 1,4,-1
 343 673 l 1,5,-1
 1143 437 l 1,6,-1
 1143 258 l 1,0,-1
1143 0 m 1,7,-1
 85 0 l 1,8,-1
 85 169 l 1,9,-1
 1143 169 l 1,10,-1
 1143 0 l 1,7,-1
EndSplineSet
EndChar
StartChar: greaterequal
Encoding: 8805 8805 149
Width: 1234
VWidth: 3393
Flags: W
HStem: 0 169<88 1147>
Fore
893 673 m 1,0,-1
 88 903 l 1,1,-1
 88 1089 l 1,2,-1
 1147 757 l 1,3,-1
 1147 587 l 1,4,-1
 88 258 l 1,5,-1
 88 437 l 1,6,-1
 893 673 l 1,0,-1
1147 169 m 1,7,-1
 1147 0 l 1,8,-1
 88 0 l 1,9,-1
 88 169 l 1,10,-1
 1147 169 l 1,7,-1
EndSplineSet
EndChar
StartChar: yen
Encoding: 165 165 150
Width: 1234
VWidth: 3393
Flags: W
HStem: 0 21G<515 719> 525 110<116 515 719 1120> 822 111<116 360 865 1120> 1473 20G<38 263.125 969.967 1198>
VStem: 515 204<0 525 635 673>
Fore
252 1493 m 1,0,-1
 618 835 l 1,1,-1
 981 1493 l 1,2,-1
 1198 1493 l 1,3,-1
 865 933 l 1,4,-1
 1120 933 l 1,5,-1
 1120 822 l 1,6,-1
 804 822 l 1,7,-1
 719 673 l 1,8,-1
 719 635 l 1,9,-1
 1120 635 l 1,10,-1
 1120 525 l 1,11,-1
 719 525 l 1,12,-1
 719 0 l 1,13,-1
 515 0 l 1,14,-1
 515 525 l 1,15,-1
 116 525 l 1,16,-1
 116 635 l 1,17,-1
 515 635 l 1,18,-1
 515 673 l 1,19,-1
 424 822 l 1,20,-1
 116 822 l 1,21,-1
 116 933 l 1,22,-1
 360 933 l 1,23,-1
 38 1493 l 1,24,-1
 252 1493 l 1,0,-1
EndSplineSet
EndChar
StartChar: mu
Encoding: 181 181 151
Width: 1234
VWidth: 3393
Flags: W
HStem: -428 21G<197 363> -30 163<465.79 760.386 992.673 1160.84> 1100 20G<197 379 865 1052>
VStem: 197 166<-428 126> 197 182<225.074 1120> 865 187<251.453 258 469 1120>
Fore
197 1120 m 1,0,-1
 379 1120 l 1,1,-1
 379 424 l 2,2,3
 379 133 379 133 611 133 c 0,4,5
 865 133 865 133 865 469 c 2,6,-1
 865 1120 l 1,7,-1
 1052 1120 l 1,8,-1
 1052 258 l 2,9,10
 1052 143 1052 143 1117 143 c 0,11,12
 1127 143 1127 143 1142 146 c 128,-1,13
 1157 149 1157 149 1185 162 c 1,14,-1
 1185 17 l 1,15,16
 1107 -30 1107 -30 1042 -30 c 0,17,18
 920 -30 920 -30 893 129 c 1,19,20
 804 -30 804 -30 625 -30 c 0,21,22
 447 -30 447 -30 363 126 c 1,23,-1
 363 -428 l 1,24,-1
 197 -428 l 1,25,-1
 197 1120 l 1,0,-1
EndSplineSet
EndChar
StartChar: partialdiff
Encoding: 8706 8706 152
Width: 1234
VWidth: 3393
Flags: W
HStem: -23 53<431.46 656.143> 736 74<514.224 734.667> 1208 119<618.217 820.607>
VStem: 191 185<165.124 547.271> 872 177<712.324 1043.24>
Fore
842 621 m 1,0,1
 872 794 872 794 872 946 c 0,2,3
 872 1208 872 1208 726 1208 c 0,4,5
 676 1208 676 1208 600 1150 c 0,6,7
 534 1092 534 1092 492 1092 c 0,8,9
 454 1092 454 1092 431 1114.5 c 128,-1,10
 408 1137 408 1137 408 1168 c 0,11,12
 408 1231 408 1231 482 1276 c 0,13,14
 553 1327 553 1327 655 1327 c 0,15,16
 835 1327 835 1327 940 1171 c 0,17,18
 1049 1014 1049 1014 1049 754 c 0,19,20
 1049 414 1049 414 903 197 c 0,21,22
 764 -23 764 -23 547 -23 c 0,23,24
 394 -23 394 -23 292 81 c 0,25,26
 191 194 191 194 191 353 c 0,27,28
 191 557 191 557 302 683 c 0,29,30
 411 810 411 810 573 810 c 0,31,32
 676 810 676 810 740 764.5 c 128,-1,33
 804 719 804 719 842 621 c 1,0,1
794 495 m 0,34,35
 794 611 794 611 750 673.5 c 128,-1,36
 706 736 706 736 628 736 c 0,37,38
 519 736 519 736 447 608 c 0,39,40
 376 476 376 476 376 272 c 0,41,42
 376 30 376 30 543 30 c 0,43,44
 651 30 651 30 722 159 c 0,45,46
 794 292 794 292 794 495 c 0,34,35
EndSplineSet
EndChar
StartChar: summation
Encoding: 8721 8721 153
Width: 1234
VWidth: 3393
Flags: W
HStem: -437 139<333 1085> 1382 139<333 1065>
Fore
1085 -298 m 1,0,-1
 1085 -437 l 1,1,-1
 143 -437 l 1,2,-1
 143 -343 l 1,3,-1
 693 577 l 1,4,-1
 143 1425 l 1,5,-1
 143 1521 l 1,6,-1
 1065 1521 l 1,7,-1
 1065 1382 l 1,8,-1
 333 1382 l 1,9,-1
 855 577 l 1,10,-1
 333 -298 l 1,11,-1
 1085 -298 l 1,0,-1
EndSplineSet
EndChar
StartChar: product
Encoding: 8719 8719 154
Width: 1234
VWidth: 3393
Flags: W
HStem: 1389 132<308 926>
VStem: 152 156<-437 1389> 152 930<1389 1521> 926 156<-437 1389>
Fore
152 1521 m 1,0,-1
 1082 1521 l 1,1,-1
 1082 -437 l 1,2,-1
 926 -437 l 1,3,-1
 926 1389 l 1,4,-1
 308 1389 l 1,5,-1
 308 -437 l 1,6,-1
 152 -437 l 1,7,-1
 152 1521 l 1,0,-1
EndSplineSet
EndChar
StartChar: pi
Encoding: 960 960 155
Width: 1234
VWidth: 3393
Flags: W
HStem: -41 154<1034.6 1130.15> 953 151<81 224 404 832 1014 1153>
VStem: 224 180<0 953> 832 182<132.282 953>
Fore
1153 1104 m 1,0,-1
 1153 953 l 1,1,-1
 1014 953 l 1,2,-1
 1014 249 l 2,3,4
 1014 113 1014 113 1117 113 c 0,5,6
 1133 113 1133 113 1155.5 116 c 128,-1,7
 1178 119 1178 119 1185 119 c 1,8,-1
 1185 -13 l 1,9,10
 1110 -41 1110 -41 1039 -41 c 0,11,12
 926 -41 926 -41 878 27 c 256,13,14
 832 94 832 94 832 268 c 2,15,-1
 832 953 l 1,16,-1
 404 953 l 1,17,-1
 404 0 l 1,18,-1
 224 0 l 1,19,-1
 224 953 l 1,20,-1
 81 953 l 1,21,-1
 81 1104 l 1,22,-1
 1153 1104 l 1,0,-1
EndSplineSet
EndChar
StartChar: integral
Encoding: 8747 8747 156
Width: 1234
VWidth: 3393
Flags: W
HStem: -370 108<300.095 441.641> 1445 106<792.535 931.39>
VStem: 515 198<115.876 475.458 475.458 587.269 587.269 738.6 738.6 825 825 1060.11>
Fore
394 -262 m 0,0,1
 502 -262 502 -262 512 428 c 0,2,3
 515 482 515 482 515 522.5 c 128,-1,4
 515 563 515 563 515 590 c 0,5,6
 534 1114 534 1114 625 1331 c 0,7,8
 716 1551 716 1551 920 1551 c 0,9,10
 1001 1551 1001 1551 1052 1510 c 0,11,12
 1104 1466 1104 1466 1104 1402 c 0,13,14
 1104 1347 1104 1347 1071.5 1316.5 c 128,-1,15
 1039 1286 1039 1286 981 1286 c 0,16,17
 893 1286 893 1286 872 1357 c 0,18,19
 868 1374 868 1374 862 1408 c 0,20,21
 855 1445 855 1445 842 1445 c 0,22,23
 736 1445 736 1445 719 825 c 0,24,25
 716 726 716 726 716 653 c 128,-1,26
 716 580 716 580 713 522 c 0,27,28
 706 282 706 282 677 110.5 c 128,-1,29
 648 -61 648 -61 600 -162 c 0,30,31
 505 -370 505 -370 308 -370 c 0,32,33
 230 -370 230 -370 181 -330 c 256,34,35
 129 -288 129 -288 129 -224 c 0,36,37
 129 -104 129 -104 258 -104 c 0,38,39
 326 -104 326 -104 353 -159 c 0,40,41
 366 -184 366 -184 370 -220 c 0,42,43
 376 -262 376 -262 394 -262 c 0,0,1
EndSplineSet
EndChar
StartChar: ordfeminine
Encoding: 170 170 157
Width: 1234
VWidth: 3393
Flags: W
HStem: 469 124<292 961> 699 120<458.434 717.432> 1107 114<480.927 810> 1405 116<445.843 750.77>
VStem: 272 146<857.644 1061.83> 810 143<719 832 912.446 1075 1075 1107 1221 1346.18>
Fore
686 1107 m 1,0,1
 540 1107 540 1107 479 1073 c 128,-1,2
 418 1039 418 1039 418 961 c 0,3,4
 418 896 418 896 460 857.5 c 128,-1,5
 502 819 502 819 577 819 c 0,6,7
 683 819 683 819 747 890 c 0,8,9
 810 958 810 958 810 1075 c 2,10,-1
 810 1107 l 1,11,-1
 686 1107 l 1,0,1
953 719 m 1,12,-1
 810 719 l 1,13,-1
 810 832 l 1,14,15
 716 699 716 699 550 699 c 0,16,17
 424 699 424 699 346 767 c 0,18,19
 272 832 272 832 272 949 c 0,20,21
 272 1079 272 1079 364.5 1150 c 128,-1,22
 457 1221 457 1221 631 1221 c 2,23,-1
 810 1221 l 1,24,-1
 810 1225 l 2,25,26
 810 1405 810 1405 577 1405 c 0,27,28
 469 1405 469 1405 333 1337 c 1,29,-1
 333 1466 l 1,30,31
 401 1493 401 1493 469 1507 c 128,-1,32
 537 1521 537 1521 597 1521 c 0,33,34
 784 1521 784 1521 868.5 1435.5 c 128,-1,35
 953 1350 953 1350 953 1168 c 2,36,-1
 953 719 l 1,12,-1
961 593 m 1,37,-1
 961 469 l 1,38,-1
 292 469 l 1,39,-1
 292 593 l 1,40,-1
 961 593 l 1,37,-1
EndSplineSet
EndChar
StartChar: ordmasculine
Encoding: 186 186 158
Width: 1234
VWidth: 3393
Flags: W
HStem: 469 124<275 953> 699 116<488.93 744.304> 1405 116<489.995 744.866>
VStem: 244 157<910.611 1305.67> 835 156<914.505 1305.67>
Fore
618 1405 m 256,0,1
 515 1405 515 1405 458 1327 c 128,-1,2
 401 1249 401 1249 401 1110 c 0,3,4
 401 968 401 968 458 891.5 c 128,-1,5
 515 815 515 815 618 815 c 0,6,7
 716 815 716 815 777 893 c 0,8,9
 835 978 835 978 835 1110 c 0,10,11
 835 1249 835 1249 777 1327 c 128,-1,12
 719 1405 719 1405 618 1405 c 256,0,1
618 1521 m 256,13,14
 787 1521 787 1521 890 1408 c 256,15,16
 991 1296 991 1296 991 1110 c 256,17,18
 991 923 991 923 890 810 c 256,19,20
 787 699 787 699 618 699 c 256,21,22
 447 699 447 699 346 810 c 256,23,24
 244 923 244 923 244 1110 c 256,25,26
 244 1296 244 1296 346 1408 c 256,27,28
 447 1521 447 1521 618 1521 c 256,13,14
953 593 m 1,29,-1
 953 469 l 1,30,-1
 275 469 l 1,31,-1
 275 593 l 1,32,-1
 953 593 l 1,29,-1
EndSplineSet
EndChar
StartChar: Omega
Encoding: 937 937 159
Width: 1234
VWidth: 3393
Flags: W
HStem: 0 172<75 320 913 1160> 1296 167<460.781 770.377>
VStem: 85 197<488.675 1075.63> 949 198<485.763 1076.61>
Fore
75 172 m 1,0,-1
 320 172 l 1,1,2
 200 302 200 302 143 451 c 0,3,4
 85 597 85 597 85 784 c 0,5,6
 85 1089 85 1089 230 1276 c 0,7,8
 373 1463 373 1463 615 1463 c 0,9,10
 858 1463 858 1463 1001 1279 c 0,11,12
 1147 1100 1147 1100 1147 784 c 0,13,14
 1147 600 1147 600 1089 447 c 0,15,16
 1032 302 1032 302 913 172 c 1,17,-1
 1160 172 l 1,18,-1
 1160 0 l 1,19,-1
 696 0 l 1,20,-1
 696 172 l 1,21,22
 819 249 819 249 882 414 c 0,23,24
 949 570 949 570 949 800 c 256,25,26
 949 1032 949 1032 862 1160 c 0,27,28
 771 1296 771 1296 618 1296 c 0,29,30
 457 1296 457 1296 373 1160 c 0,31,32
 282 1036 282 1036 282 800 c 0,33,34
 282 580 282 580 350 414 c 0,35,36
 421 249 421 249 537 172 c 1,37,-1
 537 0 l 1,38,-1
 75 0 l 1,39,-1
 75 172 l 1,0,-1
EndSplineSet
EndChar
StartChar: ae
Encoding: 230 230 160
Width: 1234
VWidth: 3393
Flags: W
HStem: -30 156<250.66 491.8 783.644 1104.9> 515 143<269.611 543 709 1039> 994 153<233.159 484.049 762.945 982.799>
VStem: 41 163<174.399 454.411> 543 166<204.072 515 658 923.854> 1039 162<658 925.916>
Fore
543 515 m 1,0,-1
 495 515 l 2,1,2
 330 515 330 515 265 469 c 0,3,4
 204 428 204 428 204 312 c 0,5,6
 204 126 204 126 376 126 c 0,7,8
 472 126 472 126 505 191 c 0,9,10
 543 255 543 255 543 441 c 2,11,-1
 543 515 l 1,0,-1
1039 709 m 2,12,13
 1039 862 1039 862 1000 928 c 128,-1,14
 961 994 961 994 872 994 c 256,15,16
 784 994 784 994 746.5 926 c 128,-1,17
 709 858 709 858 709 703 c 2,18,-1
 709 658 l 1,19,-1
 1039 658 l 1,20,-1
 1039 709 l 2,12,13
709 515 m 1,21,-1
 709 431 l 2,22,23
 709 268 709 268 758 197 c 128,-1,24
 807 126 807 126 920 126 c 0,25,26
 1079 126 1079 126 1181 227 c 1,27,-1
 1181 55 l 1,28,29
 1065 -30 1065 -30 920 -30 c 0,30,31
 696 -30 696 -30 631 133 c 1,32,33
 550 -30 550 -30 360 -30 c 0,34,35
 41 -30 41 -30 41 308 c 0,36,37
 41 658 41 658 431 658 c 2,38,-1
 550 658 l 1,39,-1
 550 747 l 2,40,41
 550 994 550 994 356 994 c 0,42,43
 298 994 298 994 233.5 971.5 c 128,-1,44
 169 949 169 949 104 913 c 1,45,-1
 104 1079 l 1,46,47
 255 1147 255 1147 376 1147 c 0,48,49
 557 1147 557 1147 628 1021 c 1,50,51
 696 1147 696 1147 882 1147 c 0,52,53
 1059 1147 1059 1147 1127 1029 c 0,54,55
 1201 913 1201 913 1201 605 c 2,56,-1
 1201 515 l 1,57,-1
 709 515 l 1,21,-1
EndSplineSet
EndChar
StartChar: oslash
Encoding: 248 248 161
Width: 1234
VWidth: 3393
Flags: W
HStem: -30 156<467.426 770.04> 991 156<463.937 769.338>
VStem: 136 194<453.835 834.128> 903 194<286.567 719.883>
Fore
414 220 m 1,0,1
 489 126 489 126 618 126 c 0,2,3
 903 126 903 126 903 560 c 0,4,5
 903 611 903 611 896.5 666.5 c 128,-1,6
 890 722 890 722 878 780 c 1,7,-1
 414 220 l 1,0,1
819 900 m 1,8,9
 747 991 747 991 618 991 c 0,10,11
 476 991 476 991 403 885.5 c 128,-1,12
 330 780 330 780 330 577 c 0,13,14
 330 529 330 529 335 470 c 128,-1,15
 340 411 340 411 356 340 c 1,16,-1
 819 900 l 1,8,9
217 181 m 1,17,18
 181 252 181 252 158.5 348 c 128,-1,19
 136 444 136 444 136 560 c 0,20,21
 136 848 136 848 259.5 997.5 c 128,-1,22
 383 1147 383 1147 618 1147 c 0,23,24
 819 1147 819 1147 936 1039 c 1,25,-1
 1082 1215 l 1,26,-1
 1175 1137 l 1,27,-1
 1011 940 l 1,28,29
 1097 800 1097 800 1097 560 c 0,30,31
 1097 272 1097 272 974.5 121 c 128,-1,32
 852 -30 852 -30 618 -30 c 0,33,34
 418 -30 418 -30 298 91 c 1,35,-1
 139 -94 l 1,36,-1
 48 -20 l 1,37,-1
 217 181 l 1,17,18
EndSplineSet
EndChar
StartChar: questiondown
Encoding: 191 191 162
Width: 1234
VWidth: 3393
Flags: W
HStem: -27 163<479.438 824.025> 1243 250<543 747>
VStem: 194 204<214.285 429.269> 547 192<866.36 948.331 948.331 1092 1243 1493>
Fore
739 1092 m 1,0,-1
 739 940 l 2,1,2
 739 842 739 842 709 771 c 0,3,4
 676 699 676 699 593 621 c 2,5,-1
 505 534 l 2,6,7
 441 469 441 469 418 431 c 0,8,9
 398 386 398 386 398 336 c 0,10,11
 398 249 398 249 462 194 c 0,12,13
 529 136 529 136 635 136 c 0,14,15
 790 136 790 136 991 275 c 1,16,-1
 991 85 l 1,17,18
 804 -27 804 -27 600 -27 c 0,19,20
 411 -27 411 -27 302 68 c 0,21,22
 194 166 194 166 194 326 c 0,23,24
 194 404 194 404 227 469 c 0,25,26
 244 502 244 502 274.5 539.5 c 128,-1,27
 305 577 305 577 353 625 c 2,28,-1
 441 713 l 2,29,30
 479 744 479 744 499 770.5 c 128,-1,31
 519 797 519 797 529 819 c 256,32,33
 540 838 540 838 543.5 865.5 c 128,-1,34
 547 893 547 893 547 923 c 2,35,-1
 547 926 l 1,36,37
 550 943 550 943 550 971 c 2,38,-1
 550 1092 l 1,39,-1
 739 1092 l 1,0,-1
543 1243 m 1,40,-1
 543 1493 l 1,41,-1
 747 1493 l 1,42,-1
 747 1243 l 1,43,-1
 543 1243 l 1,40,-1
EndSplineSet
EndChar
StartChar: exclamdown
Encoding: 161 161 163
Width: 1234
VWidth: 3393
Flags: W
HStem: 0 21G<515 719> 1243 250<515 719>
VStem: 515 204<0 771.969 1243 1493>
Fore
515 1493 m 1,0,-1
 719 1493 l 1,1,-1
 719 1243 l 1,2,-1
 515 1243 l 1,3,-1
 515 1493 l 1,0,-1
515 655 m 1,4,-1
 537 1014 l 1,5,-1
 699 1014 l 1,6,-1
 719 655 l 1,7,-1
 719 0 l 1,8,-1
 515 0 l 1,9,-1
 515 655 l 1,4,-1
EndSplineSet
EndChar
StartChar: logicalnot
Encoding: 172 172 164
Width: 1234
VWidth: 3393
Flags: W
HStem: 370 492<978 1147> 693 169<88 978>
VStem: 978 169<370 693>
Fore
1147 862 m 1,0,-1
 1147 370 l 1,1,-1
 978 370 l 1,2,-1
 978 693 l 1,3,-1
 88 693 l 1,4,-1
 88 862 l 1,5,-1
 1147 862 l 1,0,-1
EndSplineSet
EndChar
StartChar: radical
Encoding: 8730 8730 165
Width: 1234
VWidth: 3393
Flags: W
Fore
58 858 m 1,0,-1
 350 958 l 1,1,-1
 570 224 l 1,2,-1
 1039 1697 l 1,3,-1
 1185 1697 l 1,4,-1
 1185 1568 l 1,5,-1
 1137 1568 l 1,6,-1
 631 -41 l 1,7,-1
 505 -41 l 1,8,-1
 258 787 l 1,9,-1
 101 732 l 1,10,-1
 58 858 l 1,0,-1
EndSplineSet
EndChar
StartChar: florin
Encoding: 402 402 166
Width: 1234
VWidth: 3393
Flags: W
HStem: -428 146<30.8633 320.025> 706 142<305 557 761 1062> 1415 143<902.562 1181.93>
Fore
1201 1357 m 1,0,1
 1127 1415 1127 1415 1039 1415 c 0,2,3
 838 1415 838 1415 804 1160 c 2,4,-1
 761 848 l 1,5,-1
 1062 848 l 1,6,-1
 1062 706 l 1,7,-1
 732 706 l 1,8,-1
 635 71 l 2,9,10
 590 -194 590 -194 492 -312 c 0,11,12
 386 -428 386 -428 204 -428 c 0,13,14
 88 -428 88 -428 0 -383 c 1,15,-1
 0 -220 l 1,16,17
 98 -282 98 -282 197 -282 c 0,18,19
 386 -282 386 -282 441 17 c 2,20,-1
 557 706 l 1,21,-1
 305 706 l 1,22,-1
 305 848 l 1,23,-1
 580 848 l 1,24,-1
 631 1181 l 2,25,26
 658 1354 658 1354 754 1457 c 0,27,28
 855 1558 855 1558 1001 1558 c 0,29,30
 1097 1558 1097 1558 1201 1521 c 1,31,-1
 1201 1357 l 1,0,1
EndSplineSet
EndChar
StartChar: approxequal
Encoding: 8776 8776 167
Width: 1234
VWidth: 3393
Flags: W
HStem: 305 167<672.543 1029.51> 431 166<237.737 462.554> 676 166<675.981 1031.67> 797 167<220.645 431.048 423.331 438.765 438.765 482 499 540.001>
Fore
1147 787 m 1,0,1
 1001 676 1001 676 848 676 c 0,2,3
 757 676 757 676 645 726 c 0,4,5
 635 732 635 732 628 734 c 128,-1,6
 621 736 621 736 615 739 c 0,7,8
 573 757 573 757 541 768.5 c 128,-1,9
 509 780 509 780 482 787 c 0,10,11
 431 797 431 797 379 797 c 0,12,13
 230 797 230 797 88 676 c 1,14,-1
 88 848 l 1,15,16
 166 910 166 910 239 937 c 128,-1,17
 312 964 312 964 398 964 c 0,18,19
 447 964 447 964 499 953 c 0,20,21
 525 946 525 946 556 936 c 128,-1,22
 587 926 587 926 625 910 c 0,23,24
 631 906 631 906 638 904.5 c 128,-1,25
 645 903 645 903 655 896 c 0,26,27
 767 842 767 842 865 842 c 0,28,29
 1004 842 1004 842 1147 964 c 1,30,-1
 1147 787 l 1,0,1
1147 421 m 1,31,32
 998 305 998 305 848 305 c 0,33,34
 757 305 757 305 645 356 c 0,35,36
 618 370 618 370 615 370 c 1,37,38
 570 391 570 391 537.5 401 c 128,-1,39
 505 411 505 411 479 418 c 0,40,41
 437 431 437 431 379 431 c 0,42,43
 302 431 302 431 232 402 c 128,-1,44
 162 373 162 373 88 305 c 1,45,-1
 88 479 l 1,46,47
 166 543 166 543 239 570 c 128,-1,48
 312 597 312 597 398 597 c 0,49,50
 444 597 444 597 500.5 583.5 c 128,-1,51
 557 570 557 570 621 543 c 0,52,53
 628 540 628 540 636.5 537 c 128,-1,54
 645 534 645 534 655 525 c 0,55,56
 767 472 767 472 865 472 c 0,57,58
 998 472 998 472 1147 597 c 1,59,-1
 1147 421 l 1,31,32
EndSplineSet
EndChar
StartChar: Delta
Encoding: 8710 8710 168
Width: 1234
VWidth: 3393
Flags: W
HStem: 0 172<249 988>
Fore
512 1425 m 1,0,-1
 722 1425 l 1,1,-1
 1243 0 l 1,2,-1
 -7 0 l 1,3,-1
 512 1425 l 1,0,-1
249 172 m 1,4,-1
 988 172 l 1,5,-1
 618 1221 l 1,6,-1
 249 172 l 1,4,-1
EndSplineSet
EndChar
StartChar: guillemotleft
Encoding: 171 171 169
Width: 1234
VWidth: 3393
Flags: W
HStem: 143 916<587 587 587 587>
VStem: 119 923<560 868 560 560>
Fore
587 868 m 1,0,-1
 288 600 l 1,1,-1
 587 333 l 1,2,-1
 587 143 l 1,3,-1
 119 560 l 1,4,-1
 119 641 l 1,5,-1
 587 1059 l 1,6,-1
 587 868 l 1,0,-1
1042 868 m 1,7,-1
 744 600 l 1,8,-1
 1042 333 l 1,9,-1
 1042 143 l 1,10,-1
 573 560 l 1,11,-1
 573 641 l 1,12,-1
 1042 1059 l 1,13,-1
 1042 868 l 1,7,-1
EndSplineSet
EndChar
StartChar: guillemotright
Encoding: 187 187 170
Width: 1234
VWidth: 3393
Flags: W
HStem: 143 916<648 648 648 648>
VStem: 194 923<143 641 143 143>
Fore
1117 641 m 1,0,-1
 1117 560 l 1,1,-1
 648 143 l 1,2,-1
 648 333 l 1,3,-1
 949 600 l 1,4,-1
 648 868 l 1,5,-1
 648 1059 l 1,6,-1
 1117 641 l 1,0,-1
661 641 m 1,7,-1
 661 560 l 1,8,-1
 194 143 l 1,9,-1
 194 333 l 1,10,-1
 495 600 l 1,11,-1
 194 868 l 1,12,-1
 194 1059 l 1,13,-1
 661 641 l 1,7,-1
EndSplineSet
EndChar
StartChar: ellipsis
Encoding: 8230 8230 171
Width: 1234
VWidth: 3393
Flags: W
HStem: 0 305<81 333 489 744 900 1153>
VStem: 81 252<0 305> 489 255<0 305> 900 253<0 305>
Fore
333 305 m 1,0,-1
 333 0 l 1,1,-1
 81 0 l 1,2,-1
 81 305 l 1,3,-1
 333 305 l 1,0,-1
1153 305 m 1,4,-1
 1153 0 l 1,5,-1
 900 0 l 1,6,-1
 900 305 l 1,7,-1
 1153 305 l 1,4,-1
744 305 m 1,8,-1
 744 0 l 1,9,-1
 489 0 l 1,10,-1
 489 305 l 1,11,-1
 744 305 l 1,8,-1
EndSplineSet
EndChar
StartChar: OE
Encoding: 338 338 176
Width: 1234
VWidth: 3393
Flags: W
HStem: 0 169<415.172 651 848 1218> 713 169<848 1178> 1324 169<415.172 651 848 1208>
VStem: 71 204<342.757 1154.3> 651 197<169 713 882 1324>
Fore
1218 0 m 1,0,-1
 615 0 l 2,1,2
 315 0 315 0 194 166 c 0,3,4
 71 336 71 336 71 747 c 0,5,6
 71 1163 71 1163 194 1327 c 0,7,8
 315 1493 315 1493 615 1493 c 2,9,-1
 1208 1493 l 1,10,-1
 1208 1324 l 1,11,-1
 848 1324 l 1,12,-1
 848 882 l 1,13,-1
 1178 882 l 1,14,-1
 1178 713 l 1,15,-1
 848 713 l 1,16,-1
 848 169 l 1,17,-1
 1218 169 l 1,18,-1
 1218 0 l 1,0,-1
590 1324 m 1,19,20
 414 1324 414 1324 343 1208 c 0,21,22
 275 1092 275 1092 275 747 c 256,23,24
 275 401 275 401 343 285 c 0,25,26
 414 169 414 169 590 169 c 2,27,-1
 651 169 l 1,28,-1
 651 1324 l 1,29,-1
 590 1324 l 1,19,20
EndSplineSet
EndChar
StartChar: oe
Encoding: 339 339 177
Width: 1234
VWidth: 3393
Flags: W
HStem: -30 153<260.443 487.57 793.44 1065.09> 515 143<719 1049> 998 149<259.782 488.388 772.552 985.947>
VStem: 13 178<204.416 915.381> 557 162<209.786 515 658 907.108> 1049 162<658 931.837>
Fore
1049 716 m 2,0,1
 1049 998 1049 998 882 998 c 0,2,3
 794 998 794 998 756.5 930 c 128,-1,4
 719 862 719 862 719 703 c 2,5,-1
 719 658 l 1,6,-1
 1049 658 l 1,7,-1
 1049 716 l 2,0,1
373 123 m 0,8,9
 476 123 476 123 515 207 c 0,10,11
 557 295 557 295 557 529 c 0,12,13
 557 819 557 819 519 910 c 0,14,15
 479 998 479 998 373 998 c 0,16,17
 275 998 275 998 230 913 c 0,18,19
 191 832 191 832 191 560 c 256,20,21
 191 288 191 288 230 207 c 0,22,23
 275 123 275 123 373 123 c 0,8,9
719 515 m 1,24,-1
 719 431 l 2,25,26
 719 268 719 268 769 195.5 c 128,-1,27
 819 123 819 123 930 123 c 0,28,29
 1092 123 1092 123 1188 227 c 1,30,-1
 1188 55 l 1,31,32
 1130 10 1130 10 1068.5 -10 c 128,-1,33
 1007 -30 1007 -30 930 -30 c 0,34,35
 736 -30 736 -30 638 104 c 1,36,37
 537 -30 537 -30 373 -30 c 0,38,39
 187 -30 187 -30 98 109 c 0,40,41
 13 244 13 244 13 560 c 256,42,43
 13 875 13 875 98 1011 c 256,44,45
 184 1147 184 1147 373 1147 c 0,46,47
 547 1147 547 1147 638 1021 c 1,48,49
 713 1147 713 1147 893 1147 c 256,50,51
 1072 1147 1072 1147 1140 1029 c 0,52,53
 1211 913 1211 913 1211 605 c 2,54,-1
 1211 515 l 1,55,-1
 719 515 l 1,24,-1
EndSplineSet
EndChar
StartChar: endash
Encoding: 8211 8211 178
Width: 1234
VWidth: 3393
Flags: W
HStem: 492 143<0 1234>
Fore
1234 635 m 1,0,-1
 1234 492 l 1,1,-1
 0 492 l 1,2,-1
 0 635 l 1,3,-1
 1234 635 l 1,0,-1
EndSplineSet
EndChar
StartChar: emdash
Encoding: 8212 8212 179
Width: 1234
VWidth: 3393
Flags: W
HStem: 492 143<0 1234>
Fore
1234 635 m 1,0,-1
 1234 492 l 1,1,-1
 0 492 l 1,2,-1
 0 635 l 1,3,-1
 1234 635 l 1,0,-1
EndSplineSet
EndChar
StartChar: quotedblleft
Encoding: 8220 8220 180
Width: 1234
VWidth: 3393
Flags: W
HStem: 968 590<411 466 868 926>
VStem: 210 256<968 1175> 673 253<968 1175>
Fore
673 968 m 1,0,-1
 673 1175 l 1,1,-1
 868 1558 l 1,2,-1
 1021 1558 l 1,3,-1
 926 1175 l 1,4,-1
 926 968 l 1,5,-1
 673 968 l 1,0,-1
210 968 m 1,6,-1
 210 1175 l 1,7,-1
 411 1558 l 1,8,-1
 563 1558 l 1,9,-1
 466 1175 l 1,10,-1
 466 968 l 1,11,-1
 210 968 l 1,6,-1
EndSplineSet
EndChar
StartChar: quotedblright
Encoding: 8221 8221 181
Width: 1234
VWidth: 3393
Flags: W
HStem: 968 590<308 366 771 825>
VStem: 308 252<1350 1558> 771 250<1350 1558>
Fore
1021 1558 m 1,0,-1
 1021 1350 l 1,1,-1
 825 968 l 1,2,-1
 673 968 l 1,3,-1
 771 1350 l 1,4,-1
 771 1558 l 1,5,-1
 1021 1558 l 1,0,-1
560 1558 m 1,6,-1
 560 1350 l 1,7,-1
 366 968 l 1,8,-1
 210 968 l 1,9,-1
 308 1350 l 1,10,-1
 308 1558 l 1,11,-1
 560 1558 l 1,6,-1
EndSplineSet
EndChar
StartChar: quoteleft
Encoding: 8216 8216 182
Width: 1234
VWidth: 3393
Flags: W
HStem: 968 590<658 716>
VStem: 466 250<968 1175>
Fore
466 968 m 1,0,-1
 466 1175 l 1,1,-1
 658 1558 l 1,2,-1
 815 1558 l 1,3,-1
 716 1175 l 1,4,-1
 716 968 l 1,5,-1
 466 968 l 1,0,-1
EndSplineSet
EndChar
StartChar: quoteright
Encoding: 8217 8217 183
Width: 1234
VWidth: 3393
Flags: W
HStem: 968 590<560 618>
VStem: 560 255<1350 1558>
Fore
815 1558 m 1,0,-1
 815 1350 l 1,1,-1
 618 968 l 1,2,-1
 466 968 l 1,3,-1
 560 1350 l 1,4,-1
 560 1558 l 1,5,-1
 815 1558 l 1,0,-1
EndSplineSet
EndChar
StartChar: divide
Encoding: 247 247 184
Width: 1234
VWidth: 3393
Flags: W
HStem: 149 249<495 739> 557 169<88 1147> 890 247<495 739>
VStem: 495 244<149 398 890 1137>
Fore
739 398 m 1,0,-1
 739 149 l 1,1,-1
 495 149 l 1,2,-1
 495 398 l 1,3,-1
 739 398 l 1,0,-1
739 1137 m 1,4,-1
 739 890 l 1,5,-1
 495 890 l 1,6,-1
 495 1137 l 1,7,-1
 739 1137 l 1,4,-1
1147 726 m 1,8,-1
 1147 557 l 1,9,-1
 88 557 l 1,10,-1
 88 726 l 1,11,-1
 1147 726 l 1,8,-1
EndSplineSet
EndChar
StartChar: lozenge
Encoding: 9674 9674 185
Width: 1234
VWidth: 3393
Flags: W
VStem: 119 998<593 593 593 593>
Fore
230 593 m 1,0,-1
 618 -234 l 1,1,-1
 1001 593 l 1,2,-1
 618 1412 l 1,3,-1
 230 593 l 1,0,-1
1117 593 m 1,4,-1
 618 -479 l 1,5,-1
 119 593 l 1,6,-1
 618 1655 l 1,7,-1
 1117 593 l 1,4,-1
EndSplineSet
EndChar
StartChar: fraction
Encoding: 8725 8725 188
Width: 1234
VWidth: 3393
Flags: W
HStem: 1473 20G<906.653 1107>
VStem: 129 978<-191 1493 -191 -191>
Fore
1107 1493 m 1,0,-1
 320 -191 l 1,1,-1
 129 -191 l 1,2,-1
 916 1493 l 1,3,-1
 1107 1493 l 1,0,-1
EndSplineSet
EndChar
StartChar: currency
Encoding: 164 164 189
Width: 1234
VWidth: 3393
Flags: W
HStem: 302 126<519.846 788.51> 858 126<524.291 784.289>
VStem: 312 125<510.889 771.19> 868 126<508.914 774.743>
Fore
868 645 m 256,0,1
 868 732 868 732 807 794 c 0,2,3
 744 858 744 858 655 858 c 256,4,5
 567 858 567 858 502 794 c 0,6,7
 437 732 437 732 437 645 c 0,8,9
 437 550 437 550 502 489 c 0,10,11
 563 428 563 428 655 428 c 256,12,13
 747 428 747 428 807 489 c 0,14,15
 868 557 868 557 868 645 c 256,0,1
1011 1092 m 1,16,-1
 1104 998 l 1,17,-1
 936 832 l 1,18,19
 994 732 994 732 994 641 c 0,20,21
 994 547 994 547 933 454 c 1,22,-1
 1104 288 l 1,23,-1
 1007 197 l 1,24,-1
 842 363 l 1,25,26
 751 302 751 302 655 302 c 256,27,28
 560 302 560 302 462 360 c 1,29,-1
 298 197 l 1,30,-1
 204 285 l 1,31,-1
 370 451 l 1,32,33
 312 547 312 547 312 641 c 0,34,35
 312 739 312 739 373 832 c 1,36,-1
 204 998 l 1,37,-1
 298 1092 l 1,38,-1
 466 923 l 1,39,40
 557 984 557 984 655 984 c 0,41,42
 739 984 739 984 845 926 c 1,43,-1
 1011 1092 l 1,16,-1
EndSplineSet
EndChar
StartChar: guilsinglleft
Encoding: 8249 8249 190
Width: 1234
VWidth: 3393
Flags: W
HStem: 143 916<815 815 815 815>
VStem: 346 469<560 868 560 560>
Fore
815 868 m 1,0,-1
 515 600 l 1,1,-1
 815 333 l 1,2,-1
 815 143 l 1,3,-1
 346 560 l 1,4,-1
 346 641 l 1,5,-1
 815 1059 l 1,6,-1
 815 868 l 1,0,-1
EndSplineSet
EndChar
StartChar: guilsinglright
Encoding: 8250 8250 191
Width: 1234
VWidth: 3393
Flags: W
HStem: 143 916<421 421 421 421>
VStem: 421 469<143 641 143 143>
Fore
890 641 m 1,0,-1
 890 560 l 1,1,-1
 421 143 l 1,2,-1
 421 333 l 1,3,-1
 722 600 l 1,4,-1
 421 868 l 1,5,-1
 421 1059 l 1,6,-1
 890 641 l 1,0,-1
EndSplineSet
EndChar
StartChar: fi
Encoding: 64257 64257 192
Width: 1234
VWidth: 3393
Flags: W
HStem: 0 21G<237 421 896 1079> 978 142<33 237 421 896> 1324 230<896 1079> 1405 153<458.326 777>
VStem: 237 184<0 978 1120 1362.64> 896 183<0 978 1324 1554>
Fore
1079 1554 m 1,0,-1
 1079 1324 l 1,1,-1
 896 1324 l 1,2,-1
 896 1554 l 1,3,-1
 1079 1554 l 1,0,-1
777 1405 m 1,4,-1
 597 1405 l 2,5,6
 499 1405 499 1405 457 1364 c 0,7,8
 421 1321 421 1321 421 1221 c 2,9,-1
 421 1120 l 1,10,-1
 1079 1120 l 1,11,-1
 1079 0 l 1,12,-1
 896 0 l 1,13,-1
 896 978 l 1,14,-1
 421 978 l 1,15,-1
 421 0 l 1,16,-1
 237 0 l 1,17,-1
 237 978 l 1,18,-1
 33 978 l 1,19,-1
 33 1120 l 1,20,-1
 237 1120 l 1,21,-1
 237 1198 l 2,22,23
 237 1385 237 1385 320.5 1471.5 c 128,-1,24
 404 1558 404 1558 583 1558 c 2,25,-1
 777 1558 l 1,26,-1
 777 1405 l 1,4,-1
EndSplineSet
Ligature2: "'liga' Standard Ligatures in Latin lookup 19 subtable" f i
EndChar
StartChar: fl
Encoding: 64258 64258 193
Width: 1234
VWidth: 3393
Flags: W
HStem: 0 21G<237 421 896 1079> 978 142<33 237 421 713> 1405 153<458.326 896>
VStem: 237 184<0 978 1120 1362.64> 896 183<0 1405>
Fore
1079 0 m 1,0,-1
 896 0 l 1,1,-1
 896 1405 l 1,2,-1
 597 1405 l 2,3,4
 499 1405 499 1405 457 1364 c 0,5,6
 421 1321 421 1321 421 1221 c 2,7,-1
 421 1120 l 1,8,-1
 713 1120 l 1,9,-1
 713 978 l 1,10,-1
 421 978 l 1,11,-1
 421 0 l 1,12,-1
 237 0 l 1,13,-1
 237 978 l 1,14,-1
 33 978 l 1,15,-1
 33 1120 l 1,16,-1
 237 1120 l 1,17,-1
 237 1198 l 2,18,19
 237 1385 237 1385 320.5 1471.5 c 128,-1,20
 404 1558 404 1558 583 1558 c 2,21,-1
 1079 1558 l 1,22,-1
 1079 0 l 1,0,-1
EndSplineSet
Ligature2: "'liga' Standard Ligatures in Latin lookup 19 subtable" f l
EndChar
StartChar: daggerdbl
Encoding: 8225 8225 194
Width: 1234
VWidth: 3393
Flags: W
HStem: 224 152<162 529 706 1072> 920 155<162 529 706 1072> 1473 20G<529 706>
VStem: 529 177<-197 224 376 920 1075 1493>
Fore
706 224 m 1,0,-1
 706 -197 l 1,1,-1
 529 -197 l 1,2,-1
 529 224 l 1,3,-1
 162 224 l 1,4,-1
 162 376 l 1,5,-1
 529 376 l 1,6,-1
 529 920 l 1,7,-1
 162 920 l 1,8,-1
 162 1075 l 1,9,-1
 529 1075 l 1,10,-1
 529 1493 l 1,11,-1
 706 1493 l 1,12,-1
 706 1075 l 1,13,-1
 1072 1075 l 1,14,-1
 1072 920 l 1,15,-1
 706 920 l 1,16,-1
 706 376 l 1,17,-1
 1072 376 l 1,18,-1
 1072 224 l 1,19,-1
 706 224 l 1,0,-1
EndSplineSet
EndChar
StartChar: periodcentered
Encoding: 183 183 195
Width: 1234
VWidth: 3393
Flags: W
HStem: 560 305<489 744>
VStem: 489 255<560 865>
Fore
744 865 m 1,0,-1
 744 560 l 1,1,-1
 489 560 l 1,2,-1
 489 865 l 1,3,-1
 744 865 l 1,0,-1
EndSplineSet
EndChar
StartChar: quotesinglbase
Encoding: 8218 8218 196
Width: 1234
VWidth: 3393
Flags: W
HStem: -288 590<502 557>
VStem: 502 252<94 302>
Fore
754 302 m 1,0,-1
 754 94 l 1,1,-1
 557 -288 l 1,2,-1
 404 -288 l 1,3,-1
 502 94 l 1,4,-1
 502 302 l 1,5,-1
 754 302 l 1,0,-1
EndSplineSet
EndChar
StartChar: quotedblbase
Encoding: 8222 8222 197
Width: 1234
VWidth: 3393
Flags: W
HStem: -288 590<308 366 771 825>
VStem: 308 252<94 302> 771 250<94 302>
Fore
1021 302 m 1,0,-1
 1021 94 l 1,1,-1
 825 -288 l 1,2,-1
 673 -288 l 1,3,-1
 771 94 l 1,4,-1
 771 302 l 1,5,-1
 1021 302 l 1,0,-1
560 302 m 1,6,-1
 560 94 l 1,7,-1
 366 -288 l 1,8,-1
 210 -288 l 1,9,-1
 308 94 l 1,10,-1
 308 302 l 1,11,-1
 560 302 l 1,6,-1
EndSplineSet
EndChar
StartChar: perthousand
Encoding: 8240 8240 198
Width: 1234
VWidth: 3393
Flags: W
HStem: 0 123<216.601 445.117 830.664 1062.59> 454 123<215.764 440.15 829.848 1059.12> 858 123<172.985 399.99> 1314 118<176.096 396.687>
VStem: 0 123<1031.73 1261> 45 121<172.985 404.115> 454 119<1035.79 1256.85> 495 123<173.305 399.99> 658 122<173.734 403.366> 1114 120<174.381 399.228>
Fore
33 664 m 1,0,-1
 1079 1079 l 1,1,-1
 1120 984 l 1,2,-1
 71 567 l 1,3,-1
 33 664 l 1,0,-1
166 288 m 256,4,5
 166 224 166 224 214 169 c 0,6,7
 258 123 258 123 330 123 c 256,8,9
 401 123 401 123 447 169 c 256,10,11
 495 217 495 217 495 288 c 0,12,13
 495 356 495 356 447 404 c 0,14,15
 398 454 398 454 330 454 c 0,16,17
 258 454 258 454 214 408 c 0,18,19
 166 353 166 353 166 288 c 256,4,5
45 288 m 0,20,21
 45 411 45 411 126 492 c 0,22,23
 217 577 217 577 330 577 c 0,24,25
 447 577 447 577 534 492 c 256,26,27
 618 408 618 408 618 288 c 256,28,29
 618 169 618 169 534 85 c 0,30,31
 451 0 451 0 330 0 c 0,32,33
 214 0 214 0 126 81 c 0,34,35
 45 169 45 169 45 288 c 0,20,21
123 1147 m 256,36,37
 123 1075 123 1075 169 1029 c 0,38,39
 224 981 224 981 288 981 c 0,40,41
 356 981 356 981 404 1029 c 0,42,43
 454 1079 454 1079 454 1147 c 0,44,45
 454 1211 454 1211 404 1263 c 256,46,47
 353 1314 353 1314 288 1314 c 0,48,49
 220 1314 220 1314 169 1263 c 0,50,51
 123 1218 123 1218 123 1147 c 256,36,37
0 1147 m 256,52,53
 0 1266 0 1266 81 1350 c 0,54,55
 169 1432 169 1432 288 1432 c 256,56,57
 408 1432 408 1432 492 1350 c 0,58,59
 573 1266 573 1266 573 1147 c 256,60,61
 573 1029 573 1029 492 940 c 0,62,63
 408 858 408 858 288 858 c 256,64,65
 169 858 169 858 81 940 c 0,66,67
 0 1029 0 1029 0 1147 c 256,52,53
780 288 m 256,68,69
 780 224 780 224 828 169 c 0,70,71
 875 123 875 123 946 123 c 256,72,73
 1017 123 1017 123 1065 169 c 0,74,75
 1114 224 1114 224 1114 288 c 0,76,77
 1114 356 1114 356 1065 404 c 0,78,79
 1014 454 1014 454 946 454 c 0,80,81
 875 454 875 454 828 408 c 0,82,83
 780 353 780 353 780 288 c 256,68,69
658 288 m 0,84,85
 658 408 658 408 744 492 c 256,86,87
 828 577 828 577 946 577 c 256,88,89
 1065 577 1065 577 1150 492 c 256,90,91
 1234 408 1234 408 1234 288 c 256,92,93
 1234 169 1234 169 1150 85 c 0,94,95
 1069 0 1069 0 946 0 c 256,96,97
 825 0 825 0 744 81 c 0,98,99
 658 172 658 172 658 288 c 0,84,85
EndSplineSet
EndChar
StartChar: dotlessi
Encoding: 305 305 214
Width: 1234
VWidth: 3393
Flags: W
HStem: 0 143<181 543 726 1092 181 1092 181 181> 978 142<258 543>
VStem: 543 183<143 978>
Fore
726 1120 m 1,0,-1
 726 143 l 1,1,-1
 1092 143 l 1,2,-1
 1092 0 l 1,3,-1
 181 0 l 1,4,-1
 181 143 l 1,5,-1
 543 143 l 1,6,-1
 543 978 l 1,7,-1
 258 978 l 1,8,-1
 258 1120 l 1,9,-1
 726 1120 l 1,0,-1
EndSplineSet
EndChar
StartChar: circumflex
Encoding: 710 710 215
Width: 1234
VWidth: 3393
Flags: W
HStem: 1263 376<693 936 693 693>
VStem: 298 638<1263 1263 1263 1263>
Fore
693 1639 m 1,0,-1
 936 1263 l 1,1,-1
 797 1263 l 1,2,-1
 618 1510 l 1,3,-1
 437 1263 l 1,4,-1
 298 1263 l 1,5,-1
 543 1639 l 1,6,-1
 693 1639 l 1,0,-1
EndSplineSet
EndChar
StartChar: tilde
Encoding: 732 732 216
Width: 1234
VWidth: 3393
Flags: W
HStem: 1311 127<676.63 804.661> 1466 126<430.541 558.17>
VStem: 288 123<1311 1454.87> 822 124<1509.14 1592>
Fore
557 1425 m 2,0,1
 512 1466 512 1466 489 1466 c 0,2,3
 414 1466 414 1466 411 1311 c 1,4,-1
 288 1311 l 1,5,6
 288 1445 288 1445 339.5 1518.5 c 128,-1,7
 391 1592 391 1592 482 1592 c 0,8,9
 557 1592 557 1592 621 1531 c 2,10,-1
 679 1476 l 2,11,12
 716 1438 716 1438 747 1438 c 0,13,14
 784 1438 784 1438 803 1474 c 128,-1,15
 822 1510 822 1510 822 1592 c 1,16,-1
 946 1592 l 1,17,18
 946 1460 946 1460 895.5 1385.5 c 128,-1,19
 845 1311 845 1311 754 1311 c 0,20,21
 679 1311 679 1311 615 1370 c 2,22,-1
 557 1425 l 2,0,1
EndSplineSet
EndChar
StartChar: macron
Encoding: 175 175 217
Width: 1234
VWidth: 3393
Flags: W
HStem: 1382 146<320 916 320 916 320 320>
Fore
916 1528 m 1,0,-1
 916 1382 l 1,1,-1
 320 1382 l 1,2,-1
 320 1528 l 1,3,-1
 916 1528 l 1,0,-1
EndSplineSet
EndChar
StartChar: breve
Encoding: 728 728 218
Width: 1234
VWidth: 3393
Flags: W
HStem: 1324 136<475.45 755.813>
VStem: 302 119<1488.95 1597.36> 810 120<1505.1 1609>
Fore
421 1609 m 1,0,1
 447 1460 447 1460 618 1460 c 0,2,3
 784 1460 784 1460 810 1609 c 1,4,-1
 930 1609 l 1,5,6
 910 1324 910 1324 618 1324 c 0,7,8
 330 1324 330 1324 302 1609 c 1,9,-1
 421 1609 l 1,0,1
EndSplineSet
EndChar
StartChar: dotaccent
Encoding: 729 729 219
Width: 1234
VWidth: 3393
Flags: W
HStem: 1350 204<515 719>
VStem: 515 204<1350 1554>
Fore
719 1554 m 1,0,-1
 719 1350 l 1,1,-1
 515 1350 l 1,2,-1
 515 1554 l 1,3,-1
 719 1554 l 1,0,-1
EndSplineSet
EndChar
StartChar: ring
Encoding: 730 730 220
Width: 1234
VWidth: 3393
Flags: W
HStem: 1249 125<508.984 724.825> 1677 121<509.733 725.321>
VStem: 343 123<1414.75 1631.62> 771 122<1420.08 1631.05>
Fore
893 1528 m 0,0,1
 893 1412 893 1412 810 1331 c 0,2,3
 736 1249 736 1249 618 1249 c 0,4,5
 502 1249 502 1249 421 1331 c 0,6,7
 343 1415 343 1415 343 1528 c 0,8,9
 343 1635 343 1635 421 1720 c 0,10,11
 505 1798 505 1798 618 1798 c 0,12,13
 732 1798 732 1798 810 1720 c 0,14,15
 893 1639 893 1639 893 1528 c 0,0,1
771 1528 m 0,16,17
 771 1587 771 1587 726 1632 c 256,18,19
 683 1677 683 1677 618 1677 c 0,20,21
 550 1677 550 1677 509 1632 c 0,22,23
 466 1592 466 1592 466 1528 c 0,24,25
 466 1460 466 1460 509 1415 c 0,26,27
 550 1374 550 1374 618 1374 c 0,28,29
 683 1374 683 1374 726 1418 c 256,30,31
 771 1463 771 1463 771 1528 c 0,16,17
EndSplineSet
EndChar
StartChar: cedilla
Encoding: 184 184 221
Width: 1234
VWidth: 3393
Flags: W
HStem: -398 126<477.829 660.011> -398 398<583 703>
VStem: 398 412<-336.502 -240 -370 -214 -370 -370> 673 137<-257.62 -81.9122>
Fore
703 0 m 1,0,1
 810 -119 810 -119 810 -214 c 0,2,3
 810 -398 810 -398 570 -398 c 0,4,5
 489 -398 489 -398 398 -370 c 1,6,-1
 398 -240 l 1,7,8
 431 -258 431 -258 468 -265 c 128,-1,9
 505 -272 505 -272 553 -272 c 0,10,11
 673 -272 673 -272 673 -181 c 0,12,13
 673 -126 673 -126 583 0 c 1,14,-1
 703 0 l 1,0,1
EndSplineSet
EndChar
StartChar: hungarumlaut
Encoding: 733 733 222
Width: 1234
VWidth: 3393
Flags: W
HStem: 1263 376<482 706 706 706>
Fore
706 1639 m 1,0,-1
 482 1263 l 1,1,-1
 343 1263 l 1,2,-1
 537 1639 l 1,3,-1
 706 1639 l 1,0,-1
1049 1639 m 1,4,-1
 800 1263 l 1,5,-1
 664 1263 l 1,6,-1
 868 1639 l 1,7,-1
 1049 1639 l 1,4,-1
EndSplineSet
EndChar
StartChar: ogonek
Encoding: 731 731 223
Width: 1234
VWidth: 3393
Flags: W
HStem: -398 126<570.508 756.47> -20 20G<475 648>
VStem: 421 139<-258.686 -83.3514>
Fore
648 0 m 1,0,1
 560 -119 560 -119 560 -181 c 0,2,3
 560 -272 560 -272 668 -272 c 0,4,5
 732 -272 732 -272 794 -240 c 1,6,-1
 794 -376 l 1,7,8
 757 -383 757 -383 723 -390.5 c 128,-1,9
 689 -398 689 -398 658 -398 c 0,10,11
 421 -398 421 -398 421 -214 c 0,12,13
 421 -119 421 -119 529 0 c 1,14,-1
 648 0 l 1,0,1
EndSplineSet
EndChar
StartChar: caron
Encoding: 711 711 224
Width: 1234
VWidth: 3393
Flags: W
HStem: 1263 376<298 693 298 298>
VStem: 298 638<1639 1639 1639 1639>
Fore
298 1639 m 1,0,-1
 437 1639 l 1,1,-1
 618 1395 l 1,2,-1
 797 1639 l 1,3,-1
 936 1639 l 1,4,-1
 693 1263 l 1,5,-1
 543 1263 l 1,6,-1
 298 1639 l 1,0,-1
EndSplineSet
EndChar
StartChar: Lslash
Encoding: 321 321 225
Width: 1234
VWidth: 3393
Flags: W
HStem: 0 169<418 1140> 1473 20G<214 418>
VStem: 214 204<169 570 878 1493>
Fore
418 1493 m 1,0,-1
 418 878 l 1,1,-1
 732 1097 l 1,2,-1
 810 988 l 1,3,-1
 418 713 l 1,4,-1
 418 169 l 1,5,-1
 1140 169 l 1,6,-1
 1140 0 l 1,7,-1
 214 0 l 1,8,-1
 214 570 l 1,9,-1
 71 466 l 1,10,-1
 -10 577 l 1,11,-1
 214 732 l 1,12,-1
 214 1493 l 1,13,-1
 418 1493 l 1,0,-1
EndSplineSet
EndChar
StartChar: lslash
Encoding: 322 322 226
Width: 1234
VWidth: 3393
Flags: W
HStem: 0 156<704.15 1036> 1425 143<159 454>
VStem: 454 187<223.872 699 991 1425>
Fore
641 408 m 1,0,1
 641 156 641 156 822 156 c 2,2,-1
 1036 156 l 1,3,-1
 1036 0 l 1,4,-1
 800 0 l 2,5,6
 635 0 635 0 544.5 105 c 128,-1,7
 454 210 454 210 454 408 c 2,8,-1
 454 699 l 1,9,-1
 156 489 l 1,10,-1
 75 600 l 1,11,-1
 454 865 l 1,12,-1
 454 1425 l 1,13,-1
 159 1425 l 1,14,-1
 159 1568 l 1,15,-1
 641 1568 l 1,16,-1
 641 991 l 1,17,-1
 953 1208 l 1,18,-1
 1036 1100 l 1,19,-1
 641 825 l 1,20,-1
 641 408 l 1,0,1
EndSplineSet
EndChar
StartChar: brokenbar
Encoding: 166 166 231
Width: 1234
VWidth: 3393
Flags: W
VStem: 529 174<-350 408 676 1432>
Fore
703 676 m 1,0,-1
 529 676 l 1,1,-1
 529 1432 l 1,2,-1
 703 1432 l 1,3,-1
 703 676 l 1,0,-1
703 -350 m 1,4,-1
 529 -350 l 1,5,-1
 529 408 l 1,6,-1
 703 408 l 1,7,-1
 703 -350 l 1,4,-1
EndSplineSet
EndChar
StartChar: Eth
Encoding: 208 208 232
Width: 1234
VWidth: 3393
Flags: W
HStem: 0 166<340 684.038> 709 149<7 133 340 605> 1327 166<340 685.815>
VStem: 133 207<166 709 858 1327> 893 211<404.336 1093.43>
Fore
437 1493 m 1,0,1
 780 1493 780 1493 942 1313 c 128,-1,2
 1104 1133 1104 1133 1104 747 c 0,3,4
 1104 363 1104 363 940 181 c 0,5,6
 777 0 777 0 437 0 c 2,7,-1
 133 0 l 1,8,-1
 133 709 l 1,9,-1
 7 709 l 1,10,-1
 7 858 l 1,11,-1
 133 858 l 1,12,-1
 133 1493 l 1,13,-1
 437 1493 l 1,0,1
437 166 m 1,14,15
 693 166 693 166 794 292 c 0,16,17
 893 421 893 421 893 747 c 0,18,19
 893 1075 893 1075 794 1201 c 0,20,21
 693 1327 693 1327 437 1327 c 2,22,-1
 340 1327 l 1,23,-1
 340 858 l 1,24,-1
 605 858 l 1,25,-1
 605 709 l 1,26,-1
 340 709 l 1,27,-1
 340 166 l 1,28,-1
 437 166 l 1,14,15
EndSplineSet
EndChar
StartChar: eth
Encoding: 240 240 233
Width: 1234
VWidth: 3393
Flags: W
HStem: -30 156<467.247 769.25> 943 154<470.188 695.469> 1486 20G<874.085 942.531> 1538 20G<298 536.26>
VStem: 136 197<285.583 783.507> 903 194<283.84 768.159>
Fore
719 1327 m 1,0,1
 910 1123 910 1123 1004 926 c 0,2,3
 1097 732 1097 732 1097 537 c 0,4,5
 1097 265 1097 265 971 119 c 0,6,7
 848 -30 848 -30 618 -30 c 0,8,9
 391 -30 391 -30 262 119 c 0,10,11
 136 272 136 272 136 537 c 0,12,13
 136 794 136 794 262 949 c 0,14,15
 386 1097 386 1097 615 1097 c 0,16,17
 648 1097 648 1097 663.5 1097 c 128,-1,18
 679 1097 679 1097 696 1092 c 1,19,20
 661 1140 661 1140 625.5 1182.5 c 128,-1,21
 590 1225 590 1225 553 1273 c 1,22,-1
 275 1181 l 1,23,-1
 244 1276 l 1,24,-1
 482 1357 l 1,25,-1
 298 1558 l 1,26,-1
 519 1558 l 1,27,-1
 645 1412 l 1,28,-1
 936 1506 l 1,29,-1
 968 1408 l 1,30,-1
 719 1327 l 1,0,1
794 920 m 1,31,32
 726 943 726 943 631 943 c 0,33,34
 486 943 486 943 409.5 839.5 c 128,-1,35
 333 736 333 736 333 537 c 0,36,37
 333 340 333 340 406 233 c 128,-1,38
 479 126 479 126 618 126 c 256,39,40
 757 126 757 126 830 233 c 128,-1,41
 903 340 903 340 903 537 c 0,42,43
 903 645 903 645 872 747 c 0,44,45
 848 845 848 845 794 920 c 1,31,32
EndSplineSet
EndChar
StartChar: Thorn
Encoding: 222 222 236
Width: 1234
VWidth: 3393
Flags: W
HStem: 0 21G<200 404> 366 168<404 841.63> 1059 166<404 841.63> 1473 20G<200 404>
VStem: 200 204<0 366 534 1059 1225 1493> 953 215<638.561 955.783>
Fore
404 534 m 1,0,-1
 638 534 l 2,1,2
 953 534 953 534 953 797 c 0,3,4
 953 1059 953 1059 638 1059 c 2,5,-1
 404 1059 l 1,6,-1
 404 534 l 1,0,-1
404 1493 m 1,7,-1
 404 1225 l 1,8,-1
 658 1225 l 2,9,10
 920 1225 920 1225 1044 1119.5 c 128,-1,11
 1168 1014 1168 1014 1168 797 c 0,12,13
 1168 573 1168 573 1044 469.5 c 128,-1,14
 920 366 920 366 658 366 c 2,15,-1
 404 366 l 1,16,-1
 404 0 l 1,17,-1
 200 0 l 1,18,-1
 200 1493 l 1,19,-1
 404 1493 l 1,7,-1
EndSplineSet
EndChar
StartChar: thorn
Encoding: 254 254 237
Width: 1234
VWidth: 3393
Flags: W
HStem: -428 21G<191 376> -30 156<505.027 790.945> 991 156<503.389 788.843>
VStem: 191 185<-428 143 279.002 839.056 978 1568> 916 194<280.367 839.897>
Fore
376 -428 m 1,0,-1
 191 -428 l 1,1,-1
 191 1568 l 1,2,-1
 376 1568 l 1,3,-1
 376 978 l 1,4,5
 469 1147 469 1147 676 1147 c 0,6,7
 878 1147 878 1147 994 991 c 0,8,9
 1110 828 1110 828 1110 557 c 0,10,11
 1110 288 1110 288 994 126 c 0,12,13
 875 -30 875 -30 676 -30 c 0,14,15
 466 -30 466 -30 376 143 c 1,16,-1
 376 -428 l 1,0,-1
916 560 m 0,17,18
 916 991 916 991 648 991 c 0,19,20
 376 991 376 991 376 560 c 0,21,22
 376 126 376 126 648 126 c 0,23,24
 916 126 916 126 916 560 c 0,17,18
EndSplineSet
EndChar
StartChar: minus
Encoding: 8722 8722 238
Width: 1234
VWidth: 3393
Flags: W
HStem: 557 169<88 1147>
Fore
1147 726 m 1,0,-1
 1147 557 l 1,1,-1
 88 557 l 1,2,-1
 88 726 l 1,3,-1
 1147 726 l 1,0,-1
EndSplineSet
EndChar
StartChar: multiply
Encoding: 215 215 239
Width: 1234
VWidth: 3393
Flags: W
HStem: 172 938<265 968 265 265>
VStem: 149 933<991 991 991 991>
Fore
502 641 m 1,0,-1
 149 991 l 1,1,-1
 265 1110 l 1,2,-1
 618 761 l 1,3,-1
 968 1110 l 1,4,-1
 1082 991 l 1,5,-1
 732 641 l 1,6,-1
 1082 292 l 1,7,-1
 968 172 l 1,8,-1
 618 525 l 1,9,-1
 268 172 l 1,10,-1
 149 292 l 1,11,-1
 502 641 l 1,0,-1
EndSplineSet
EndChar
StartChar: onesuperior
Encoding: 185 185 240
Width: 1234
VWidth: 3393
Flags: W
HStem: 668 112<363 567 713 916> 1483 20G<448.676 713>
VStem: 567 146<780 1392>
Fore
567 780 m 1,0,-1
 567 1392 l 1,1,-1
 343 1350 l 1,2,-1
 343 1466 l 1,3,-1
 573 1503 l 1,4,-1
 713 1503 l 1,5,-1
 713 780 l 1,6,-1
 916 780 l 1,7,-1
 916 668 l 1,8,-1
 363 668 l 1,9,-1
 363 780 l 1,10,-1
 567 780 l 1,0,-1
EndSplineSet
EndChar
StartChar: twosuperior
Encoding: 178 178 241
Width: 1234
VWidth: 3393
Flags: W
HStem: 668 116<482 893> 1412 109<383.532 689.006>
VStem: 736 154<1164.98 1369.1>
Fore
893 784 m 1,0,-1
 893 668 l 1,1,-1
 323 668 l 1,2,-1
 323 780 l 1,3,-1
 553 1004 l 2,4,5
 651 1100 651 1100 696 1163 c 0,6,7
 736 1225 736 1225 736 1276 c 0,8,9
 736 1337 736 1337 685.5 1374.5 c 128,-1,10
 635 1412 635 1412 553 1412 c 0,11,12
 457 1412 457 1412 330 1341 c 1,13,-1
 330 1466 l 1,14,15
 451 1521 451 1521 573 1521 c 0,16,17
 716 1521 716 1521 800 1457 c 0,18,19
 890 1389 890 1389 890 1283 c 0,20,21
 890 1228 890 1228 852 1163 c 0,22,23
 832 1137 832 1137 793 1091.5 c 128,-1,24
 754 1046 754 1046 696 988 c 2,25,-1
 482 784 l 1,26,-1
 893 784 l 1,0,-1
EndSplineSet
EndChar
StartChar: threesuperior
Encoding: 179 179 242
Width: 1234
VWidth: 3393
Flags: W
HStem: 655 109<343.85 715.945> 1062 109<489 722.149> 1412 109<423.097 713.495>
VStem: 754 149<1205.89 1377.92> 774 152<816.9 1015.51>
Fore
732 1120 m 1,0,1
 926 1079 926 1079 926 913 c 0,2,3
 926 787 926 787 831 721 c 128,-1,4
 736 655 736 655 557 655 c 0,5,6
 444 655 444 655 326 696 c 1,7,-1
 326 815 l 1,8,9
 466 764 466 764 553 764 c 0,10,11
 655 764 655 764 714.5 804.5 c 128,-1,12
 774 845 774 845 774 913 c 0,13,14
 774 1062 774 1062 553 1062 c 2,15,-1
 489 1062 l 1,16,-1
 489 1171 l 1,17,-1
 560 1171 l 2,18,19
 754 1171 754 1171 754 1292 c 0,20,21
 754 1350 754 1350 706 1381 c 128,-1,22
 658 1412 658 1412 570 1412 c 0,23,24
 522 1412 522 1412 468 1402 c 128,-1,25
 414 1392 414 1392 353 1364 c 1,26,-1
 353 1486 l 1,27,28
 489 1521 489 1521 590 1521 c 0,29,30
 739 1521 739 1521 822 1463 c 0,31,32
 903 1402 903 1402 903 1302 c 0,33,34
 903 1160 903 1160 732 1120 c 1,0,1
EndSplineSet
EndChar
StartChar: dcroat
Encoding: 273 273 255
Width: 1234
VWidth: 3393
Flags: W
HStem: -30 156<444.506 730.864> 991 156<446.415 730.238> 1286 122<553 858 1042 1234> 1538 20G<858 1042>
VStem: 123 197<278.167 838.893> 858 184<0 143 279.002 839.056 978 1286 1408 1558>
Fore
858 1286 m 1,0,-1
 553 1286 l 1,1,-1
 553 1408 l 1,2,-1
 858 1408 l 1,3,-1
 858 1558 l 1,4,-1
 1042 1558 l 1,5,-1
 1042 1408 l 1,6,-1
 1234 1408 l 1,7,-1
 1234 1286 l 1,8,-1
 1042 1286 l 1,9,-1
 1042 0 l 1,10,-1
 858 0 l 1,11,-1
 858 143 l 1,12,13
 764 -30 764 -30 560 -30 c 0,14,15
 360 -30 360 -30 240 129 c 256,16,17
 123 288 123 288 123 563 c 0,18,19
 123 835 123 835 240 991 c 0,20,21
 356 1147 356 1147 560 1147 c 0,22,23
 771 1147 771 1147 858 978 c 1,24,-1
 858 1286 l 1,0,-1
320 560 m 0,25,26
 320 126 320 126 587 126 c 0,27,28
 858 126 858 126 858 560 c 0,29,30
 858 991 858 991 587 991 c 0,31,32
 320 991 320 991 320 560 c 0,25,26
EndSplineSet
EndChar
StartChar: sfthyphen
Encoding: 173 173 256
Width: 1234
VWidth: 3393
Flags: W
HStem: 479 166<356 878 356 878 356 356>
Fore
878 645 m 1,0,-1
 878 479 l 1,1,-1
 356 479 l 1,2,-1
 356 645 l 1,3,-1
 878 645 l 1,0,-1
EndSplineSet
EndChar
StartChar: periodcentered
Encoding: 8729 8729 257
Width: 1234
VWidth: 3393
Flags: W
HStem: 560 305<492 744>
VStem: 492 252<560 865>
Fore
744 865 m 1,0,-1
 744 560 l 1,1,-1
 492 560 l 1,2,-1
 492 865 l 1,3,-1
 744 865 l 1,0,-1
EndSplineSet
EndChar
StartChar: Euro
Encoding: 8364 8364 258
Width: 1234
VWidth: 3393
Flags: W
HStem: -30 163<595.471 943.348> 543 112<85 204 414 716> 842 107<85 204 414 848> 1360 161<597.267 884.85>
VStem: 200 201<363.625 543 655 670.577 670.577 695.467 696.531 820.788 820.788 825.969 825.969 842 949 1128.73>
Fore
210 949 m 1,0,1
 308 1521 308 1521 757 1521 c 0,2,3
 842 1521 842 1521 915 1502 c 128,-1,4
 988 1483 988 1483 1062 1438 c 1,5,-1
 1062 1231 l 1,6,7
 994 1292 994 1292 916 1326 c 128,-1,8
 838 1360 838 1360 761 1360 c 0,9,10
 466 1360 466 1360 414 949 c 1,11,-1
 896 949 l 1,12,-1
 848 842 l 1,13,-1
 404 842 l 1,14,15
 401 822 401 822 401 799.5 c 128,-1,16
 401 777 401 777 401 729 c 0,17,18
 401 713 401 713 402.5 696 c 128,-1,19
 404 679 404 679 404 655 c 1,20,-1
 764 655 l 1,21,-1
 716 543 l 1,22,-1
 414 543 l 1,23,24
 462 133 462 133 761 133 c 0,25,26
 926 133 926 133 1062 262 c 1,27,-1
 1062 55 l 1,28,29
 923 -30 923 -30 757 -30 c 0,30,31
 302 -30 302 -30 210 543 c 1,32,-1
 38 543 l 1,33,-1
 85 655 l 1,34,-1
 204 655 l 1,35,36
 204 673 204 673 200 686 c 1,37,-1
 200 747 l 1,38,-1
 200 810 l 1,39,40
 204 825 204 825 204 842 c 1,41,-1
 38 842 l 1,42,-1
 85 949 l 1,43,-1
 210 949 l 1,0,1
EndSplineSet
EndChar
StartChar: c6459
Encoding: 65539 -1 259
Width: 1234
VWidth: 3393
Flags: W
HStem: 1296 204<320 522 713 913>
VStem: 320 202<1296 1500> 713 200<1296 1500>
Fore
522 1500 m 1,0,-1
 522 1296 l 1,1,-1
 320 1296 l 1,2,-1
 320 1500 l 1,3,-1
 522 1500 l 1,0,-1
913 1500 m 1,4,-1
 913 1296 l 1,5,-1
 713 1296 l 1,6,-1
 713 1500 l 1,7,-1
 913 1500 l 1,4,-1
EndSplineSet
EndChar
StartChar: c6460
Encoding: 65540 -1 260
Width: 1234
VWidth: 3393
Flags: W
HStem: 1263 265<631 858 858 858>
Fore
858 1528 m 1,0,-1
 631 1263 l 1,1,-1
 476 1263 l 1,2,-1
 673 1528 l 1,3,-1
 858 1528 l 1,0,-1
EndSplineSet
EndChar
StartChar: c6461
Encoding: 65541 -1 261
Width: 1234
VWidth: 3393
Flags: W
HStem: 1296 119<724.742 806.349> 1296 217<352.898 414 822 879.527> 1399 114<422.95 512.214>
VStem: 288 126<1296 1392.46>
Fore
557 1370 m 2,0,1
 512 1399 512 1399 489 1399 c 0,2,3
 414 1399 414 1399 414 1302 c 2,4,-1
 414 1296 l 1,5,-1
 288 1296 l 1,6,7
 288 1399 288 1399 339.5 1456 c 128,-1,8
 391 1513 391 1513 476 1513 c 0,9,10
 492 1513 492 1513 508.5 1511.5 c 128,-1,11
 525 1510 525 1510 543 1506 c 256,12,13
 560 1503 560 1503 576.5 1494.5 c 128,-1,14
 593 1486 593 1486 621 1473 c 2,15,-1
 679 1442 l 2,16,17
 726 1415 726 1415 751 1415 c 0,18,19
 780 1415 780 1415 801 1440.5 c 128,-1,20
 822 1466 822 1466 822 1510 c 2,21,-1
 822 1513 l 1,22,-1
 946 1513 l 1,23,24
 943 1415 943 1415 894 1355.5 c 128,-1,25
 845 1296 845 1296 761 1296 c 0,26,27
 744 1296 744 1296 728.5 1297.5 c 128,-1,28
 713 1299 713 1299 696 1302 c 1,29,30
 679 1311 679 1311 660 1317.5 c 128,-1,31
 641 1324 641 1324 615 1337 c 2,32,-1
 557 1370 l 2,0,1
EndSplineSet
EndChar
StartChar: c6468
Encoding: 65542 -1 262
Width: 1234
VWidth: 3393
Flags: W
HStem: 1263 265<376 761 376 376>
Fore
761 1263 m 1,0,-1
 605 1263 l 1,1,-1
 376 1528 l 1,2,-1
 560 1528 l 1,3,-1
 761 1263 l 1,0,-1
EndSplineSet
EndChar
StartChar: c6470
Encoding: 65543 -1 263
Width: 1234
VWidth: 3393
Flags: W
HStem: 1263 268<713 923 713 713>
VStem: 312 611<1263 1263 1263 1263>
Fore
713 1531 m 1,0,-1
 923 1263 l 1,1,-1
 784 1263 l 1,2,-1
 618 1442 l 1,3,-1
 451 1263 l 1,4,-1
 312 1263 l 1,5,-1
 522 1531 l 1,6,-1
 713 1531 l 1,0,-1
EndSplineSet
EndChar
StartChar: c6472
Encoding: 65544 -1 264
Width: 1234
VWidth: 3393
Flags: W
HStem: 1263 268<312 713 312 312>
VStem: 312 611<1531 1531 1531 1531>
Fore
312 1531 m 1,0,-1
 451 1531 l 1,1,-1
 618 1350 l 1,2,-1
 784 1531 l 1,3,-1
 923 1531 l 1,4,-1
 713 1263 l 1,5,-1
 522 1263 l 1,6,-1
 312 1531 l 1,0,-1
EndSplineSet
EndChar
StartChar: c6477
Encoding: 65545 -1 265
Width: 1234
VWidth: 3393
Flags: W
HStem: 505 370<51 1089 1089 1089>
Fore
27 615 m 1,0,-1
 1089 875 l 1,1,-1
 1117 767 l 1,2,-1
 51 505 l 1,3,-1
 27 615 l 1,0,-1
EndSplineSet
EndChar
StartChar: c6478
Encoding: 65546 -1 266
Width: 1234
VWidth: 3393
Flags: W
HStem: 668 835<655 794> 855 113<379 655 794 910 268 910 379 379>
VStem: 655 139<668 855 968 1382>
Fore
794 1503 m 1,0,-1
 794 968 l 1,1,-1
 910 968 l 1,2,-1
 910 855 l 1,3,-1
 794 855 l 1,4,-1
 794 668 l 1,5,-1
 655 668 l 1,6,-1
 655 855 l 1,7,-1
 268 855 l 1,8,-1
 268 978 l 1,9,-1
 631 1503 l 1,10,-1
 794 1503 l 1,0,-1
379 968 m 1,11,-1
 655 968 l 1,12,-1
 655 1382 l 1,13,-1
 379 968 l 1,11,-1
EndSplineSet
EndChar
StartChar: c6475
Encoding: 65547 -1 267
Width: 1234
VWidth: 3393
Flags: W
HStem: 1286 132<462.141 768.17>
VStem: 302 119<1433.35 1517.49>
Fore
421 1531 m 1,0,1
 447 1418 447 1418 618 1418 c 0,2,3
 780 1418 780 1418 810 1531 c 1,4,-1
 930 1531 l 1,5,6
 910 1286 910 1286 618 1286 c 0,7,8
 330 1286 330 1286 302 1531 c 1,9,-1
 421 1531 l 1,0,1
EndSplineSet
EndChar
StartChar: c6476
Encoding: 65548 -1 268
Width: 1234
VWidth: 3393
Flags: W
HStem: 1296 204<515 719>
VStem: 515 204<1296 1500>
Fore
719 1500 m 1,0,-1
 719 1296 l 1,1,-1
 515 1296 l 1,2,-1
 515 1500 l 1,3,-1
 719 1500 l 1,0,-1
EndSplineSet
EndChar
StartChar: uni0E01
Encoding: 3585 3585 270
Width: 1234
VWidth: 3393
Flags: W
HStem: 0 21G<214 363 974 1127> 878 120<249 312> 1195 129<440.051 727.059>
VStem: 113 1014<1023.5 1039 878 936 878 878> 214 149<0 794.681> 974 153<0 1074.47>
Fore
618 1195 m 2,0,1
 519 1195 519 1195 437.5 1154.5 c 128,-1,2
 356 1114 356 1114 288 1046 c 0,3,4
 278 1036 278 1036 266.5 1023.5 c 128,-1,5
 255 1011 255 1011 249 998 c 1,6,-1
 492 998 l 1,7,-1
 492 878 l 1,8,9
 428 858 428 858 395.5 798.5 c 128,-1,10
 363 739 363 739 363 679 c 2,11,-1
 363 0 l 1,12,-1
 214 0 l 1,13,-1
 214 686 l 2,14,15
 214 754 214 754 239.5 796 c 128,-1,16
 265 838 265 838 312 878 c 1,17,-1
 113 878 l 1,18,-1
 113 1072 l 1,19,20
 227 1188 227 1188 340.5 1256 c 128,-1,21
 454 1324 454 1324 625 1324 c 0,22,23
 716 1324 716 1324 806 1301.5 c 128,-1,24
 896 1279 896 1279 967.5 1233.5 c 128,-1,25
 1039 1188 1039 1188 1083 1113.5 c 128,-1,26
 1127 1039 1127 1039 1127 936 c 2,27,-1
 1127 0 l 1,28,-1
 974 0 l 1,29,-1
 974 878 l 2,30,31
 974 1052 974 1052 887 1123.5 c 128,-1,32
 800 1195 800 1195 628 1195 c 2,33,-1
 618 1195 l 2,0,1
EndSplineSet
EndChar
StartChar: uni0E02
Encoding: 3586 3586 271
Width: 1234
VWidth: 3393
Flags: W
HStem: 0 129<611 930> 764 91<317.457 446.755> 1039 91<360.429 453.13> 1208 116<387.623 617.74>
VStem: 162 136<889.682 1017.52> 462 149<129 576.035> 466 107<891.708 1015.04> 686 139<857.235 1137.13> 930 149<129 1311>
Fore
462 437 m 2,0,1
 462 519 462 519 498 588.5 c 128,-1,2
 534 658 534 658 574.5 724 c 128,-1,3
 615 790 615 790 650.5 860 c 128,-1,4
 686 930 686 930 686 1007 c 256,5,6
 686 1085 686 1085 634.5 1146.5 c 128,-1,7
 583 1208 583 1208 502 1208 c 0,8,9
 401 1208 401 1208 360 1123 c 1,10,11
 376 1130 376 1130 411 1130 c 0,12,13
 489 1130 489 1130 531 1081 c 128,-1,14
 573 1032 573 1032 573 961 c 0,15,16
 573 868 573 868 519.5 816 c 128,-1,17
 466 764 466 764 373 764 c 0,18,19
 292 764 292 764 227 816 c 128,-1,20
 162 868 162 868 162 958 c 0,21,22
 162 1110 162 1110 249 1217 c 128,-1,23
 336 1324 336 1324 499 1324 c 0,24,25
 648 1324 648 1324 736.5 1237 c 128,-1,26
 825 1150 825 1150 825 998 c 0,27,28
 825 923 825 923 791 850 c 128,-1,29
 757 777 757 777 718 709 c 128,-1,30
 679 641 679 641 645 578 c 128,-1,31
 611 515 611 515 611 466 c 2,32,-1
 611 129 l 1,33,-1
 930 129 l 1,34,-1
 930 1311 l 1,35,-1
 1079 1311 l 1,36,-1
 1079 0 l 1,37,-1
 462 0 l 1,38,-1
 462 437 l 2,0,1
466 961 m 0,39,40
 466 991 466 991 448.5 1015 c 128,-1,41
 431 1039 431 1039 394 1039 c 256,42,43
 356 1039 356 1039 327 1013.5 c 128,-1,44
 298 988 298 988 298 949 c 256,45,46
 298 913 298 913 322 884 c 128,-1,47
 346 855 346 855 386 855 c 0,48,49
 424 855 424 855 445 889 c 128,-1,50
 466 923 466 923 466 961 c 0,39,40
EndSplineSet
EndChar
StartChar: uni0E03
Encoding: 3587 3587 272
Width: 1234
VWidth: 3393
Flags: W
HStem: 0 129<597 936> 706 104<312.298 415.752> 961 111<317.803 430.333> 1097 128<463.15 533.84> 1168 143<296.51 389.181 612.485 691.286>
VStem: 437 160<129 567.659> 441 112<836.165 941.771> 703 142<914.744 1132.82> 936 149<129 1311>
Fore
437 421 m 2,0,1
 437 502 437 502 478 585 c 128,-1,2
 519 668 519 668 570 750 c 128,-1,3
 621 832 621 832 662 916.5 c 128,-1,4
 703 1001 703 1001 703 1085 c 0,5,6
 703 1114 703 1114 688 1141 c 128,-1,7
 673 1168 673 1168 641 1168 c 0,8,9
 618 1168 618 1168 602.5 1155.5 c 128,-1,10
 587 1143 587 1143 573.5 1131.5 c 128,-1,11
 560 1120 560 1120 544.5 1108.5 c 128,-1,12
 529 1097 529 1097 502 1097 c 0,13,14
 444 1097 444 1097 408.5 1132.5 c 128,-1,15
 373 1168 373 1168 350 1168 c 0,16,17
 312 1168 312 1168 300 1144 c 128,-1,18
 288 1120 288 1120 288 1082 c 2,19,-1
 288 1046 l 1,20,21
 336 1072 336 1072 386 1072 c 0,22,23
 466 1072 466 1072 509.5 1020 c 128,-1,24
 553 968 553 968 553 893 c 0,25,26
 553 810 553 810 497 758 c 128,-1,27
 441 706 441 706 363 706 c 0,28,29
 302 706 302 706 261 736.5 c 128,-1,30
 220 767 220 767 196 814.5 c 128,-1,31
 172 862 172 862 162 918 c 128,-1,32
 152 974 152 974 152 1024 c 0,33,34
 152 1065 152 1065 160.5 1114 c 128,-1,35
 169 1163 169 1163 189.5 1206 c 128,-1,36
 210 1249 210 1249 246 1280 c 128,-1,37
 282 1311 282 1311 333 1311 c 0,38,39
 360 1311 360 1311 387 1297 c 128,-1,40
 414 1283 414 1283 438 1268 c 128,-1,41
 462 1253 462 1253 480.5 1239 c 128,-1,42
 499 1225 499 1225 509 1225 c 0,43,44
 525 1225 525 1225 539 1239 c 128,-1,45
 553 1253 553 1253 568 1271 c 128,-1,46
 583 1289 583 1289 602 1303 c 128,-1,47
 621 1317 621 1317 651 1317 c 0,48,49
 703 1317 703 1317 740 1295 c 128,-1,50
 777 1273 777 1273 799.5 1239 c 128,-1,51
 822 1205 822 1205 833.5 1161 c 128,-1,52
 845 1117 845 1117 845 1072 c 0,53,54
 845 981 845 981 806 894 c 128,-1,55
 767 807 767 807 721.5 726 c 128,-1,56
 676 645 676 645 636.5 570 c 128,-1,57
 597 495 597 495 597 431 c 2,58,-1
 597 129 l 1,59,-1
 936 129 l 1,60,-1
 936 1311 l 1,61,-1
 1085 1311 l 1,62,-1
 1085 0 l 1,63,-1
 437 0 l 1,64,-1
 437 421 l 2,0,1
441 890 m 0,65,66
 441 920 441 920 424.5 940.5 c 128,-1,67
 408 961 408 961 373 961 c 0,68,69
 298 961 298 961 298 893 c 0,70,71
 298 862 298 862 317 836 c 128,-1,72
 336 810 336 810 363 810 c 0,73,74
 398 810 398 810 419.5 832.5 c 128,-1,75
 441 855 441 855 441 890 c 0,65,66
EndSplineSet
EndChar
StartChar: uni0E04
Encoding: 3588 3588 273
Width: 1234
VWidth: 3393
Flags: W
HStem: 0 21G<232 404 949 1100> 512 116<551.716 706.948> 838 115<564.186 709.562> 1198 124<391.584 773.371>
VStem: 98 151<688.34 1056.16> 726 116<664.114 803.734> 949 151<0 1086.71>
Fore
615 1198 m 0,0,1
 424 1198 424 1198 336.5 1115 c 128,-1,2
 249 1032 249 1032 249 824 c 0,3,4
 249 694 249 694 270.5 578 c 128,-1,5
 292 462 292 462 320 333 c 1,6,7
 330 386 330 386 343 461.5 c 128,-1,8
 356 537 356 537 375 615 c 128,-1,9
 394 693 394 693 415.5 762.5 c 128,-1,10
 437 832 437 832 462 875 c 0,11,12
 489 920 489 920 536 936.5 c 128,-1,13
 583 953 583 953 631 953 c 0,14,15
 729 953 729 953 785.5 897.5 c 128,-1,16
 842 842 842 842 842 739 c 0,17,18
 842 651 842 651 785.5 581.5 c 128,-1,19
 729 512 729 512 635 512 c 0,20,21
 557 512 557 512 499 563 c 1,22,23
 486 512 486 512 468.5 442.5 c 128,-1,24
 451 373 451 373 436 298.5 c 128,-1,25
 421 224 421 224 412.5 151 c 128,-1,26
 404 78 404 78 404 23 c 2,27,-1
 404 0 l 1,28,-1
 237 0 l 1,29,30
 227 104 227 104 204 204.5 c 128,-1,31
 181 305 181 305 157 407 c 128,-1,32
 133 509 133 509 115.5 615 c 128,-1,33
 98 721 98 721 98 827 c 0,34,35
 98 1097 98 1097 240.5 1209.5 c 128,-1,36
 383 1322 383 1322 611 1322 c 0,37,38
 703 1322 703 1322 790.5 1302.5 c 128,-1,39
 878 1283 878 1283 947.5 1237 c 128,-1,40
 1017 1191 1017 1191 1058.5 1116 c 128,-1,41
 1100 1041 1100 1041 1100 933 c 2,42,-1
 1100 0 l 1,43,-1
 949 0 l 1,44,-1
 949 910 l 2,45,46
 949 1066 949 1066 863 1132 c 128,-1,47
 777 1198 777 1198 615 1198 c 0,0,1
726 729 m 0,48,49
 726 777 726 777 706 807.5 c 128,-1,50
 686 838 686 838 635 838 c 0,51,52
 593 838 593 838 566.5 802.5 c 128,-1,53
 540 767 540 767 540 729 c 0,54,55
 540 628 540 628 641 628 c 0,56,57
 683 628 683 628 704.5 660.5 c 128,-1,58
 726 693 726 693 726 729 c 0,48,49
EndSplineSet
EndChar
StartChar: uni0E05
Encoding: 3589 3589 274
Width: 1234
VWidth: 3393
Flags: W
HStem: 0 21G<260 415.5 991 1140> 509 126<586.677 727.943> 822 121<589.617 728.108> 1168 149<351.484 489.148 862 906.726>
VStem: 98 154<663.384 932.348> 747 125<669.312 802.548> 991 149<0 968.535>
Fore
673 1069 m 1,0,1
 638 1069 638 1069 609 1084.5 c 128,-1,2
 580 1100 580 1100 554.5 1118.5 c 128,-1,3
 529 1137 529 1137 502.5 1152.5 c 128,-1,4
 476 1168 476 1168 441 1168 c 0,5,6
 391 1168 391 1168 355.5 1134 c 128,-1,7
 320 1100 320 1100 297.5 1050.5 c 128,-1,8
 275 1001 275 1001 263.5 947 c 128,-1,9
 252 893 252 893 252 852 c 0,10,11
 252 719 252 719 283.5 595.5 c 128,-1,12
 315 472 315 472 353 350 c 1,13,14
 370 431 370 431 387 514 c 128,-1,15
 404 597 404 597 421 679 c 0,16,17
 431 726 431 726 446.5 774 c 128,-1,18
 462 822 462 822 487 859 c 128,-1,19
 512 896 512 896 552.5 919.5 c 128,-1,20
 593 943 593 943 655 943 c 0,21,22
 754 943 754 943 813 892.5 c 128,-1,23
 872 842 872 842 872 739 c 0,24,25
 872 648 872 648 809.5 578.5 c 128,-1,26
 747 509 747 509 651 509 c 0,27,28
 577 509 577 509 537 560 c 1,29,-1
 411 0 l 1,30,-1
 265 0 l 1,31,32
 255 113 255 113 226 218 c 128,-1,33
 197 323 197 323 170 426 c 128,-1,34
 143 529 143 529 120.5 634 c 128,-1,35
 98 739 98 739 98 852 c 0,36,37
 98 930 98 930 120.5 1011 c 128,-1,38
 143 1092 143 1092 188.5 1160 c 128,-1,39
 234 1228 234 1228 302 1272.5 c 128,-1,40
 370 1317 370 1317 457 1317 c 0,41,42
 489 1317 489 1317 511.5 1300 c 128,-1,43
 534 1283 534 1283 555.5 1261 c 128,-1,44
 577 1239 577 1239 604 1222 c 128,-1,45
 631 1205 631 1205 664 1205 c 0,46,47
 703 1205 703 1205 735 1222 c 128,-1,48
 767 1239 767 1239 794.5 1261 c 128,-1,49
 822 1283 822 1283 842 1300 c 128,-1,50
 862 1317 862 1317 875 1317 c 0,51,52
 903 1317 903 1317 914.5 1308 c 128,-1,53
 926 1299 926 1299 946 1283 c 0,54,55
 1046 1208 1046 1208 1093 1122 c 128,-1,56
 1140 1036 1140 1036 1140 910 c 2,57,-1
 1140 0 l 1,58,-1
 991 0 l 1,59,-1
 991 893 l 2,60,61
 991 923 991 923 986 970 c 128,-1,62
 981 1017 981 1017 967 1060.5 c 128,-1,63
 953 1104 953 1104 928 1133.5 c 128,-1,64
 903 1163 903 1163 862 1163 c 1,65,-1
 673 1069 l 1,0,1
747 729 m 256,66,67
 747 767 747 767 723 794.5 c 128,-1,68
 699 822 699 822 661 822 c 0,69,70
 621 822 621 822 594 791.5 c 128,-1,71
 567 761 567 761 567 722 c 128,-1,72
 567 683 567 683 594 659 c 128,-1,73
 621 635 621 635 661 635 c 0,74,75
 699 635 699 635 723 664 c 128,-1,76
 747 693 747 693 747 729 c 256,66,67
EndSplineSet
EndChar
StartChar: uni0E06
Encoding: 3590 3590 275
Width: 1234
VWidth: 3393
Flags: W
HStem: -30 124<355.467 433.022> 732 96<266.475 371.061> 984 105<267.463 372.406> 1097 121<439.719 517.516> 1178 143<227.855 314.128 579.339 662.536>
VStem: 98 142<889.187 994.727> 159 149<205.979 352.147> 386 109<854.653 959.446> 441 152<136.592 401 567 631.625> 668 139<942.575 1120.22 1113.12 1127.32 1127.32 1144> 991 149<210 1311>
Fore
988 0 m 1,0,1
 896 94 896 94 799.5 201 c 128,-1,2
 703 308 703 308 593 401 c 1,3,-1
 593 109 l 2,4,5
 593 68 593 68 575 40.5 c 128,-1,6
 557 13 557 13 528 -2 c 128,-1,7
 499 -17 499 -17 463.5 -23.5 c 128,-1,8
 428 -30 428 -30 394 -30 c 0,9,10
 336 -30 336 -30 292.5 -3.5 c 128,-1,11
 249 23 249 23 220 68 c 128,-1,12
 191 113 191 113 175 165 c 128,-1,13
 159 217 159 217 159 268 c 0,14,15
 159 326 159 326 181.5 380 c 128,-1,16
 204 434 204 434 243 474.5 c 128,-1,17
 282 515 282 515 332.5 541 c 128,-1,18
 383 567 383 567 441 567 c 1,19,20
 441 611 441 611 454 655 c 0,21,22
 472 716 472 716 507.5 763 c 128,-1,23
 543 810 543 810 579 856.5 c 128,-1,24
 615 903 615 903 641.5 955 c 128,-1,25
 668 1007 668 1007 668 1082 c 0,26,27
 668 1117 668 1117 661.5 1144 c 128,-1,28
 655 1171 655 1171 615 1171 c 0,29,30
 577 1171 577 1171 544.5 1134 c 128,-1,31
 512 1097 512 1097 486 1097 c 0,32,33
 454 1097 454 1097 429 1110 c 128,-1,34
 404 1123 404 1123 380 1138 c 128,-1,35
 356 1153 356 1153 338 1165.5 c 128,-1,36
 320 1178 320 1178 302 1178 c 0,37,38
 265 1178 265 1178 258.5 1133.5 c 128,-1,39
 252 1089 252 1089 249 1062 c 1,40,41
 292 1089 292 1089 343 1089 c 0,42,43
 421 1089 421 1089 458 1033.5 c 128,-1,44
 495 978 495 978 495 910 c 0,45,46
 495 822 495 822 439 777 c 128,-1,47
 383 732 383 732 302 732 c 0,48,49
 249 732 249 732 210.5 759.5 c 128,-1,50
 172 787 172 787 147.5 829.5 c 128,-1,51
 123 872 123 872 110.5 923 c 128,-1,52
 98 974 98 974 98 1017 c 0,53,54
 98 1049 98 1049 105.5 1101 c 128,-1,55
 113 1153 113 1153 128 1201 c 128,-1,56
 143 1249 143 1249 170 1285 c 128,-1,57
 197 1321 197 1321 240 1321 c 0,58,59
 282 1321 282 1321 314 1305 c 128,-1,60
 346 1289 346 1289 373.5 1269 c 128,-1,61
 401 1249 401 1249 422.5 1233.5 c 128,-1,62
 444 1218 444 1218 466 1218 c 0,63,64
 492 1218 492 1218 510.5 1235.5 c 128,-1,65
 529 1253 529 1253 548 1271 c 128,-1,66
 567 1289 567 1289 586 1306.5 c 128,-1,67
 605 1324 605 1324 635 1324 c 0,68,69
 686 1324 686 1324 720 1300 c 128,-1,70
 754 1276 754 1276 772 1238.5 c 128,-1,71
 790 1201 790 1201 798.5 1157.5 c 128,-1,72
 807 1114 807 1114 807 1069 c 0,73,74
 807 991 807 991 775.5 926.5 c 128,-1,75
 744 862 744 862 702.5 806.5 c 128,-1,76
 661 751 661 751 629 698 c 128,-1,77
 597 645 597 645 597 587 c 2,78,-1
 597 557 l 1,79,80
 713 466 713 466 804.5 385.5 c 128,-1,81
 896 305 896 305 991 210 c 1,82,-1
 991 1311 l 1,83,-1
 1140 1311 l 1,84,-1
 1140 0 l 1,85,-1
 994 0 l 1,86,-1
 988 0 l 1,0,1
386 910 m 0,87,88
 386 936 386 936 366 960 c 128,-1,89
 346 984 346 984 320 984 c 0,90,91
 285 984 285 984 262.5 962 c 128,-1,92
 240 940 240 940 240 906 c 0,93,94
 240 878 240 878 262.5 853 c 128,-1,95
 285 828 285 828 312 828 c 0,96,97
 346 828 346 828 366 853 c 128,-1,98
 386 878 386 878 386 910 c 0,87,88
441 441 m 1,99,100
 379 428 379 428 343.5 374 c 128,-1,101
 308 320 308 320 308 258 c 0,102,103
 308 237 308 237 314 210.5 c 128,-1,104
 320 184 320 184 330 158.5 c 128,-1,105
 340 133 340 133 356.5 113.5 c 128,-1,106
 373 94 373 94 398 94 c 0,107,108
 424 94 424 94 432.5 130 c 128,-1,109
 441 166 441 166 441 184 c 2,110,-1
 441 441 l 1,99,100
EndSplineSet
EndChar
StartChar: uni0E07
Encoding: 3591 3591 276
Width: 1234
VWidth: 3393
Flags: W
HStem: 0 21G<760.55 1042> 865 116<727.048 867.169> 1201 126<727.969 871.244>
VStem: 553 160<994.414 1166.94> 893 149<113 883 1041.48 1131.23>
Fore
893 883 m 1,0,1
 848 865 848 865 804 865 c 0,2,3
 706 865 706 865 629.5 926 c 128,-1,4
 553 987 553 987 553 1090 c 0,5,6
 553 1198 553 1198 624.5 1262.5 c 128,-1,7
 696 1327 696 1327 797 1327 c 0,8,9
 903 1327 903 1327 972.5 1264 c 128,-1,10
 1042 1201 1042 1201 1042 1097 c 2,11,-1
 1042 0 l 1,12,-1
 777 0 l 1,13,-1
 258 631 l 1,14,-1
 447 631 l 1,15,-1
 893 113 l 1,16,-1
 893 883 l 1,0,1
893 1090 m 256,17,18
 893 1130 893 1130 869 1165.5 c 128,-1,19
 845 1201 845 1201 797 1201 c 0,20,21
 747 1201 747 1201 730 1167 c 128,-1,22
 713 1133 713 1133 713 1090 c 0,23,24
 713 981 713 981 815 981 c 0,25,26
 858 981 858 981 875.5 1015 c 128,-1,27
 893 1049 893 1049 893 1090 c 256,17,18
EndSplineSet
EndChar
StartChar: uni0E08
Encoding: 3592 3592 277
Width: 1234
VWidth: 3393
Flags: W
HStem: 0 129<819 926> 437 130<422.642 564.701> 771 129<409.256 563.854> 1181 143<403.097 821.48>
VStem: 258 140<592.373 760.914> 943 157<710.146 1051.86>
Fore
1100 842 m 0,0,1
 1100 825 1100 825 1098.5 807.5 c 128,-1,2
 1097 790 1097 790 1092 774 c 1,3,-1
 1052 0 l 1,4,-1
 693 0 l 1,5,-1
 618 482 l 1,6,7
 557 437 557 437 492 437 c 0,8,9
 386 437 386 437 322 513.5 c 128,-1,10
 258 590 258 590 258 689 c 0,11,12
 258 790 258 790 334.5 845 c 128,-1,13
 411 900 411 900 502 900 c 0,14,15
 573 900 573 900 617 874 c 128,-1,16
 661 848 661 848 687 804.5 c 128,-1,17
 713 761 713 761 726 708 c 128,-1,18
 739 655 739 655 751 597 c 2,19,-1
 819 129 l 1,20,-1
 926 129 l 1,21,22
 933 312 933 312 938 486.5 c 128,-1,23
 943 661 943 661 943 838 c 0,24,25
 943 1004 943 1004 873.5 1092.5 c 128,-1,26
 804 1181 804 1181 631 1181 c 0,27,28
 489 1181 489 1181 356.5 1116.5 c 128,-1,29
 224 1052 224 1052 136 943 c 1,30,-1
 136 1127 l 1,31,32
 224 1234 224 1234 364.5 1279 c 128,-1,33
 505 1324 505 1324 638 1324 c 0,34,35
 882 1324 882 1324 991 1201.5 c 128,-1,36
 1100 1079 1100 1079 1100 842 c 0,0,1
587 668 m 256,37,38
 587 706 587 706 560.5 738.5 c 128,-1,39
 534 771 534 771 492 771 c 0,40,41
 398 771 398 771 398 668 c 0,42,43
 398 631 398 631 426 599 c 128,-1,44
 454 567 454 567 492 567 c 0,45,46
 534 567 534 567 560.5 599 c 128,-1,47
 587 631 587 631 587 668 c 256,37,38
EndSplineSet
EndChar
StartChar: uni0E09
Encoding: 3593 3593 278
Width: 1234
VWidth: 3393
Flags: W
HStem: -30 105<922.679 1051.02> 398 117<248.463 372.022> 699 126<248.4 402.026> 1195 132<505.364 748.042>
VStem: 91 139<534.224 679.716> 401 149<217 418 541.816 689.202> 780 126<111.091 235.062> 936 153<482.425 1065.53> 1065 133<108.495 261.772>
Fore
1198 197 m 0,0,1
 1198 101 1198 101 1136.5 35.5 c 128,-1,2
 1075 -30 1075 -30 981 -30 c 0,3,4
 893 -30 893 -30 836.5 27.5 c 128,-1,5
 780 85 780 85 780 172 c 0,6,7
 780 230 780 230 800 275 c 1,8,9
 716 227 716 227 653 156 c 128,-1,10
 590 85 590 85 547 0 c 1,11,-1
 401 0 l 1,12,-1
 401 418 l 1,13,14
 356 398 356 398 302 398 c 0,15,16
 214 398 214 398 152.5 448.5 c 128,-1,17
 91 499 91 499 91 590 c 0,18,19
 91 696 91 696 157.5 760.5 c 128,-1,20
 224 825 224 825 330 825 c 0,21,22
 457 825 457 825 503.5 746.5 c 128,-1,23
 550 668 550 668 550 557 c 2,24,-1
 550 217 l 1,25,26
 638 302 638 302 691 332.5 c 128,-1,27
 744 363 744 363 777 379 c 0,28,29
 825 408 825 408 880.5 443.5 c 128,-1,30
 936 479 936 479 936 543 c 2,31,-1
 936 865 l 2,32,33
 936 1039 936 1039 851.5 1117 c 128,-1,34
 767 1195 767 1195 597 1195 c 0,35,36
 525 1195 525 1195 449 1171 c 128,-1,37
 373 1147 373 1147 298.5 1109.5 c 128,-1,38
 224 1072 224 1072 156 1026.5 c 128,-1,39
 88 981 88 981 33 933 c 1,40,-1
 33 1130 l 1,41,42
 85 1175 85 1175 151 1210.5 c 128,-1,43
 217 1246 217 1246 291.5 1271 c 128,-1,44
 366 1296 366 1296 442.5 1311.5 c 128,-1,45
 519 1327 519 1327 583 1327 c 0,46,47
 683 1327 683 1327 772.5 1305 c 128,-1,48
 862 1283 862 1283 933 1235.5 c 128,-1,49
 1004 1188 1004 1188 1046.5 1110 c 128,-1,50
 1089 1032 1089 1032 1089 920 c 2,51,-1
 1089 525 l 2,52,53
 1089 489 1089 489 1075.5 456.5 c 128,-1,54
 1062 424 1062 424 1032 401 c 1,55,56
 1107 383 1107 383 1152.5 329 c 128,-1,57
 1198 275 1198 275 1198 197 c 0,0,1
1065 187 m 256,58,59
 1065 224 1065 224 1050.5 258 c 128,-1,60
 1036 292 1036 292 994 292 c 0,61,62
 946 292 946 292 926 261 c 128,-1,63
 906 230 906 230 906 187 c 0,64,65
 906 149 906 149 923 112 c 128,-1,66
 940 75 940 75 988 75 c 256,67,68
 1036 75 1036 75 1050.5 112 c 128,-1,69
 1065 149 1065 149 1065 187 c 256,58,59
411 608 m 0,70,71
 411 699 411 699 315 699 c 0,72,73
 278 699 278 699 254 672 c 128,-1,74
 230 645 230 645 230 608 c 256,75,76
 230 570 230 570 254 542.5 c 128,-1,77
 278 515 278 515 315 515 c 256,78,79
 353 515 353 515 382 541 c 128,-1,80
 411 567 411 567 411 608 c 0,70,71
EndSplineSet
EndChar
StartChar: uni0E0A
Encoding: 3594 3594 279
Width: 1234
VWidth: 3393
Flags: W
HStem: 0 129<512 913> 747 105<249.976 364.056> 1007 107<295.726 373.306> 1205 119<326.679 568.213>
VStem: 98 136<881.322 1055.94> 363 152<129 207.819 207.819 444 444 457 457 579.421> 391 108<868.215 989.366> 611 140<867.566 1158.01> 913 149<129 791.782>
Fore
363 444 m 1,0,1
 363 525 363 525 402 596.5 c 128,-1,2
 441 668 441 668 487.5 736 c 128,-1,3
 534 804 534 804 572.5 872 c 128,-1,4
 611 940 611 940 611 1021 c 0,5,6
 611 1107 611 1107 572.5 1156 c 128,-1,7
 534 1205 534 1205 447 1205 c 0,8,9
 379 1205 379 1205 338.5 1179 c 128,-1,10
 298 1153 298 1153 258 1100 c 1,11,12
 295 1110 295 1110 310.5 1112 c 128,-1,13
 326 1114 326 1114 350 1114 c 0,14,15
 418 1114 418 1114 458.5 1056 c 128,-1,16
 499 998 499 998 499 936 c 0,17,18
 499 848 499 848 446.5 797.5 c 128,-1,19
 394 747 394 747 308 747 c 0,20,21
 200 747 200 747 149 816.5 c 128,-1,22
 98 886 98 886 98 988 c 0,23,24
 98 1140 98 1140 195 1232 c 128,-1,25
 292 1324 292 1324 444 1324 c 0,26,27
 611 1324 611 1324 681 1249.5 c 128,-1,28
 751 1175 751 1175 751 1001 c 0,29,30
 751 920 751 920 713.5 850 c 128,-1,31
 676 780 676 780 633 714 c 128,-1,32
 590 648 590 648 552.5 581.5 c 128,-1,33
 515 515 515 515 515 444 c 0,34,35
 515 363 515 363 515 286.5 c 128,-1,36
 515 210 515 210 512 129 c 1,37,-1
 913 129 l 1,38,-1
 913 719 l 2,39,40
 913 754 913 754 908 793 c 128,-1,41
 903 832 903 832 889 866 c 128,-1,42
 875 900 875 900 848.5 923 c 128,-1,43
 822 946 822 946 780 953 c 1,44,-1
 780 1065 l 1,45,46
 886 1114 886 1114 937 1183.5 c 128,-1,47
 988 1253 988 1253 988 1370 c 1,48,-1
 1160 1370 l 1,49,-1
 1160 1341 l 2,50,51
 1160 1299 1160 1299 1138.5 1245 c 128,-1,52
 1117 1191 1117 1191 1081.5 1141.5 c 128,-1,53
 1046 1092 1046 1092 1003.5 1054.5 c 128,-1,54
 961 1017 961 1017 916 1007 c 1,55,56
 991 981 991 981 1026.5 900 c 128,-1,57
 1062 819 1062 819 1062 744 c 2,58,-1
 1062 0 l 1,59,-1
 363 0 l 1,60,-1
 363 457 l 1,61,-1
 363 444 l 1,0,1
391 926 m 256,62,63
 391 958 391 958 367 982.5 c 128,-1,64
 343 1007 343 1007 312 1007 c 0,65,66
 285 1007 285 1007 259.5 987.5 c 128,-1,67
 234 968 234 968 234 940 c 0,68,69
 234 903 234 903 256 877.5 c 128,-1,70
 278 852 278 852 312 852 c 0,71,72
 343 852 343 852 367 874 c 128,-1,73
 391 896 391 896 391 926 c 256,62,63
EndSplineSet
EndChar
StartChar: uni0E0B
Encoding: 3595 3595 280
Width: 1234
VWidth: 3393
Flags: W
HStem: 0 129<512 910> 726 102<249.719 366.029> 981 101<250.31 364.326> 1178 143<226.463 303.273 518.279 595.684>
VStem: 85 132<1049 1085.05 1085.05 1085.95 1085.95 1120 1135 1173.69> 360 152<129 582.811> 379 103<852.029 954.532> 605 131<884.738 1080.32 1064.42 1096.21 1096.21 1125> 910 152<129 794.689>
Fore
736 1014 m 0,0,1
 736 933 736 933 700 861.5 c 128,-1,2
 664 790 664 790 623.5 722.5 c 128,-1,3
 583 655 583 655 547.5 585 c 128,-1,4
 512 515 512 515 512 437 c 2,5,-1
 512 129 l 1,6,-1
 910 129 l 1,7,-1
 910 719 l 2,8,9
 910 754 910 754 903 796 c 128,-1,10
 896 838 896 838 880.5 874 c 128,-1,11
 865 910 865 910 836 934 c 128,-1,12
 807 958 807 958 764 958 c 1,13,-1
 764 1065 l 1,14,15
 865 1114 865 1114 928 1183.5 c 128,-1,16
 991 1253 991 1253 991 1370 c 1,17,-1
 1160 1370 l 1,18,-1
 1160 1337 l 2,19,20
 1160 1296 1160 1296 1138.5 1245.5 c 128,-1,21
 1117 1195 1117 1195 1081.5 1146 c 128,-1,22
 1046 1097 1046 1097 1003.5 1060.5 c 128,-1,23
 961 1024 961 1024 916 1014 c 1,24,25
 991 984 991 984 1026.5 901.5 c 128,-1,26
 1062 819 1062 819 1062 747 c 2,27,-1
 1062 0 l 1,28,-1
 360 0 l 1,29,-1
 360 447 l 2,30,31
 360 529 360 529 398.5 602.5 c 128,-1,32
 437 676 437 676 483 747.5 c 128,-1,33
 529 819 529 819 567 890 c 128,-1,34
 605 961 605 961 605 1042 c 0,35,36
 605 1079 605 1079 596 1125 c 128,-1,37
 587 1171 587 1171 537 1171 c 0,38,39
 515 1171 515 1171 505 1159 c 128,-1,40
 495 1147 495 1147 485.5 1132 c 128,-1,41
 476 1117 476 1117 463.5 1104.5 c 128,-1,42
 451 1092 451 1092 431 1092 c 0,43,44
 408 1092 408 1092 389 1106 c 128,-1,45
 370 1120 370 1120 353 1135 c 128,-1,46
 336 1150 336 1150 322 1164 c 128,-1,47
 308 1178 308 1178 292 1178 c 0,48,49
 237 1178 237 1178 227 1135 c 128,-1,50
 217 1092 217 1092 217 1049 c 1,51,52
 275 1082 275 1082 330 1082 c 0,53,54
 398 1082 398 1082 440 1035 c 128,-1,55
 482 988 482 988 482 920 c 0,56,57
 482 838 482 838 430.5 782 c 128,-1,58
 379 726 379 726 298 726 c 0,59,60
 240 726 240 726 199.5 755 c 128,-1,61
 159 784 159 784 134 828 c 128,-1,62
 109 872 109 872 97 926.5 c 128,-1,63
 85 981 85 981 85 1029 c 0,64,65
 85 1069 85 1069 93 1120 c 128,-1,66
 101 1171 101 1171 122 1215 c 128,-1,67
 143 1259 143 1259 176.5 1290 c 128,-1,68
 210 1321 210 1321 262 1321 c 0,69,70
 292 1321 292 1321 312.5 1303.5 c 128,-1,71
 333 1286 333 1286 348 1267.5 c 128,-1,72
 363 1249 363 1249 382 1232 c 128,-1,73
 401 1215 401 1215 424 1215 c 0,74,75
 444 1215 444 1215 458 1232 c 128,-1,76
 472 1249 472 1249 485.5 1267.5 c 128,-1,77
 499 1286 499 1286 516.5 1303.5 c 128,-1,78
 534 1321 534 1321 563 1321 c 0,79,80
 625 1321 625 1321 659 1290 c 128,-1,81
 693 1259 693 1259 711 1213.5 c 128,-1,82
 729 1168 729 1168 732.5 1115 c 128,-1,83
 736 1062 736 1062 736 1014 c 0,0,1
379 906 m 0,84,85
 379 933 379 933 357.5 957 c 128,-1,86
 336 981 336 981 308 981 c 0,87,88
 275 981 275 981 256 958.5 c 128,-1,89
 237 936 237 936 237 906 c 0,90,91
 237 872 237 872 256 850 c 128,-1,92
 275 828 275 828 308 828 c 256,93,94
 343 828 343 828 361 851.5 c 128,-1,95
 379 875 379 875 379 906 c 0,84,85
EndSplineSet
EndChar
StartChar: uni0E0C
Encoding: 3596 3596 281
Width: 1234
VWidth: 3393
Flags: W
HStem: -30 108<240.6 376.824 678.939 768.195> 312 102<233.335 391.618> 1205 116<353.771 608.982>
VStem: 75 149<156.375 258.481 383 755.544> 404 111<127.919 300.438> 553 102<116.9 287.372> 736 142<99.4474 295 428 1109.28> 1046 145<0 106.109 275 1311>
Fore
1046 75 m 1,0,-1
 1046 78 l 2,1,2
 1046 94 1046 94 1041 106.5 c 128,-1,3
 1036 119 1036 119 1020 140.5 c 128,-1,4
 1004 162 1004 162 970 198 c 128,-1,5
 936 234 936 234 878 295 c 1,6,-1
 878 143 l 2,7,8
 878 78 878 78 841 24 c 128,-1,9
 804 -30 804 -30 736 -30 c 0,10,11
 635 -30 635 -30 594 41.5 c 128,-1,12
 553 113 553 113 553 210 c 256,13,14
 553 308 553 308 602 361 c 128,-1,15
 651 414 651 414 732 428 c 1,16,-1
 732 958 l 2,17,18
 732 1079 732 1079 664.5 1142 c 128,-1,19
 597 1205 597 1205 482 1205 c 0,20,21
 373 1205 373 1205 303.5 1164 c 128,-1,22
 234 1123 234 1123 156 1029 c 1,23,-1
 330 1029 l 1,24,-1
 330 930 l 1,25,26
 278 916 278 916 251 863 c 128,-1,27
 224 810 224 810 224 754 c 2,28,-1
 224 383 l 1,29,30
 272 414 272 414 330 414 c 0,31,32
 428 414 428 414 471.5 358 c 128,-1,33
 515 302 515 302 515 210 c 0,34,35
 515 123 515 123 459.5 46.5 c 128,-1,36
 404 -30 404 -30 308 -30 c 0,37,38
 191 -30 191 -30 133 54.5 c 128,-1,39
 75 139 75 139 75 249 c 2,40,-1
 75 683 l 2,41,42
 75 726 75 726 78 756.5 c 128,-1,43
 81 787 81 787 91 814.5 c 128,-1,44
 101 842 101 842 120 869 c 128,-1,45
 139 896 139 896 169 926 c 1,46,-1
 45 926 l 1,47,-1
 45 1062 l 1,48,49
 91 1117 91 1117 137.5 1164 c 128,-1,50
 184 1211 184 1211 234.5 1245 c 128,-1,51
 285 1279 285 1279 346.5 1300 c 128,-1,52
 408 1321 408 1321 489 1321 c 0,53,54
 560 1321 560 1321 631.5 1302 c 128,-1,55
 703 1283 703 1283 756.5 1244 c 128,-1,56
 810 1205 810 1205 844 1142 c 128,-1,57
 878 1079 878 1079 878 988 c 2,58,-1
 878 414 l 1,59,60
 913 386 913 386 931 371 c 128,-1,61
 949 356 949 356 963.5 343 c 128,-1,62
 978 330 978 330 994.5 316 c 128,-1,63
 1011 302 1011 302 1042 275 c 1,64,-1
 1042 1311 l 1,65,-1
 1191 1311 l 1,66,-1
 1191 0 l 1,67,-1
 1046 0 l 1,68,-1
 1046 75 l 1,0,-1
736 336 m 1,69,70
 689 315 689 315 672 285 c 128,-1,71
 655 255 655 255 655 197 c 0,72,73
 655 184 655 184 656.5 161.5 c 128,-1,74
 658 139 658 139 663 118.5 c 128,-1,75
 668 98 668 98 682 83 c 128,-1,76
 696 68 696 68 719 68 c 0,77,78
 729 68 729 68 732.5 98.5 c 128,-1,79
 736 129 736 129 736 136 c 2,80,-1
 736 336 l 1,69,70
404 210 m 0,81,82
 404 312 404 312 305 312 c 0,83,84
 258 312 258 312 237.5 285 c 128,-1,85
 217 258 217 258 217 210 c 0,86,87
 217 166 217 166 236 122 c 128,-1,88
 255 78 255 78 308 78 c 0,89,90
 360 78 360 78 382 122 c 128,-1,91
 404 166 404 166 404 210 c 0,81,82
EndSplineSet
EndChar
StartChar: uni0E0D
Encoding: 3597 3597 282
Width: 1234
VWidth: 3393
Flags: W
HStem: -466 103<838 941.921> -176 78<666.677 774.218> -30 95<267.267 405.18> 0 129<800 1036> 323 101<284.058 413.73> 1206 109.5<281.488 322 356.5 393.847 393.847 403.238 398.543 570.886>
VStem: 98 151<197.409 289.481 391 785.044> 431 116<120.093 284.984> 550 105<-319.913 -202.238> 648 152<129 1014.38> 784 109<-291.779 -196.271> 1011 159.5<-258 -233 -233 -221.896 -221.896 -194.5 -194.5 -188.802 -188.802 -133.907> 1036 152<-159 -133 129 1311>
Fore
466 1214 m 0,0,1
 401 1214 401 1214 356.5 1206 c 128,-1,2
 312 1198 312 1198 280.5 1175.5 c 128,-1,3
 249 1153 249 1153 221.5 1115.5 c 128,-1,4
 194 1078 194 1078 166 1022 c 1,5,-1
 353 1022 l 1,6,-1
 353 929 l 1,7,8
 298 916 298 916 273.5 865.5 c 128,-1,9
 249 815 249 815 249 760 c 2,10,-1
 249 391 l 1,11,12
 275 411 275 411 302.5 417.5 c 128,-1,13
 330 424 330 424 360 424 c 0,14,15
 457 424 457 424 502 368 c 128,-1,16
 547 312 547 312 547 220 c 0,17,18
 547 126 547 126 494 48 c 128,-1,19
 441 -30 441 -30 336 -30 c 0,20,21
 275 -30 275 -30 229.5 -3.5 c 128,-1,22
 184 23 184 23 155 66 c 128,-1,23
 126 109 126 109 112 164.5 c 128,-1,24
 98 220 98 220 98 275 c 2,25,-1
 98 692 l 2,26,27
 98 773 98 773 113.5 819 c 128,-1,28
 129 865 129 865 187 923 c 1,29,-1
 55 923 l 1,30,-1
 55 1072 l 1,31,32
 109 1146 109 1146 148 1196 c 128,-1,33
 187 1246 187 1246 227.5 1275 c 128,-1,34
 268 1304 268 1304 322 1315.5 c 128,-1,35
 376 1327 376 1327 462 1327 c 0,36,37
 655 1327 655 1327 727.5 1217 c 128,-1,38
 800 1107 800 1107 800 906 c 2,39,-1
 800 129 l 1,40,-1
 1036 129 l 1,41,-1
 1036 1311 l 1,42,-1
 1188 1311 l 1,43,-1
 1188 0 l 1,44,-1
 648 0 l 1,45,-1
 648 913 l 2,46,47
 648 964 648 964 643 1016 c 128,-1,48
 638 1068 638 1068 619 1112 c 128,-1,49
 600 1156 600 1156 562.5 1185 c 128,-1,50
 525 1214 525 1214 466 1214 c 0,0,1
1181 -159 m 1,51,52
 1181 -191 1181 -191 1170.5 -233 c 128,-1,53
 1160 -275 1160 -275 1143 -302 c 0,54,55
 1092 -398 1092 -398 999 -432 c 128,-1,56
 906 -466 906 -466 800 -466 c 0,57,58
 761 -466 761 -466 717 -455 c 128,-1,59
 673 -444 673 -444 635 -421 c 128,-1,60
 597 -398 597 -398 573.5 -362 c 128,-1,61
 550 -326 550 -326 550 -278 c 0,62,63
 550 -200 550 -200 590.5 -149 c 128,-1,64
 631 -98 631 -98 709 -98 c 0,65,66
 780 -98 780 -98 836.5 -132 c 128,-1,67
 893 -166 893 -166 893 -249 c 0,68,69
 893 -282 893 -282 875.5 -309 c 128,-1,70
 858 -336 858 -336 838 -363 c 1,71,72
 893 -363 893 -363 943.5 -335.5 c 128,-1,73
 994 -308 994 -308 1011 -258 c 0,74,75
 1021 -227 1021 -227 1021 -194.5 c 128,-1,76
 1021 -162 1021 -162 1024 -133 c 1,77,-1
 1181 -133 l 1,78,-1
 1181 -159 l 1,51,52
784 -258 m 0,79,80
 784 -224 784 -224 770.5 -200 c 128,-1,81
 757 -176 757 -176 719 -176 c 256,82,83
 683 -176 683 -176 669 -206.5 c 128,-1,84
 655 -237 655 -237 655 -268 c 256,85,86
 655 -298 655 -298 672 -319 c 128,-1,87
 689 -340 689 -340 719 -340 c 256,88,89
 751 -340 751 -340 767.5 -314 c 128,-1,90
 784 -288 784 -288 784 -258 c 0,79,80
431 204 m 0,91,92
 431 252 431 252 412.5 287.5 c 128,-1,93
 394 323 394 323 336 323 c 0,94,95
 288 323 288 323 264 290.5 c 128,-1,96
 240 258 240 258 240 210 c 0,97,98
 240 166 240 166 264 115.5 c 128,-1,99
 288 65 288 65 343 65 c 0,100,101
 386 65 386 65 408.5 115.5 c 128,-1,102
 431 166 431 166 431 204 c 0,91,92
EndSplineSet
Substitution2: "Single Substitution lookup 22 subtable" uni0E0D.alt1
Substitution2: "Single Substitution lookup 22 subtable" uni0E0D.alt1
EndChar
StartChar: uni0E0E
Encoding: 3598 3598 283
Width: 1234
VWidth: 3393
Flags: W
HStem: -583 114<446.18 625.818> -272 110<440.481 544.671 535.691 553.652 553.652 586> -30 101<210.742 357.146> 302 119<205.823 346.8> 926 113<353 454> 1198 126<507.463 911.245>
VStem: 58 129<120.435 265.219> 282 136<-444.005 -313.641> 353 152<386 766.786> 658 149<-197 -48> 1021 150<-404 1074.38>
Fore
1171 -563 m 1,0,-1
 1021 -563 l 1,1,2
 958 -515 958 -515 908 -478 c 128,-1,3
 858 -441 858 -441 787 -386 c 1,4,5
 761 -492 761 -492 696 -537.5 c 128,-1,6
 631 -583 631 -583 525 -583 c 0,7,8
 434 -583 434 -583 358 -534.5 c 128,-1,9
 282 -486 282 -486 282 -383 c 0,10,11
 282 -275 282 -275 355 -218.5 c 128,-1,12
 428 -162 428 -162 525 -162 c 0,13,14
 563 -162 563 -162 594 -173 c 128,-1,15
 625 -184 625 -184 658 -197 c 1,16,-1
 658 -48 l 1,17,-1
 807 -48 l 1,18,-1
 807 -252 l 1,19,20
 872 -295 872 -295 915 -327.5 c 128,-1,21
 958 -360 958 -360 1021 -404 c 1,22,-1
 1021 848 l 2,23,24
 1021 1007 1021 1007 962 1102.5 c 128,-1,25
 903 1198 903 1198 732 1198 c 0,26,27
 618 1198 618 1198 523 1167.5 c 128,-1,28
 428 1137 428 1137 353 1039 c 1,29,-1
 628 1039 l 1,30,-1
 628 920 l 1,31,32
 608 906 608 906 587.5 890.5 c 128,-1,33
 567 875 567 875 550 858 c 1,34,35
 522 822 522 822 513.5 775.5 c 128,-1,36
 505 729 505 729 505 683 c 2,37,-1
 505 346 l 2,38,39
 505 285 505 285 500 217 c 128,-1,40
 495 149 495 149 473 95 c 128,-1,41
 451 41 451 41 405.5 5.5 c 128,-1,42
 360 -30 360 -30 278 -30 c 0,43,44
 181 -30 181 -30 119.5 43 c 128,-1,45
 58 116 58 116 58 214 c 0,46,47
 58 302 58 302 117 361.5 c 128,-1,48
 176 421 176 421 265 421 c 0,49,50
 323 421 323 421 353 386 c 1,51,-1
 353 726 l 2,52,53
 353 797 353 797 380.5 836 c 128,-1,54
 408 875 408 875 454 926 c 1,55,-1
 230 926 l 1,56,-1
 230 1082 l 1,57,58
 315 1205 315 1205 441 1264.5 c 128,-1,59
 567 1324 567 1324 713 1324 c 0,60,61
 946 1324 946 1324 1062 1217 c 128,-1,62
 1178 1110 1178 1110 1178 862 c 2,63,-1
 1171 -563 l 1,0,-1
373 207 m 0,64,65
 373 249 373 249 342.5 275.5 c 128,-1,66
 312 302 312 302 272 302 c 256,67,68
 230 302 230 302 208.5 269.5 c 128,-1,69
 187 237 187 237 187 200 c 0,70,71
 187 156 187 156 210.5 113.5 c 128,-1,72
 234 71 234 71 285 71 c 0,73,74
 343 71 343 71 358 115 c 128,-1,75
 373 159 373 159 373 207 c 0,64,65
658 -320 m 1,76,77
 625 -298 625 -298 586 -285 c 128,-1,78
 547 -272 547 -272 505 -272 c 0,79,80
 469 -272 469 -272 443.5 -306 c 128,-1,81
 418 -340 418 -340 418 -376 c 256,82,83
 418 -414 418 -414 453.5 -441.5 c 128,-1,84
 489 -469 489 -469 525 -469 c 0,85,86
 580 -469 580 -469 619 -440 c 128,-1,87
 658 -411 658 -411 658 -353 c 2,88,-1
 658 -320 l 1,76,77
EndSplineSet
Substitution2: "Single Substitution lookup 22 subtable" uni0E0E.alt1
Substitution2: "Single Substitution lookup 22 subtable" uni0E0E.alt1
EndChar
StartChar: uni0E0F
Encoding: 3599 3599 284
Width: 1234
VWidth: 3393
Flags: W
HStem: -583 117<290.617 465.753> -295 114<268.099 396.199> -30 105<218.604 354.314> 308 120<216.352 326.656> 913 122<363 451> 1201 126<505.91 851.255>
VStem: 61 136<119.523 266.85> 104 145<-448.16 -314.957> 353 152<404 824.166> 557 149<-248.144 -68> 1021 150<-414 794.996 794.996 936.86>
Fore
1171 747 m 1,0,-1
 1171 -573 l 1,1,-1
 991 -573 l 1,2,-1
 865 -421 l 1,3,-1
 771 -567 l 1,4,-1
 696 -567 l 1,5,-1
 611 -454 l 1,6,7
 547 -525 547 -525 495.5 -554 c 128,-1,8
 444 -583 444 -583 343 -583 c 0,9,10
 258 -583 258 -583 181 -527.5 c 128,-1,11
 104 -472 104 -472 104 -379 c 256,12,13
 104 -288 104 -288 178 -234.5 c 128,-1,14
 252 -181 252 -181 336 -181 c 0,15,16
 394 -181 394 -181 448 -200.5 c 128,-1,17
 502 -220 502 -220 557 -249 c 1,18,-1
 557 -68 l 1,19,-1
 706 -68 l 1,20,-1
 706 -169 l 2,21,22
 706 -214 706 -214 702.5 -254.5 c 128,-1,23
 699 -295 699 -295 683 -333 c 1,24,25
 699 -350 699 -350 710.5 -368 c 128,-1,26
 722 -386 722 -386 739 -404 c 1,27,-1
 868 -237 l 1,28,-1
 1021 -414 l 1,29,-1
 1021 896 l 2,30,31
 1021 1058 1021 1058 938 1129.5 c 128,-1,32
 855 1201 855 1201 706 1201 c 0,33,34
 593 1201 593 1201 513.5 1165.5 c 128,-1,35
 434 1130 434 1130 363 1035 c 1,36,-1
 631 1035 l 1,37,-1
 631 913 l 1,38,39
 580 889 580 889 542.5 831 c 128,-1,40
 505 773 505 773 505 715 c 2,41,-1
 505 315 l 2,42,43
 505 252 505 252 498.5 190.5 c 128,-1,44
 492 129 492 129 468 79.5 c 128,-1,45
 444 30 444 30 398.5 0 c 128,-1,46
 353 -30 353 -30 275 -30 c 0,47,48
 172 -30 172 -30 116.5 46.5 c 128,-1,49
 61 123 61 123 61 220 c 0,50,51
 61 308 61 308 116.5 368 c 128,-1,52
 172 428 172 428 262 428 c 0,53,54
 305 428 305 428 353 404 c 1,55,-1
 353 715 l 2,56,57
 353 783 353 783 377 825.5 c 128,-1,58
 401 868 401 868 451 913 c 1,59,-1
 234 913 l 1,60,-1
 234 1100 l 1,61,62
 315 1211 315 1211 437.5 1269 c 128,-1,63
 560 1327 560 1327 699 1327 c 0,64,65
 761 1327 761 1327 823.5 1317 c 128,-1,66
 886 1307 886 1307 943.5 1283 c 128,-1,67
 1001 1259 1001 1259 1049 1218.5 c 128,-1,68
 1097 1178 1097 1178 1127 1120 c 0,69,70
 1143 1090 1143 1090 1151.5 1040.5 c 128,-1,71
 1160 991 1160 991 1164 938.5 c 128,-1,72
 1168 886 1168 886 1169.5 836.5 c 128,-1,73
 1171 787 1171 787 1171 754 c 2,74,-1
 1171 747 l 1,0,-1
370 191 m 0,75,76
 370 234 370 234 345 271 c 128,-1,77
 320 308 320 308 272 308 c 0,78,79
 234 308 234 308 215.5 266 c 128,-1,80
 197 224 197 224 197 194 c 0,81,82
 197 156 197 156 218.5 115.5 c 128,-1,83
 240 75 240 75 282 75 c 0,84,85
 336 75 336 75 353 109 c 128,-1,86
 370 143 370 143 370 191 c 0,75,76
525 -370 m 1,87,88
 492 -343 492 -343 437.5 -319 c 128,-1,89
 383 -295 383 -295 340 -295 c 0,90,91
 298 -295 298 -295 273.5 -322.5 c 128,-1,92
 249 -350 249 -350 249 -386 c 0,93,94
 249 -431 249 -431 291 -448.5 c 128,-1,95
 333 -466 333 -466 366 -466 c 0,96,97
 414 -466 414 -466 456.5 -437 c 128,-1,98
 499 -408 499 -408 525 -370 c 1,87,88
EndSplineSet
Substitution2: "Single Substitution lookup 22 subtable" uni0E0F.alt1
Substitution2: "Single Substitution lookup 22 subtable" uni0E0F.alt1
EndChar
StartChar: uni0E10
Encoding: 3600 3600 285
Width: 1234
VWidth: 3393
Flags: W
HStem: -570 113<164.261 280.622 772.469 853.482> -391 99<826.953 889.978> -305 121<144.471 271.946> -187 102<826.023 904.286> 0 21G<729.915 1006> 386 109<391.548 523.66> 673 117<388.141 523.578> 901.5 127.5<302.536 345.515 345.515 459.577 459.577 614.704 614.704 636.067 636.067 684.5 731.5 799.918> 1075 168<922.928 991.577 991.577 1064.18 1064.18 1092.5 1092.5 1145.53> 1195 127.5<441.596 530.938 461.214 611.364>
VStem: 20 119<-446.333 -310.209> 249 121<517.518 654.205> 360 155<-250.107 -111.754 -111.754 -88> 709 116<-291.815 -187.525> 936 156<519.075 779.571>
Fore
1147 1092 m 1,0,1
 1123 1079 1123 1079 1092.5 1077 c 128,-1,2
 1062 1075 1062 1075 1036 1075 c 2,3,-1
 998 1075 l 2,4,5
 933 1075 933 1075 874 1094.5 c 128,-1,6
 815 1114 815 1114 757 1135.5 c 128,-1,7
 699 1157 699 1157 639.5 1176 c 128,-1,8
 580 1195 580 1195 519 1195 c 0,9,10
 434 1195 434 1195 387 1146 c 128,-1,11
 340 1097 340 1097 302 1029 c 1,12,-1
 543 1029 l 2,13,14
 635 1029 635 1029 731.5 1016.5 c 128,-1,15
 828 1004 828 1004 909.5 968.5 c 128,-1,16
 991 933 991 933 1041.5 865 c 128,-1,17
 1092 797 1092 797 1092 689 c 0,18,19
 1092 676 1092 676 1088.5 652 c 128,-1,20
 1085 628 1085 628 1075 558.5 c 128,-1,21
 1065 489 1065 489 1044.5 359.5 c 128,-1,22
 1024 230 1024 230 988 0 c 1,23,-1
 736 0 l 1,24,-1
 600 447 l 1,25,26
 570 421 570 421 541 403.5 c 128,-1,27
 512 386 512 386 469 386 c 0,28,29
 379 386 379 386 314 440.5 c 128,-1,30
 249 495 249 495 249 583 c 0,31,32
 249 693 249 693 314 741.5 c 128,-1,33
 379 790 379 790 486 790 c 0,34,35
 529 790 529 790 564.5 764.5 c 128,-1,36
 600 739 600 739 625.5 700 c 128,-1,37
 651 661 651 661 670 617 c 128,-1,38
 689 573 689 573 703 537 c 2,39,-1
 838 126 l 1,40,-1
 868 126 l 1,41,42
 878 240 878 240 907 381 c 128,-1,43
 936 522 936 522 936 648 c 0,44,45
 936 699 936 699 928 746.5 c 128,-1,46
 920 794 920 794 878 832 c 0,47,48
 852 855 852 855 801.5 868.5 c 128,-1,49
 751 882 751 882 684.5 891 c 128,-1,50
 618 900 618 900 540 901.5 c 128,-1,51
 462 903 462 903 379 903 c 0,52,53
 346 903 346 903 312 901.5 c 128,-1,54
 278 900 278 900 249 882 c 1,55,-1
 98 882 l 1,56,57
 116 949 116 949 142.5 1019 c 128,-1,58
 169 1089 169 1089 209 1150 c 128,-1,59
 249 1211 249 1211 304.5 1255 c 128,-1,60
 360 1299 360 1299 434 1314 c 0,61,62
 469 1321 469 1321 499 1322.5 c 128,-1,63
 529 1324 529 1324 563 1324 c 0,64,65
 615 1324 615 1324 660.5 1311.5 c 128,-1,66
 706 1299 706 1299 750 1284 c 128,-1,67
 794 1269 794 1269 840 1256 c 128,-1,68
 886 1243 886 1243 936 1243 c 0,69,70
 994 1243 994 1243 1047 1248 c 128,-1,71
 1100 1253 1100 1253 1147 1283 c 1,72,-1
 1147 1092 l 1,0,1
1029 -424 m 1,73,74
 1029 -502 1029 -502 984.5 -536 c 128,-1,75
 940 -570 940 -570 865 -570 c 2,76,-1
 683 -570 l 1,77,-1
 587 -472 l 1,78,-1
 492 -580 l 1,79,-1
 461.5 -539.5 l 0,80,81
 431 -499 431 -499 408 -472 c 1,82,-1
 401 -482 l 1,83,84
 363 -519 363 -519 320.5 -548 c 128,-1,85
 278 -577 278 -577 220 -577 c 0,86,87
 119 -577 119 -577 69.5 -519.5 c 128,-1,88
 20 -462 20 -462 20 -360 c 0,89,90
 20 -292 20 -292 76.5 -238 c 128,-1,91
 133 -184 133 -184 204 -184 c 0,92,93
 252 -184 252 -184 292.5 -202 c 128,-1,94
 333 -220 333 -220 366 -252 c 1,95,-1
 360 -88 l 1,96,-1
 512 -88 l 1,97,98
 515 -104 515 -104 515 -136 c 0,99,100
 515 -237 515 -237 486 -330 c 1,101,-1
 525 -379 l 1,102,-1
 605 -288 l 1,103,-1
 747 -437 l 2,104,105
 757 -451 757 -451 772 -454 c 128,-1,106
 787 -457 787 -457 804 -457 c 0,107,108
 825 -457 825 -457 857.5 -449 c 128,-1,109
 890 -441 890 -441 890 -414 c 2,110,-1
 890 -391 l 1,111,112
 819 -391 819 -391 764 -353 c 128,-1,113
 709 -315 709 -315 709 -237 c 0,114,115
 709 -169 709 -169 753 -127 c 128,-1,116
 797 -85 797 -85 865 -85 c 0,117,118
 943 -85 943 -85 986 -128.5 c 128,-1,119
 1029 -172 1029 -172 1029 -249 c 2,120,-1
 1029 -424 l 1,73,74
543 587 m 256,121,122
 543 625 543 625 516 649 c 128,-1,123
 489 673 489 673 451 673 c 0,124,125
 418 673 418 673 394 647 c 128,-1,126
 370 621 370 621 370 587 c 256,127,128
 370 553 370 553 397 524 c 128,-1,129
 424 495 424 495 462 495 c 0,130,131
 492 495 492 495 517.5 522.5 c 128,-1,132
 543 550 543 550 543 587 c 256,121,122
916 -244 m 256,133,134
 916 -227 916 -227 904.5 -207 c 128,-1,135
 893 -187 893 -187 875 -187 c 0,136,137
 825 -187 825 -187 825 -240 c 0,138,139
 825 -292 825 -292 875 -292 c 0,140,141
 893 -292 893 -292 904.5 -277 c 128,-1,142
 916 -262 916 -262 916 -244 c 256,133,134
326 -383 m 1,143,144
 305 -350 305 -350 283.5 -327.5 c 128,-1,145
 262 -305 262 -305 214 -305 c 0,146,147
 139 -305 139 -305 139 -386 c 0,148,149
 139 -418 139 -418 163 -440 c 128,-1,150
 187 -462 187 -462 214 -462 c 0,151,152
 249 -462 249 -462 284.5 -436.5 c 128,-1,153
 320 -411 320 -411 326 -383 c 1,143,144
EndSplineSet
Substitution2: "Single Substitution lookup 22 subtable" uni0E10.alt1
Substitution2: "Single Substitution lookup 22 subtable" uni0E10.alt1
EndChar
StartChar: uni0E11
Encoding: 3601 3601 286
Width: 1234
VWidth: 3393
Flags: W
HStem: 0 21G<373 522 1004 1153> 741 81<223.527 322.655> 975 96<233.543 326.227> 1193 128<195.377 243.379 463.867 537.244 945.273 1029.77>
VStem: 71.5 121<1029.53 1061.33 1061.33 1085.3 1073.32 1159.18> 336 95<847.186 954.636> 373 149<0 326 547 697.792> 543 108<1061.66 1159.35> 1004 149<0 1179.23>
Fore
373 0 m 1,0,-1
 373 595 l 2,1,2
 373 667 373 667 400.5 728 c 128,-1,3
 428 789 428 789 458.5 846.5 c 128,-1,4
 489 904 489 904 516 963.5 c 0,5,6
 544.932 1027.26 544.932 1027.26 543 1091 c 0,7,8
 542.485 1107.98 542.485 1107.98 537 1161 c 0,9,10
 532.965 1200 532.965 1200 495 1200 c 0,11,12
 472 1200 472 1200 458 1184.5 c 128,-1,13
 444 1169 444 1169 431 1150.5 c 128,-1,14
 418 1132 418 1132 402 1116.5 c 128,-1,15
 386 1101 386 1101 360 1101 c 0,16,17
 336 1101 336 1101 319 1115 c 128,-1,18
 302 1129 302 1129 287 1147 c 128,-1,19
 272 1165 272 1165 258 1179 c 128,-1,20
 244 1193 244 1193 227 1193 c 0,21,22
 200 1193 200 1193 195.5 1159.5 c 128,-1,23
 191 1126 191 1126 191 1104 c 0,24,25
 191 1087 191 1087 192.5 1066.5 c 128,-1,26
 194 1046 194 1046 197 1029 c 1,27,28
 227 1071 227 1071 292 1071 c 0,29,30
 363 1071 363 1071 397 1027 c 128,-1,31
 431 983 431 983 431 922 c 0,32,33
 431 850 431 850 392 795.5 c 128,-1,34
 353 741 353 741 272 741 c 0,35,36
 204 741 204 741 163.5 776.5 c 128,-1,37
 123 812 123 812 100.5 865 c 128,-1,38
 78 918 78 918 71.5 978.5 c 128,-1,39
 65 1039 65 1039 65 1094 c 0,40,41
 65 1132 65 1132 75 1172.5 c 128,-1,42
 85 1213 85 1213 102 1245.5 c 128,-1,43
 119 1278 119 1278 145.5 1299.5 c 128,-1,44
 172 1321 172 1321 204 1321 c 0,45,46
 224 1321 224 1321 244.5 1303 c 128,-1,47
 265 1285 265 1285 283.5 1264 c 128,-1,48
 302 1243 302 1243 319 1225 c 128,-1,49
 336 1207 336 1207 353 1207 c 1,50,-1
 356 1210 l 1,51,52
 376 1210 376 1210 388.5 1228.5 c 128,-1,53
 401 1247 401 1247 414.5 1267.5 c 128,-1,54
 428 1288 428 1288 445 1306 c 128,-1,55
 462 1324 462 1324 492 1324 c 0,56,57
 563 1324 563 1324 607 1277 c 128,-1,58
 651 1230 651 1230 651 1139 c 0,59,60
 651 1068 651 1068 629.5 1005 c 128,-1,61
 608 942 608 942 582.5 879 c 128,-1,62
 557 816 557 816 534.5 755.5 c 128,-1,63
 512 695 512 695 512 630 c 2,64,-1
 512 627 l 1,65,-1
 515 547 l 1,66,67
 543.002 596.003 543.002 596.003 608 726 c 0,68,69
 661.005 832.011 661.005 832.011 680.5 874.5 c 0,70,71
 714.925 949.529 714.925 949.529 736 991 c 0,72,73
 767 1052 767 1052 794.5 1111.5 c 128,-1,74
 822 1171 822 1171 852 1217 c 128,-1,75
 882 1263 882 1263 917.5 1292 c 128,-1,76
 953 1321 953 1321 1004 1321 c 256,77,78
 1056 1321 1056 1321 1086.5 1302 c 128,-1,79
 1117 1283 1117 1283 1132 1252 c 128,-1,80
 1147 1221 1147 1221 1150 1180.5 c 128,-1,81
 1153 1140 1153 1140 1153 1092 c 2,82,-1
 1153 0 l 1,83,-1
 1004 0 l 1,84,-1
 1004 1065 l 2,85,86
 1004 1100 1004 1100 1004 1144 c 128,-1,87
 1004 1188 1004 1188 981 1188 c 0,88,89
 968 1188 968 1188 940.5 1149 c 128,-1,90
 913 1110 913 1110 884 1052 c 0,91,92
 854.114 992.227 854.114 992.227 824.5 926 c 0,93,94
 777.126 820.054 777.126 820.054 767 800 c 0,95,96
 749.274 764.896 749.274 764.896 709.5 684.5 c 128,-1,97
 669.729 604.112 669.729 604.112 628 525 c 0,98,99
 580 434 580 434 522 326 c 1,100,-1
 522 0 l 1,101,-1
 373 0 l 1,0,-1
336 900 m 0,102,103
 336 928 336 928 322 951.5 c 128,-1,104
 308 975 308 975 275 975 c 0,105,106
 252 975 252 975 231 951.5 c 128,-1,107
 210 928 210 928 210 904 c 0,108,109
 210 877 210 877 227 849.5 c 128,-1,110
 244 822 244 822 275 822 c 0,111,112
 302 822 302 822 319 849.5 c 128,-1,113
 336 877 336 877 336 900 c 0,102,103
EndSplineSet
EndChar
StartChar: uni0E12
Encoding: 3602 3602 287
Width: 1234
VWidth: 3393
Flags: W
HStem: -30 85<698.393 772.473> 848 98<423.293 557.489> 1069 122<467.634 532.73> 1178 136<234.617 347.215>
VStem: 41 131<757.088 904.469 901.426 907.512 907.512 1055.44> 282 119<685.391 824.876> 563 116<139.471 204 695.861 818.993> 774 132<55.6016 288 466 1073.7> 1056 149<258 1311>
Fore
906 149 m 2,0,1
 906 61 906 61 874 15.5 c 128,-1,2
 842 -30 842 -30 747 -30 c 0,3,4
 648 -30 648 -30 605.5 43 c 128,-1,5
 563 116 563 116 563 204 c 0,6,7
 563 295 563 295 621 369.5 c 128,-1,8
 679 444 679 444 767 466 c 1,9,-1
 767 1029 l 2,10,11
 767 1049 767 1049 764 1074.5 c 128,-1,12
 761 1100 761 1100 750 1123.5 c 128,-1,13
 739 1147 739 1147 721 1164 c 128,-1,14
 703 1181 703 1181 673 1181 c 0,15,16
 648 1181 648 1181 629.5 1164 c 128,-1,17
 611 1147 611 1147 592 1125.5 c 128,-1,18
 573 1104 573 1104 553.5 1086.5 c 128,-1,19
 534 1069 534 1069 502 1069 c 256,20,21
 472 1069 472 1069 446.5 1086.5 c 128,-1,22
 421 1104 421 1104 398.5 1123.5 c 128,-1,23
 376 1143 376 1143 356 1160.5 c 128,-1,24
 336 1178 336 1178 315 1178 c 0,25,26
 265 1178 265 1178 237.5 1142.5 c 128,-1,27
 210 1107 210 1107 195.5 1057 c 128,-1,28
 181 1007 181 1007 176.5 953.5 c 128,-1,29
 172 900 172 900 172 862 c 256,30,31
 172 825 172 825 176.5 782 c 128,-1,32
 181 739 181 739 192.5 687 c 128,-1,33
 204 635 204 635 226.5 565 c 128,-1,34
 249 495 249 495 282 404 c 0,35,36
 298 350 298 350 306.5 317.5 c 128,-1,37
 315 285 315 285 322.5 261 c 128,-1,38
 330 237 330 237 335 214 c 128,-1,39
 340 191 340 191 343 152 c 1,40,-1
 495 537 l 1,41,42
 462 537 462 537 424 552 c 128,-1,43
 386 567 386 567 354.5 592.5 c 128,-1,44
 323 618 323 618 302.5 655.5 c 128,-1,45
 282 693 282 693 282 736 c 0,46,47
 282 838 282 838 343 892 c 128,-1,48
 404 946 404 946 502 946 c 0,49,50
 587 946 587 946 635 895.5 c 128,-1,51
 683 845 683 845 683 757 c 0,52,53
 683 709 683 709 670.5 660 c 128,-1,54
 658 611 658 611 625.5 531 c 128,-1,55
 593 451 593 451 537.5 325.5 c 128,-1,56
 482 200 482 200 398 0 c 1,57,-1
 220 0 l 1,58,59
 210 109 210 109 181 214.5 c 128,-1,60
 152 320 152 320 121.5 422.5 c 128,-1,61
 91 525 91 525 66 630.5 c 128,-1,62
 41 736 41 736 41 848 c 0,63,64
 41 916 41 916 54.5 997.5 c 128,-1,65
 68 1079 68 1079 98.5 1148.5 c 128,-1,66
 129 1218 129 1218 181.5 1266 c 128,-1,67
 234 1314 234 1314 315 1314 c 0,68,69
 350 1314 350 1314 374 1295 c 128,-1,70
 398 1276 398 1276 417.5 1252 c 128,-1,71
 437 1228 437 1228 454.5 1209.5 c 128,-1,72
 472 1191 472 1191 495 1191 c 0,73,74
 522 1191 522 1191 541 1206 c 128,-1,75
 560 1221 560 1221 576.5 1242 c 128,-1,76
 593 1263 593 1263 609 1284.5 c 128,-1,77
 625 1306 625 1306 641 1321 c 1,78,79
 709 1317 709 1317 758 1290 c 128,-1,80
 807 1263 807 1263 839.5 1220.5 c 128,-1,81
 872 1178 872 1178 889 1121.5 c 128,-1,82
 906 1065 906 1065 906 1004 c 2,83,-1
 906 444 l 1,84,85
 923 421 923 421 938 406 c 128,-1,86
 953 391 953 391 970.5 373.5 c 128,-1,87
 988 356 988 356 1008.5 329 c 128,-1,88
 1029 302 1029 302 1056 258 c 1,89,-1
 1056 1311 l 1,90,-1
 1205 1311 l 1,91,-1
 1205 0 l 1,92,-1
 1092 0 l 1,93,-1
 906 288 l 1,94,-1
 906 149 l 2,0,1
573 751 m 256,95,96
 573 787 573 787 555 817.5 c 128,-1,97
 537 848 537 848 495 848 c 256,98,99
 454 848 454 848 427.5 817.5 c 128,-1,100
 401 787 401 787 401 751 c 256,101,102
 401 713 401 713 426 679 c 128,-1,103
 451 645 451 645 492 645 c 256,104,105
 534 645 534 645 553.5 679 c 128,-1,106
 573 713 573 713 573 751 c 256,95,96
777 360 m 1,107,108
 722 346 722 346 700.5 299 c 128,-1,109
 679 252 679 252 679 204 c 1,110,-1
 679 207 l 1,111,112
 679 162 679 162 692.5 111.5 c 128,-1,113
 706 61 706 61 774 55 c 1,114,-1
 774 356 l 1,115,-1
 777 360 l 1,107,108
EndSplineSet
EndChar
StartChar: uni0E13
Encoding: 3603 3603 288
Width: 1234
VWidth: 3393
Flags: W
HStem: -30 105<245.386 369.777 964.538 1093.01> 302 109<239.655 375.214> 1201 113<274.946 493.857>
VStem: 65 149<196.848 237.676 373 793.637> 394 111<117.043 265.936> 560 153<197 1017.61 1017.61 1030.54 1030.54 1136.54> 832 111<105.007 180.162> 984 149<473.175 479 479 1311> 1110 111<100.999 256.891>
Fore
1221 194 m 0,0,1
 1221 104 1221 104 1174 37 c 128,-1,2
 1127 -30 1127 -30 1032 -30 c 0,3,4
 943 -30 943 -30 887.5 7.5 c 128,-1,5
 832 45 832 45 832 133 c 0,6,7
 832 143 832 143 833.5 162 c 128,-1,8
 835 181 835 181 845 200 c 1,9,10
 797 156 797 156 758 107 c 128,-1,11
 719 58 719 58 693 0 c 1,12,-1
 560 0 l 1,13,-1
 560 971 l 2,14,15
 560 1021 560 1021 556.5 1064 c 128,-1,16
 553 1107 553 1107 537.5 1137.5 c 128,-1,17
 522 1168 522 1168 489.5 1184.5 c 128,-1,18
 457 1201 457 1201 398 1201 c 0,19,20
 295 1201 295 1201 238 1160.5 c 128,-1,21
 181 1120 181 1120 133 1032 c 1,22,-1
 336 1032 l 1,23,-1
 336 940 l 1,24,25
 282 923 282 923 248 872.5 c 128,-1,26
 214 822 214 822 214 767 c 2,27,-1
 214 373 l 1,28,29
 268 411 268 411 326 411 c 0,30,31
 424 411 424 411 464.5 354.5 c 128,-1,32
 505 298 505 298 505 207 c 0,33,34
 505 119 505 119 454.5 44.5 c 128,-1,35
 404 -30 404 -30 308 -30 c 0,36,37
 249 -30 249 -30 202.5 -3.5 c 128,-1,38
 156 23 156 23 125 66 c 128,-1,39
 94 109 94 109 79.5 163 c 128,-1,40
 65 217 65 217 65 272 c 2,41,-1
 65 726 l 2,42,43
 65 767 65 767 68 794.5 c 128,-1,44
 71 822 71 822 81 843.5 c 128,-1,45
 91 865 91 865 108.5 884 c 128,-1,46
 126 903 126 903 152 930 c 1,47,-1
 30 930 l 1,48,-1
 30 1082 l 1,49,50
 85 1150 85 1150 120.5 1194.5 c 128,-1,51
 156 1239 156 1239 195 1265.5 c 128,-1,52
 234 1292 234 1292 287 1303 c 128,-1,53
 340 1314 340 1314 431 1314 c 0,54,55
 519 1314 519 1314 573.5 1290 c 128,-1,56
 628 1266 628 1266 658.5 1222 c 128,-1,57
 689 1178 689 1178 701 1115 c 128,-1,58
 713 1052 713 1052 713 974 c 2,59,-1
 713 197 l 1,60,61
 754 237 754 237 801 280 c 128,-1,62
 848 323 848 323 889 370.5 c 128,-1,63
 930 418 930 418 957 471.5 c 128,-1,64
 984 525 984 525 984 590 c 2,65,-1
 984 1311 l 1,66,-1
 1133 1311 l 1,67,-1
 1133 479 l 2,68,69
 1133 451 1133 451 1118.5 431 c 128,-1,70
 1104 411 1104 411 1082 394 c 1,71,72
 1221 350 1221 350 1221 194 c 0,0,1
1110 181 m 0,73,74
 1110 214 1110 214 1092.5 256 c 128,-1,75
 1075 298 1075 298 1036 298 c 0,76,77
 988 298 988 298 965.5 256 c 128,-1,78
 943 214 943 214 943 176 c 256,79,80
 943 139 943 139 965.5 100 c 128,-1,81
 988 61 988 61 1032 61 c 256,82,83
 1075 61 1075 61 1092.5 102 c 128,-1,84
 1110 143 1110 143 1110 181 c 0,73,74
394 200 m 256,85,86
 394 237 394 237 372 269.5 c 128,-1,87
 350 302 350 302 308 302 c 0,88,89
 265 302 265 302 242.5 268 c 128,-1,90
 220 234 220 234 220 197 c 0,91,92
 220 149 220 149 241 112 c 128,-1,93
 262 75 262 75 312 75 c 0,94,95
 360 75 360 75 377 118.5 c 128,-1,96
 394 162 394 162 394 200 c 256,85,86
EndSplineSet
EndChar
StartChar: uni0E14
Encoding: 3604 3604 289
Width: 1234
VWidth: 3393
Flags: W
HStem: 0 21G<255 514 964 1117> 515 110<559.269 618> 819 121<557.275 703.42> 1198 123<428.721 789.281>
VStem: 98 154<612.568 1025.16> 394 140<660.563 795.186> 726 129<660.968 796.385> 964 153<0 1078.88>
Fore
631 1198 m 0,0,1
 457 1198 457 1198 354.5 1102.5 c 128,-1,2
 252 1007 252 1007 252 825 c 0,3,4
 252 651 252 651 302.5 488.5 c 128,-1,5
 353 326 353 326 386 156 c 1,6,-1
 618 515 l 1,7,8
 515 515 515 515 454.5 561.5 c 128,-1,9
 394 608 394 608 394 716 c 0,10,11
 394 815 394 815 458 877.5 c 128,-1,12
 522 940 522 940 621 940 c 0,13,14
 722 940 722 940 788.5 886 c 128,-1,15
 855 832 855 832 855 722 c 0,16,17
 855 683 855 683 840 640 c 128,-1,18
 825 597 825 597 780.5 520.5 c 128,-1,19
 736 444 736 444 656.5 320.5 c 128,-1,20
 577 197 577 197 451 0 c 1,21,-1
 258 0 l 1,22,23
 252 101 252 101 226 203 c 128,-1,24
 200 305 200 305 171.5 407 c 128,-1,25
 143 509 143 509 120.5 614 c 128,-1,26
 98 719 98 719 98 825 c 0,27,28
 98 1072 98 1072 248 1196.5 c 128,-1,29
 398 1321 398 1321 621 1321 c 0,30,31
 729 1321 729 1321 821 1300 c 128,-1,32
 913 1279 913 1279 979.5 1228.5 c 128,-1,33
 1046 1178 1046 1178 1081.5 1092.5 c 128,-1,34
 1117 1007 1117 1007 1117 878 c 2,35,-1
 1117 0 l 1,36,-1
 964 0 l 1,37,-1
 964 882 l 2,38,39
 964 1062 964 1062 874 1130 c 128,-1,40
 784 1198 784 1198 631 1198 c 0,0,1
726 719 m 0,41,42
 726 764 726 764 697 791.5 c 128,-1,43
 668 819 668 819 628 819 c 0,44,45
 590 819 590 819 562 788 c 128,-1,46
 534 757 534 757 534 719 c 256,47,48
 534 683 534 683 558.5 654 c 128,-1,49
 583 625 583 625 621 625 c 0,50,51
 661 625 661 625 693.5 652 c 128,-1,52
 726 679 726 679 726 719 c 0,41,42
EndSplineSet
EndChar
StartChar: uni0E15
Encoding: 3605 3605 290
Width: 1234
VWidth: 3393
Flags: W
HStem: 0 21G<265 523 949 1104> 815 125<537.72 663.026> 1297 20G<393.5 447.966 801 853>
VStem: 104 1000<729 910 838 930 943.154 1049.59> 104 151<727.693 914.325 893.269 935.381 935.381 1002.94> 386 133<649.946 797.159> 696 136<679.412 796.486> 949 155<0 987.658>
Fore
815 1157 m 0,0,1
 790 1157 790 1157 768.5 1143.5 c 128,-1,2
 747 1130 747 1130 725 1113.5 c 128,-1,3
 703 1097 703 1097 677 1083 c 128,-1,4
 651 1069 651 1069 621 1069 c 0,5,6
 583 1069 583 1069 556 1084.5 c 128,-1,7
 529 1100 529 1100 504 1118.5 c 128,-1,8
 479 1137 479 1137 455 1152.5 c 128,-1,9
 431 1168 431 1168 401 1168 c 0,10,11
 350 1168 350 1168 319 1132.5 c 128,-1,12
 288 1097 288 1097 275 1047.5 c 128,-1,13
 262 998 262 998 258.5 942 c 128,-1,14
 255 886 255 886 255 845 c 0,15,16
 255 754 255 754 271.5 668.5 c 128,-1,17
 288 583 288 583 312 498.5 c 128,-1,18
 336 414 336 414 361 331.5 c 128,-1,19
 386 249 386 249 401 159 c 1,20,-1
 597 505 l 1,21,22
 509 512 509 512 447.5 571.5 c 128,-1,23
 386 631 386 631 386 719 c 0,24,25
 386 819 386 819 447.5 879.5 c 128,-1,26
 509 940 509 940 605 940 c 256,27,28
 699 940 699 940 765.5 889 c 128,-1,29
 832 838 832 838 832 736 c 0,30,31
 832 696 832 696 818 650.5 c 128,-1,32
 804 605 804 605 763 526 c 128,-1,33
 722 447 722 447 651 323.5 c 128,-1,34
 580 200 580 200 466 0 c 1,35,-1
 265 0 l 1,36,-1
 265 10 l 2,37,38
 265 119 265 119 239.5 221 c 128,-1,39
 214 323 214 323 185 424 c 128,-1,40
 156 525 156 525 130 627 c 128,-1,41
 104 729 104 729 104 838 c 0,42,43
 104 910 104 910 113.5 981 c 128,-1,44
 123 1052 123 1052 146 1115 c 128,-1,45
 169 1178 169 1178 215.5 1227 c 128,-1,46
 262 1276 262 1276 333 1299 c 0,47,48
 373 1317 373 1317 414 1317 c 1,49,-1
 611 1201 l 1,50,51
 679 1201 679 1201 726.5 1240 c 128,-1,52
 774 1279 774 1279 828 1321 c 1,53,54
 878 1314 878 1314 915.5 1283.5 c 128,-1,55
 953 1253 953 1253 991 1215 c 0,56,57
 1059 1147 1059 1147 1081.5 1084 c 128,-1,58
 1104 1021 1104 1021 1104 930 c 2,59,-1
 1104 0 l 1,60,-1
 949 0 l 1,61,-1
 949 910 l 2,62,63
 949 946 949 946 946 989 c 128,-1,64
 943 1032 943 1032 929.5 1069.5 c 128,-1,65
 916 1107 916 1107 889 1132 c 128,-1,66
 862 1157 862 1157 815 1157 c 0,0,1
696 729 m 0,67,68
 696 767 696 767 668.5 791 c 128,-1,69
 641 815 641 815 608 815 c 0,70,71
 570 815 570 815 544.5 791 c 128,-1,72
 519 767 519 767 519 729 c 0,73,74
 519 689 519 689 543 658.5 c 128,-1,75
 567 628 567 628 611 628 c 0,76,77
 658 628 658 628 677 657 c 128,-1,78
 696 686 696 686 696 729 c 0,67,68
EndSplineSet
EndChar
StartChar: uni0E16
Encoding: 3606 3606 291
Width: 1234
VWidth: 3393
Flags: W
HStem: -30 111<385.135 539.682> 315 136<383.873 539.596> 906 114<237 320> 1197 130<430.724 787.089>
VStem: 101 1022<1020 1048 906 945 906 906> 214 149<114.519 276.326 418 802.307> 560 133<101.793 270.807> 974 149<0 1075.01>
Fore
658 1197 m 0,0,1
 525 1197 525 1197 430.5 1155 c 128,-1,2
 336 1113 336 1113 237 1020 c 1,3,-1
 492 1020 l 1,4,-1
 492 909 l 1,5,6
 437 886 437 886 400 829.5 c 128,-1,7
 363 773 363 773 363 712 c 2,8,-1
 363 418 l 1,9,10
 421 451 421 451 492 451 c 0,11,12
 583 451 583 451 638 379.5 c 128,-1,13
 693 308 693 308 693 224 c 0,14,15
 693 113 693 113 631.5 41.5 c 128,-1,16
 570 -30 570 -30 451 -30 c 0,17,18
 340 -30 340 -30 277 54.5 c 128,-1,19
 214 139 214 139 214 249 c 2,20,-1
 214 672 l 2,21,22
 214 750 214 750 238 804 c 128,-1,23
 262 858 262 858 320 906 c 1,24,-1
 101 906 l 1,25,-1
 101 1085 l 1,26,27
 217 1187 217 1187 348 1257 c 128,-1,28
 479 1327 479 1327 635 1327 c 0,29,30
 719 1327 719 1327 806 1306 c 128,-1,31
 893 1285 893 1285 964.5 1239.5 c 128,-1,32
 1036 1194 1036 1194 1079.5 1121 c 128,-1,33
 1123 1048 1123 1048 1123 945 c 2,34,-1
 1123 0 l 1,35,-1
 974 0 l 1,36,-1
 974 909 l 2,37,38
 974 1058 974 1058 880.5 1127.5 c 128,-1,39
 787 1197 787 1197 658 1197 c 0,0,1
560 187 m 256,40,41
 560 234 560 234 539.5 274.5 c 128,-1,42
 519 315 519 315 466 315 c 256,43,44
 411 315 411 315 385.5 277.5 c 128,-1,45
 360 240 360 240 360 194 c 256,46,47
 360 146 360 146 389 113.5 c 128,-1,48
 418 81 418 81 466 81 c 256,49,50
 512 81 512 81 536 110 c 128,-1,51
 560 139 560 139 560 187 c 256,40,41
EndSplineSet
EndChar
StartChar: uni0E17
Encoding: 3607 3607 292
Width: 1234
VWidth: 3393
Flags: W
HStem: 0 21G<346 499 998 1150> 878 110<200.167 335.705> 1201 113<198.038 334.658>
VStem: 48 133<1022.23 1161.3> 346 153<0 631.486 858 903 1017.91 1055.69 1055.69 1127.49> 998 152<0 1164.8>
Fore
597 998 m 2,0,1
 615 1029 615 1029 655.5 1081 c 128,-1,2
 696 1133 696 1133 746.5 1188 c 128,-1,3
 797 1243 797 1243 853.5 1282 c 128,-1,4
 910 1321 910 1321 958 1321 c 0,5,6
 1072 1321 1072 1321 1111 1256 c 128,-1,7
 1150 1191 1150 1191 1150 1069 c 2,8,-1
 1150 0 l 1,9,-1
 998 0 l 1,10,-1
 998 1114 l 2,11,12
 998 1143 998 1143 991 1165.5 c 128,-1,13
 984 1188 984 1188 946 1191 c 1,14,-1
 949 1191 l 1,15,16
 926 1191 926 1191 882 1149 c 128,-1,17
 838 1107 838 1107 788.5 1042.5 c 128,-1,18
 739 978 739 978 688.5 905 c 128,-1,19
 638 832 638 832 595.5 769 c 128,-1,20
 553 706 553 706 527.5 665.5 c 128,-1,21
 502 625 502 625 499 621 c 1,22,-1
 499 0 l 1,23,-1
 346 0 l 1,24,-1
 346 903 l 1,25,26
 312 878 312 878 268 878 c 0,27,28
 172 878 172 878 110 929.5 c 128,-1,29
 48 981 48 981 48 1079 c 0,30,31
 48 1201 48 1201 114.5 1257.5 c 128,-1,32
 181 1314 181 1314 298 1314 c 0,33,34
 370 1314 370 1314 410.5 1283.5 c 128,-1,35
 451 1253 451 1253 470 1203 c 128,-1,36
 489 1153 489 1153 492 1096 c 128,-1,37
 495 1039 495 1039 495 981 c 2,38,-1
 495 858 l 1,39,-1
 597 998 l 2,0,1
356 1082 m 0,40,41
 356 1123 356 1123 334 1162 c 128,-1,42
 312 1201 312 1201 268 1201 c 0,43,44
 217 1201 217 1201 199 1162 c 128,-1,45
 181 1123 181 1123 181 1082 c 0,46,47
 181 1046 181 1046 204 1017 c 128,-1,48
 227 988 227 988 265 988 c 0,49,50
 305 988 305 988 330.5 1017 c 128,-1,51
 356 1046 356 1046 356 1082 c 0,40,41
EndSplineSet
EndChar
StartChar: uni0E18
Encoding: 3608 3608 293
Width: 1234
VWidth: 3393
Flags: W
HStem: 0 129<379 900> 865 136<282 396.201 396.201 502 502 547.426> 1069 166.5<820.183 895.5 926.5 947.401 947.401 1011.43 1011.43 1059.14> 1181 140<365.418 567>
VStem: 230 149<129 751> 900 149<129 752.203>
Fore
1065 1056 m 2,0,1
 988 1056 988 1056 926.5 1069 c 128,-1,2
 865 1082 865 1082 797 1110 c 256,3,4
 729 1137 729 1137 656 1159 c 128,-1,5
 583 1181 583 1181 509 1181 c 0,6,7
 411 1181 411 1181 361.5 1135 c 128,-1,8
 312 1089 312 1089 282 998 c 1,9,-1
 336 1001 l 2,10,11
 476 1001 476 1001 604 989.5 c 128,-1,12
 732 978 732 978 831 939 c 128,-1,13
 930 900 930 900 989.5 830.5 c 128,-1,14
 1049 761 1049 761 1049 648 c 2,15,-1
 1049 0 l 1,16,-1
 230 0 l 1,17,-1
 230 751 l 1,18,-1
 379 751 l 1,19,-1
 379 129 l 1,20,-1
 900 129 l 1,21,-1
 900 621 l 2,22,23
 900 719 900 719 838.5 769 c 128,-1,24
 777 819 777 819 688.5 837 c 128,-1,25
 600 855 600 855 502 856.5 c 128,-1,26
 404 858 404 858 330 865 c 2,27,-1
 104 865 l 1,28,29
 113 913 113 913 114.5 955.5 c 128,-1,30
 116 998 116 998 133 1042 c 0,31,32
 169 1168 169 1168 271 1244.5 c 128,-1,33
 373 1321 373 1321 502 1321 c 2,34,-1
 567 1317 l 1,35,36
 605 1306 605 1306 662 1291 c 128,-1,37
 719 1276 719 1276 780.5 1261 c 128,-1,38
 842 1246 842 1246 895.5 1235.5 c 128,-1,39
 949 1225 949 1225 981 1225 c 0,40,41
 1017 1225 1017 1225 1060.5 1229.5 c 128,-1,42
 1104 1234 1104 1234 1120 1246 c 1,43,-1
 1120 1059 l 1,44,-1
 1065 1056 l 2,0,1
EndSplineSet
EndChar
StartChar: uni0E19
Encoding: 3609 3609 294
Width: 1234
VWidth: 3393
Flags: W
HStem: -30 105<923.688 1060.06> 899 101<199.303 314.624> 1210 110<200.084 336.557>
VStem: 55 129<1032.69 1174.37> 343 149<230 922 1029.91 1078.68 1078.68 1147.51> 761 135<131.428 271.514> 971 149<558.5 1311> 1089 126<174.332 311.462>
Fore
1215 237 m 0,0,1
 1215 191 1215 191 1201.5 142.5 c 128,-1,2
 1188 94 1188 94 1159 55.5 c 128,-1,3
 1130 17 1130 17 1091 -6.5 c 128,-1,4
 1052 -30 1052 -30 1001 -30 c 0,5,6
 761 -30 761 -30 761 220 c 0,7,8
 761 252 761 252 771 285 c 1,9,10
 732 265 732 265 690 234.5 c 128,-1,11
 648 204 648 204 609 165 c 128,-1,12
 570 126 570 126 539.5 83.5 c 128,-1,13
 509 41 509 41 492 0 c 1,14,-1
 343 0 l 1,15,-1
 343 922 l 1,16,17
 298 899 298 899 240 899 c 0,18,19
 152 899 152 899 103.5 957.5 c 128,-1,20
 55 1016 55 1016 55 1106 c 0,21,22
 55 1204 55 1204 113.5 1262 c 128,-1,23
 172 1320 172 1320 272 1320 c 0,24,25
 353 1320 353 1320 397 1296 c 128,-1,26
 441 1272 441 1272 463.5 1231 c 128,-1,27
 486 1190 486 1190 489 1134 c 128,-1,28
 492 1078 492 1078 492 1013 c 2,29,-1
 492 230 l 1,30,31
 560 298 560 298 643 340.5 c 128,-1,32
 726 383 726 383 799 429.5 c 128,-1,33
 872 476 872 476 921.5 542 c 128,-1,34
 971 608 971 608 971 722 c 2,35,-1
 971 1311 l 1,36,-1
 1120 1311 l 1,37,-1
 1120 655 l 2,38,39
 1120 605 1120 605 1097.5 557 c 128,-1,40
 1075 509 1075 509 1042 472 c 1,41,42
 1127 441 1127 441 1171 385.5 c 128,-1,43
 1215 330 1215 330 1215 237 c 0,0,1
356 1101 m 256,44,45
 356 1146 356 1146 334 1178 c 128,-1,46
 312 1210 312 1210 265 1210 c 0,47,48
 220 1210 220 1210 202 1174.5 c 128,-1,49
 184 1139 184 1139 184 1101 c 256,50,51
 184 1065 184 1065 202 1032.5 c 128,-1,52
 220 1000 220 1000 262 1000 c 0,53,54
 305 1000 305 1000 330.5 1029 c 128,-1,55
 356 1058 356 1058 356 1101 c 256,44,45
1089 230 m 0,56,57
 1089 272 1089 272 1067.5 316 c 128,-1,58
 1046 360 1046 360 998 360 c 0,59,60
 940 360 940 360 918 311 c 128,-1,61
 896 262 896 262 896 214 c 256,62,63
 896 166 896 166 921 120.5 c 128,-1,64
 946 75 946 75 994 75 c 256,65,66
 1042 75 1042 75 1065.5 131 c 128,-1,67
 1089 187 1089 187 1089 230 c 0,56,57
EndSplineSet
EndChar
StartChar: uni0E1A
Encoding: 3610 3610 295
Width: 1234
VWidth: 3393
Flags: W
HStem: 0 129<502 1021> 881 109<208.678 327.84> 1214 106<203.017 345.99>
VStem: 51 136<1012.66 1178.21> 353 149<129 909 1050.08 1144.97> 1021 150<129 1311>
Fore
353 909 m 1,0,1
 333 891 333 891 307.5 886 c 128,-1,2
 282 881 282 881 258 881 c 0,3,4
 162 881 162 881 106.5 940.5 c 128,-1,5
 51 1000 51 1000 51 1094 c 0,6,7
 51 1197 51 1197 110 1258.5 c 128,-1,8
 169 1320 169 1320 268 1320 c 0,9,10
 398 1320 398 1320 450 1243 c 128,-1,11
 502 1166 502 1166 502 1048 c 2,12,-1
 502 129 l 1,13,-1
 1021 129 l 1,14,-1
 1021 1311 l 1,15,-1
 1171 1311 l 1,16,-1
 1171 0 l 1,17,-1
 353 0 l 1,18,-1
 353 909 l 1,0,1
366 1098 m 0,19,20
 366 1142 366 1142 344.5 1178 c 128,-1,21
 323 1214 323 1214 275 1214 c 0,22,23
 220 1214 220 1214 203.5 1178 c 128,-1,24
 187 1142 187 1142 187 1098 c 0,25,26
 187 1051 187 1051 212 1020.5 c 128,-1,27
 237 990 237 990 285 990 c 256,28,29
 333 990 333 990 349.5 1025.5 c 128,-1,30
 366 1061 366 1061 366 1098 c 0,19,20
EndSplineSet
EndChar
StartChar: uni0E1B
Encoding: 3611 3611 296
Width: 1234
VWidth: 3393
Flags: W
HStem: 0 129<502 1017> 881 109<208.678 349.065> 1214 106<203.017 342.868>
VStem: 51 136<1012.66 1179.42> 353 149<129 909 1047.83 1144.97> 1017 154<129 1788>
Fore
353 909 m 1,0,1
 315 881 315 881 258 881 c 0,2,3
 162 881 162 881 106.5 940.5 c 128,-1,4
 51 1000 51 1000 51 1094 c 0,5,6
 51 1197 51 1197 110 1258.5 c 128,-1,7
 169 1320 169 1320 268 1320 c 0,8,9
 398 1320 398 1320 450 1243 c 128,-1,10
 502 1166 502 1166 502 1048 c 2,11,-1
 502 129 l 1,12,-1
 1017 129 l 1,13,-1
 1017 1788 l 1,14,-1
 1171 1788 l 1,15,-1
 1171 0 l 1,16,-1
 353 0 l 1,17,-1
 353 909 l 1,0,1
363 1098 m 0,18,19
 363 1142 363 1142 341.5 1178 c 128,-1,20
 320 1214 320 1214 272 1214 c 0,21,22
 220 1214 220 1214 203.5 1178 c 128,-1,23
 187 1142 187 1142 187 1098 c 0,24,25
 187 1051 187 1051 212 1020.5 c 128,-1,26
 237 990 237 990 285 990 c 256,27,28
 333 990 333 990 348 1025.5 c 128,-1,29
 363 1061 363 1061 363 1098 c 0,18,19
EndSplineSet
EndChar
StartChar: uni0E1C
Encoding: 3612 3612 297
Width: 1234
VWidth: 3393
Flags: W
HStem: 0 21G<139 376.688 882.98 1123> 864 133<309.532 475.034> 1190 133<328.052 471.658>
VStem: 139 149<159 902 1023.3 1142.04> 495 133<1017.56 1167.97> 974 149<162 1311>
Fore
366 0 m 1,0,-1
 139 0 l 1,1,-1
 139 1094 l 2,2,3
 139 1142 139 1142 161.5 1184.5 c 128,-1,4
 184 1227 184 1227 219.5 1257.5 c 128,-1,5
 255 1288 255 1288 299 1305.5 c 128,-1,6
 343 1323 343 1323 386 1323 c 0,7,8
 492 1323 492 1323 560 1263.5 c 128,-1,9
 628 1204 628 1204 628 1094 c 256,10,11
 628 987 628 987 566.5 925.5 c 128,-1,12
 505 864 505 864 398 864 c 0,13,14
 330 864 330 864 288 902 c 1,15,-1
 288 159 l 1,16,-1
 597 673 l 1,17,-1
 693 673 l 1,18,-1
 974 162 l 1,19,-1
 974 1311 l 1,20,-1
 1123 1311 l 1,21,-1
 1123 0 l 1,22,-1
 893 0 l 1,23,-1
 638 509 l 1,24,-1
 366 0 l 1,0,-1
495 1094 m 0,25,26
 495 1139 495 1139 464.5 1164.5 c 128,-1,27
 434 1190 434 1190 394 1190 c 0,28,29
 356 1190 356 1190 319 1163 c 128,-1,30
 282 1136 282 1136 282 1094 c 0,31,32
 282 1048 282 1048 319 1022.5 c 128,-1,33
 356 997 356 997 398 997 c 0,34,35
 441 997 441 997 468 1022.5 c 128,-1,36
 495 1048 495 1048 495 1094 c 0,25,26
EndSplineSet
EndChar
StartChar: uni0E1D
Encoding: 3613 3613 298
Width: 1234
VWidth: 3393
Flags: W
HStem: 0 21G<143 380.648 885.98 1127> 864 136<311.452 478.57> 1190 133<328.376 475.167>
VStem: 143 149<159 902 1026.3 1144.86> 499 132<1020.44 1167.97> 978 149<162 1823>
Fore
370 0 m 1,0,-1
 143 0 l 1,1,-1
 143 1094 l 2,2,3
 143 1142 143 1142 165 1184.5 c 128,-1,4
 187 1227 187 1227 222.5 1257.5 c 128,-1,5
 258 1288 258 1288 302 1305.5 c 128,-1,6
 346 1323 346 1323 391 1323 c 0,7,8
 495 1323 495 1323 563 1263.5 c 128,-1,9
 631 1204 631 1204 631 1094 c 256,10,11
 631 987 631 987 570 925.5 c 128,-1,12
 509 864 509 864 401 864 c 0,13,14
 333 864 333 864 292 902 c 1,15,-1
 292 159 l 1,16,-1
 597 673 l 1,17,-1
 693 673 l 1,18,-1
 978 162 l 1,19,-1
 978 1823 l 1,20,-1
 1127 1823 l 1,21,-1
 1127 0 l 1,22,-1
 896 0 l 1,23,-1
 641 509 l 1,24,-1
 370 0 l 1,0,-1
499 1094 m 256,25,26
 499 1139 499 1139 468 1164.5 c 128,-1,27
 437 1190 437 1190 398 1190 c 256,28,29
 356 1190 356 1190 320.5 1164.5 c 128,-1,30
 285 1139 285 1139 285 1094 c 256,31,32
 285 1051 285 1051 320.5 1025.5 c 128,-1,33
 356 1000 356 1000 401 1000 c 256,34,35
 444 1000 444 1000 471.5 1025.5 c 128,-1,36
 499 1051 499 1051 499 1094 c 256,25,26
EndSplineSet
EndChar
StartChar: uni0E1E
Encoding: 3614 3614 299
Width: 1234
VWidth: 3393
Flags: W
HStem: 0 21G<336 562.484 962.435 1175> 871 109<176.842 314.217> 1224 99<175.223 334.23>
VStem: 23 126<1009.95 1194.21> 336 150<159 887> 360 126<1018.67 1142.58> 1024 151<159 1311>
Fore
557 0 m 1,0,-1
 336 0 l 1,1,-1
 336 887 l 1,2,3
 320 877 320 877 296 874 c 128,-1,4
 272 871 272 871 255 871 c 0,5,6
 139 871 139 871 81 932 c 128,-1,7
 23 993 23 993 23 1106 c 0,8,9
 23 1210 23 1210 92.5 1266.5 c 128,-1,10
 162 1323 162 1323 265 1323 c 0,11,12
 383 1323 383 1323 434.5 1255 c 128,-1,13
 486 1187 486 1187 486 1071 c 2,14,-1
 486 159 l 1,15,-1
 713 961 l 1,16,-1
 804 961 l 1,17,-1
 1024 159 l 1,18,-1
 1024 1311 l 1,19,-1
 1175 1311 l 1,20,-1
 1175 0 l 1,21,-1
 968 0 l 1,22,-1
 761 744 l 1,23,-1
 557 0 l 1,0,-1
360 1098 m 256,24,25
 360 1142 360 1142 334 1183 c 128,-1,26
 308 1224 308 1224 262 1224 c 0,27,28
 204 1224 204 1224 176.5 1186.5 c 128,-1,29
 149 1149 149 1149 149 1098 c 0,30,31
 149 1051 149 1051 179.5 1015.5 c 128,-1,32
 210 980 210 980 262 980 c 0,33,34
 308 980 308 980 334 1017.5 c 128,-1,35
 360 1055 360 1055 360 1098 c 256,24,25
EndSplineSet
EndChar
StartChar: uni0E1F
Encoding: 3615 3615 300
Width: 1234
VWidth: 3393
Flags: W
HStem: 0 21G<336 562.484 962.435 1175> 871 109<179.338 314.217> 1224 99<175.223 334.23>
VStem: 23 126<1011.31 1194.21> 336 150<159 887> 360 126<1018.67 1142.58> 1024 151<159 1791>
Fore
557 0 m 1,0,-1
 336 0 l 1,1,-1
 336 887 l 1,2,3
 320 877 320 877 296 874 c 128,-1,4
 272 871 272 871 255 871 c 0,5,6
 139 871 139 871 81 932 c 128,-1,7
 23 993 23 993 23 1106 c 0,8,9
 23 1210 23 1210 92.5 1266.5 c 128,-1,10
 162 1323 162 1323 265 1323 c 0,11,12
 383 1323 383 1323 434.5 1255 c 128,-1,13
 486 1187 486 1187 486 1071 c 2,14,-1
 486 159 l 1,15,-1
 713 961 l 1,16,-1
 804 961 l 1,17,-1
 1024 159 l 1,18,-1
 1024 1791 l 1,19,-1
 1175 1791 l 1,20,-1
 1175 0 l 1,21,-1
 968 0 l 1,22,-1
 761 744 l 1,23,-1
 557 0 l 1,0,-1
360 1098 m 256,24,25
 360 1142 360 1142 334 1183 c 128,-1,26
 308 1224 308 1224 262 1224 c 0,27,28
 204 1224 204 1224 176.5 1186.5 c 128,-1,29
 149 1149 149 1149 149 1098 c 0,30,31
 149 1051 149 1051 181.5 1015.5 c 128,-1,32
 214 980 214 980 262 980 c 256,33,34
 308 980 308 980 334 1017.5 c 128,-1,35
 360 1055 360 1055 360 1098 c 256,24,25
EndSplineSet
EndChar
StartChar: uni0E20
Encoding: 3616 3616 301
Width: 1234
VWidth: 3393
Flags: W
HStem: -30 105<202.22 347.21> 302 112<201.301 318.67> 923 109<353 447> 1208 119<644.02 894.66>
VStem: 55 126<118.844 263.02> 346 149<391 726.079> 366 129<142.888 264.874> 1014 149<0 1083.87>
Fore
1014 903 m 2,0,1
 1014 1039 1014 1039 941 1123.5 c 128,-1,2
 868 1208 868 1208 719 1208 c 0,3,4
 676 1208 676 1208 621.5 1196 c 128,-1,5
 567 1184 567 1184 516.5 1162 c 128,-1,6
 466 1140 466 1140 421 1107.5 c 128,-1,7
 376 1075 376 1075 353 1032 c 1,8,-1
 618 1032 l 1,9,-1
 618 916 l 1,10,11
 560 879 560 879 527.5 831 c 128,-1,12
 495 783 495 783 495 715 c 2,13,-1
 495 217 l 2,14,15
 495 109 495 109 446.5 39.5 c 128,-1,16
 398 -30 398 -30 278 -30 c 0,17,18
 172 -30 172 -30 113.5 35.5 c 128,-1,19
 55 101 55 101 55 204 c 0,20,21
 55 295 55 295 107 354.5 c 128,-1,22
 159 414 159 414 252 414 c 0,23,24
 278 414 278 414 302 411 c 128,-1,25
 326 408 326 408 346 391 c 1,26,-1
 346 641 l 2,27,28
 346 682 346 682 349.5 727.5 c 0,29,30
 352.603 767.838 352.603 767.838 370 812 c 0,31,32
 383 845 383 845 405.5 870.5 c 128,-1,33
 428 896 428 896 447 923 c 1,34,-1
 224 923 l 1,35,-1
 224 1090 l 1,36,37
 265 1143 265 1143 324 1187.5 c 128,-1,38
 383 1232 383 1232 449 1262 c 128,-1,39
 515 1292 515 1292 588 1309.5 c 128,-1,40
 661 1327 661 1327 726 1327 c 0,41,42
 943 1327 943 1327 1053 1220 c 128,-1,43
 1163 1113 1163 1113 1163 909 c 2,44,-1
 1163 0 l 1,45,-1
 1014 0 l 1,46,-1
 1014 903 l 2,0,1
366 191 m 256,47,48
 366 230 366 230 337 266 c 128,-1,49
 308 302 308 302 265 302 c 0,50,51
 227 302 227 302 204 268 c 128,-1,52
 181 234 181 234 181 197 c 0,53,54
 181 149 181 149 204 112 c 128,-1,55
 227 75 227 75 278 75 c 0,56,57
 326 75 326 75 346 112 c 128,-1,58
 366 149 366 149 366 191 c 256,47,48
EndSplineSet
EndChar
StartChar: uni0E21
Encoding: 3617 3617 302
Width: 1234
VWidth: 3393
Flags: W
HStem: -30 108<308.836 402.431> 441 132<319.394 385.897> 871 119<246.724 386.246> 1204 119<251.743 408.3>
VStem: 81 143<1014.98 1179.42> 119 143<196.045 347.872> 411 142<114.301 414 573 891> 428 132<1025.07 1175.64> 1007 150<210 1311>
Fore
1014 0 m 1,0,1
 961 58 961 58 948 69.5 c 0,2,-1
 843 165 l 0,3,4
 751 249 751 249 689.5 299.5 c 128,-1,5
 628 350 628 350 553 414 c 1,6,-1
 553 169 l 2,7,8
 553 70.6471 553 70.6471 499 23 c 0,9,10
 438.933 -30 438.933 -30 353 -30 c 0,11,12
 298 -30 298 -30 254 -5 c 128,-1,13
 210 20 210 20 179.5 60.5 c 128,-1,14
 149 101 149 101 134 152.5 c 128,-1,15
 119 204 119 204 119 255 c 0,16,17
 119 315 119 315 142.5 369.5 c 128,-1,18
 166 424 166 424 207.5 466.5 c 128,-1,19
 249 509 249 509 301 538 c 128,-1,20
 353 567 353 567 411 573 c 1,21,-1
 411 891 l 1,22,23
 394 874 394 874 372 872.5 c 128,-1,24
 350 871 350 871 323 871 c 0,25,26
 217 871 217 871 149 922 c 128,-1,27
 81 973 81 973 81 1084 c 0,28,29
 81 1204 81 1204 157.5 1263.5 c 128,-1,30
 234 1323 234 1323 346 1323 c 0,31,32
 466 1323 466 1323 513 1253.5 c 128,-1,33
 560 1184 560 1184 560 1074 c 2,34,-1
 560 560 l 1,35,36
 679 476 679 476 784.5 387 c 128,-1,37
 890 298 890 298 1007 210 c 1,38,-1
 1007 1311 l 1,39,-1
 1157 1311 l 1,40,-1
 1157 0 l 1,41,-1
 1014 0 l 1,0,1
428 1109 m 0,42,43
 428 1149 428 1149 403.5 1176.5 c 128,-1,44
 379 1204 379 1204 336 1204 c 0,45,46
 295 1204 295 1204 259.5 1176.5 c 128,-1,47
 224 1149 224 1149 224 1101 c 256,48,49
 224 1055 224 1055 249.5 1022.5 c 128,-1,50
 275 990 275 990 323 990 c 0,51,52
 376 990 376 990 402 1024 c 128,-1,53
 428 1058 428 1058 428 1109 c 0,42,43
411 441 m 1,54,55
 343 434 343 434 302.5 378.5 c 128,-1,56
 262 323 262 323 262 258 c 0,57,58
 262 237 262 237 267 206.5 c 128,-1,59
 272 176 272 176 282 147.5 c 128,-1,60
 292 119 292 119 309 98.5 c 128,-1,61
 326 78 326 78 350 78 c 0,62,63
 391 78 391 78 401 105.5 c 128,-1,64
 411 133 411 133 411 169 c 2,65,-1
 411 441 l 1,54,55
EndSplineSet
EndChar
StartChar: uni0E22
Encoding: 3618 3618 303
Width: 1234
VWidth: 3393
Flags: W
HStem: 0 129<373 971> 615 124<511.844 729> 893 118<509.828 654.524> 1201 123<422.604 620.926>
VStem: 129 146<841.899 1068.04> 224 149<129 524.959> 356 133<1042.45 1120.83> 664 130<1019 1192.14> 971 149<129 1311>
Fore
224 391 m 1,0,1
 224 479 224 479 263 548.5 c 128,-1,2
 302 618 302 618 379 661 c 1,3,4
 272 683 272 683 200.5 765.5 c 128,-1,5
 129 848 129 848 129 961 c 0,6,7
 129 1117 129 1117 231 1220.5 c 128,-1,8
 333 1324 333 1324 486 1324 c 0,9,10
 543 1324 543 1324 599 1315 c 128,-1,11
 655 1306 655 1306 699.5 1282.5 c 128,-1,12
 744 1259 744 1259 769 1215 c 128,-1,13
 794 1171 794 1171 794 1104 c 0,14,15
 794 1007 794 1007 735 950 c 128,-1,16
 676 893 676 893 580 893 c 0,17,18
 492 893 492 893 424 945.5 c 128,-1,19
 356 998 356 998 356 1089 c 2,20,-1
 356 1092 l 2,21,22
 356 1100 356 1100 358 1121.5 c 128,-1,23
 360 1143 360 1143 366 1160 c 1,24,25
 312 1133 312 1133 293.5 1067 c 128,-1,26
 275 1001 275 1001 275 940 c 0,27,28
 275 886 275 886 307.5 848 c 128,-1,29
 340 810 340 810 385.5 787 c 128,-1,30
 431 764 431 764 485.5 751.5 c 128,-1,31
 540 739 540 739 580 739 c 2,32,-1
 729 739 l 1,33,-1
 729 615 l 1,34,-1
 600 615 l 2,35,36
 505 615 505 615 439 550.5 c 128,-1,37
 373 486 373 486 373 383 c 2,38,-1
 373 129 l 1,39,-1
 971 129 l 1,40,-1
 971 1311 l 1,41,-1
 1120 1311 l 1,42,-1
 1120 0 l 1,43,-1
 224 0 l 1,44,-1
 224 391 l 1,0,1
664 1107 m 256,45,46
 664 1201 664 1201 573 1201 c 0,47,48
 534 1201 534 1201 511.5 1174 c 128,-1,49
 489 1147 489 1147 489 1110 c 256,50,51
 489 1072 489 1072 514.5 1041.5 c 128,-1,52
 540 1011 540 1011 577 1011 c 0,53,54
 664 1011 664 1011 664 1107 c 256,45,46
EndSplineSet
EndChar
